<?xml version="1.0" encoding="UTF-8" standalone="no"?>
<!DOCTYPE svg PUBLIC "-//W3C//DTD SVG 1.1//EN"
 "http://www.w3.org/Graphics/SVG/1.1/DTD/svg11.dtd">
<!-- Generated by graphviz version 2.40.1 (20161225.0304)
 -->
<!-- Title: alembic_version Pages: 1 -->
<svg width="218pt" height="84pt"
 viewBox="0.00 0.00 218.00 84.00" xmlns="http://www.w3.org/2000/svg" xmlns:xlink="http://www.w3.org/1999/xlink">
<g id="graph0" class="graph" transform="scale(1 1) rotate(0) translate(4 80)">
<title>alembic_version</title>
<polygon fill="#ffffff" stroke="transparent" points="-4,4 -4,-80 214,-80 214,4 -4,4"/>
<!-- alembic_version -->
<g id="node1" class="node">
<title>alembic_version</title>
<g id="a_node1"><a xlink:href="../../tables/alembic_version.html" xlink:title="alembic_version" target="_top">
<polygon fill="#ffffff" stroke="transparent" points="8,-4 8,-72 202,-72 202,-4 8,-4"/>
<polygon fill="#f5f5f5" stroke="transparent" points="10,-47 10,-70 200,-70 200,-47 10,-47"/>
<polygon fill="none" stroke="#000000" points="10,-47 10,-70 200,-70 200,-47 10,-47"/>
<text text-anchor="start" x="15" y="-56.1" font-family="Helvetica,sans-Serif" font-weight="bold" font-size="11.00" fill="#000000">alembic_version</text>
<text text-anchor="start" x="165.0437" y="-55.1" font-family="Helvetica,sans-Serif" font-size="11.00" fill="#000000">[table]</text>
<polygon fill="none" stroke="#000000" points="10,-25 10,-47 139,-47 139,-25 10,-25"/>
<image xlink:href="../../images/primaryKeys.png" width="11px" height="12px" preserveAspectRatio="xMinYMin meet" x="15" y="-42"/>
<text text-anchor="start" x="30" y="-32.1" font-family="Helvetica,sans-Serif" font-size="11.00" fill="#000000">version_num</text>
<polygon fill="none" stroke="#000000" points="139,-25 139,-47 200,-47 200,-25 139,-25"/>
<text text-anchor="start" x="141.994" y="-32.7" font-family="Helvetica,sans-Serif" font-size="11.00" fill="#000000">varchar[32]</text>
<polygon fill="#ffffff" stroke="transparent" points="10,-6 10,-25 69,-25 69,-6 10,-6"/>
<polygon fill="none" stroke="#000000" points="10,-6 10,-25 69,-25 69,-6 10,-6"/>
<text text-anchor="start" x="13" y="-12.1" font-family="Helvetica,sans-Serif" font-size="11.00" fill="#000000">&lt; 0</text>
<polygon fill="#ffffff" stroke="transparent" points="69,-6 69,-25 139,-25 139,-6 69,-6"/>
<polygon fill="none" stroke="#000000" points="69,-6 69,-25 139,-25 139,-6 69,-6"/>
<text text-anchor="start" x="109.1105" y="-12.1" font-family="Helvetica,sans-Serif" font-size="11.00" fill="#000000">1 row</text>
<polygon fill="#ffffff" stroke="transparent" points="139,-6 139,-25 200,-25 200,-6 139,-6"/>
<polygon fill="none" stroke="#000000" points="139,-6 139,-25 200,-25 200,-6 139,-6"/>
<text text-anchor="start" x="181.4053" y="-12.1" font-family="Helvetica,sans-Serif" font-size="11.00" fill="#000000">0 &gt;</text>
<polygon fill="none" stroke="#000000" stroke-width="2" points="9,-5 9,-71 201,-71 201,-5 9,-5"/>
</a>
</g>
</g>
</g>
</svg>
