<?xml version="1.0" encoding="UTF-8" standalone="no"?>
<!DOCTYPE svg PUBLIC "-//W3C//DTD SVG 1.1//EN"
 "http://www.w3.org/Graphics/SVG/1.1/DTD/svg11.dtd">
<!-- Generated by graphviz version 2.40.1 (20161225.0304)
 -->
<!-- Title: largeRelationshipsDiagram Pages: 1 -->
<svg width="540pt" height="457pt"
 viewBox="0.00 0.00 540.00 457.23" xmlns="http://www.w3.org/2000/svg" xmlns:xlink="http://www.w3.org/1999/xlink">
<g id="graph0" class="graph" transform="scale(1 1) rotate(0) translate(4 453.2321)">
<title>largeRelationshipsDiagram</title>
<polygon fill="#ffffff" stroke="transparent" points="-4,4 -4,-453.2321 536,-453.2321 536,4 -4,4"/>
<text text-anchor="middle" x="72.4936" y="-7.3" font-family="Helvetica,sans-Serif" font-size="11.00" fill="#000000">Generated by SchemaSpy</text>
<!-- authority -->
<g id="node1" class="node">
<title>authority</title>
<g id="a_node1"><a xlink:href="../../tables/authority.html" xlink:title="authority" target="_top">
<polygon fill="#ffffff" stroke="transparent" points="419.5,-38.2321 419.5,-168.2321 504.5,-168.2321 504.5,-38.2321 419.5,-38.2321"/>
<polygon fill="#f5f5f5" stroke="transparent" points="420,-145.2321 420,-168.2321 505,-168.2321 505,-145.2321 420,-145.2321"/>
<polygon fill="none" stroke="#000000" points="420,-145.2321 420,-168.2321 505,-168.2321 505,-145.2321 420,-145.2321"/>
<text text-anchor="start" x="424.9119" y="-154.3321" font-family="Helvetica,sans-Serif" font-weight="bold" font-size="11.00" fill="#000000">authority</text>
<text text-anchor="start" x="470.5219" y="-153.3321" font-family="Helvetica,sans-Serif" font-size="11.00" fill="#000000">[table]</text>
<polygon fill="none" stroke="#000000" points="420,-123.2321 420,-145.2321 505,-145.2321 505,-123.2321 420,-123.2321"/>
<image xlink:href="../../images/primaryKeys.png" width="11px" height="12px" preserveAspectRatio="xMinYMin meet" x="425" y="-140.232"/>
<text text-anchor="start" x="441" y="-130.3321" font-family="Helvetica,sans-Serif" font-size="11.00" fill="#000000">id</text>
<polygon fill="#ffffff" stroke="transparent" points="420,-101.2321 420,-123.2321 505,-123.2321 505,-101.2321 420,-101.2321"/>
<polygon fill="none" stroke="#000000" points="420,-101.2321 420,-123.2321 505,-123.2321 505,-101.2321 420,-101.2321"/>
<image xlink:href="../../images/foreignKeys.png" width="11px" height="12px" preserveAspectRatio="xMinYMin meet" x="425" y="-118.232"/>
<text text-anchor="start" x="441" y="-108.3321" font-family="Helvetica,sans-Serif" font-size="11.00" fill="#000000">user_id</text>
<polygon fill="#ffffff" stroke="transparent" points="420,-79.2321 420,-101.2321 505,-101.2321 505,-79.2321 420,-79.2321"/>
<polygon fill="none" stroke="#000000" points="420,-79.2321 420,-101.2321 505,-101.2321 505,-79.2321 420,-79.2321"/>
<image xlink:href="../../images/foreignKeys.png" width="11px" height="12px" preserveAspectRatio="xMinYMin meet" x="425" y="-96.2321"/>
<text text-anchor="start" x="441" y="-86.3321" font-family="Helvetica,sans-Serif" font-size="11.00" fill="#000000">group_id</text>
<polygon fill="none" stroke="#000000" points="420,-57.2321 420,-79.2321 505,-79.2321 505,-57.2321 420,-57.2321"/>
<text text-anchor="start" x="441" y="-64.3321" font-family="Helvetica,sans-Serif" font-size="11.00" fill="#000000">role</text>
<polygon fill="#ffffff" stroke="transparent" points="420,-38.2321 420,-57.2321 448,-57.2321 448,-38.2321 420,-38.2321"/>
<polygon fill="none" stroke="#000000" points="420,-38.2321 420,-57.2321 448,-57.2321 448,-38.2321 420,-38.2321"/>
<text text-anchor="start" x="423" y="-44.3321" font-family="Helvetica,sans-Serif" font-size="11.00" fill="#000000">&lt; 2</text>
<polygon fill="#ffffff" stroke="transparent" points="448,-38.2321 448,-57.2321 489,-57.2321 489,-38.2321 448,-38.2321"/>
<polygon fill="none" stroke="#000000" points="448,-38.2321 448,-57.2321 489,-57.2321 489,-38.2321 448,-38.2321"/>
<text text-anchor="start" x="453.6105" y="-44.3321" font-family="Helvetica,sans-Serif" font-size="11.00" fill="#000000">0 rows</text>
<polygon fill="#ffffff" stroke="transparent" points="489,-38.2321 489,-57.2321 505,-57.2321 505,-38.2321 489,-38.2321"/>
<polygon fill="none" stroke="#000000" points="489,-38.2321 489,-57.2321 505,-57.2321 505,-38.2321 489,-38.2321"/>
<text text-anchor="start" x="495.8862" y="-44.3321" font-family="Helvetica,sans-Serif" font-size="11.00" fill="#000000"> &#160;</text>
</a>
</g>
</g>
<!-- groups -->
<g id="node2" class="node">
<title>groups</title>
<g id="a_node2"><a xlink:href="../../tables/groups.html" xlink:title="groups" target="_top">
<polygon fill="#ffffff" stroke="transparent" points="8,-77.2321 8,-207.2321 106,-207.2321 106,-77.2321 8,-77.2321"/>
<polygon fill="#f5f5f5" stroke="transparent" points="8,-184.2321 8,-207.2321 106,-207.2321 106,-184.2321 8,-184.2321"/>
<polygon fill="none" stroke="#000000" points="8,-184.2321 8,-207.2321 106,-207.2321 106,-184.2321 8,-184.2321"/>
<text text-anchor="start" x="13" y="-193.3321" font-family="Helvetica,sans-Serif" font-weight="bold" font-size="11.00" fill="#000000">groups</text>
<text text-anchor="start" x="71.0437" y="-192.3321" font-family="Helvetica,sans-Serif" font-size="11.00" fill="#000000">[table]</text>
<polygon fill="none" stroke="#000000" points="8,-162.2321 8,-184.2321 106,-184.2321 106,-162.2321 8,-162.2321"/>
<image xlink:href="../../images/primaryKeys.png" width="11px" height="12px" preserveAspectRatio="xMinYMin meet" x="13" y="-179.232"/>
<text text-anchor="start" x="28" y="-169.3321" font-family="Helvetica,sans-Serif" font-size="11.00" fill="#000000">id</text>
<polygon fill="#ffffff" stroke="transparent" points="8,-140.2321 8,-162.2321 106,-162.2321 106,-140.2321 8,-140.2321"/>
<polygon fill="none" stroke="#000000" points="8,-140.2321 8,-162.2321 106,-162.2321 106,-140.2321 8,-140.2321"/>
<text text-anchor="start" x="28" y="-147.3321" font-family="Helvetica,sans-Serif" font-size="11.00" fill="#000000">groupname</text>
<polygon fill="none" stroke="#000000" points="8,-118.2321 8,-140.2321 106,-140.2321 106,-118.2321 8,-118.2321"/>
<text text-anchor="start" x="28" y="-125.3321" font-family="Helvetica,sans-Serif" font-size="11.00" fill="#000000">title</text>
<polygon fill="none" stroke="#000000" points="8,-96.2321 8,-118.2321 106,-118.2321 106,-96.2321 8,-96.2321"/>
<text text-anchor="start" x="28" y="-103.3321" font-family="Helvetica,sans-Serif" font-size="11.00" fill="#000000">description</text>
<polygon fill="#ffffff" stroke="transparent" points="8,-77.2321 8,-96.2321 33,-96.2321 33,-77.2321 8,-77.2321"/>
<polygon fill="none" stroke="#000000" points="8,-77.2321 8,-96.2321 33,-96.2321 33,-77.2321 8,-77.2321"/>
<text text-anchor="start" x="11" y="-83.3321" font-family="Helvetica,sans-Serif" font-size="11.00" fill="#000000"> &#160;</text>
<polygon fill="#ffffff" stroke="transparent" points="33,-77.2321 33,-96.2321 78,-96.2321 78,-77.2321 33,-77.2321"/>
<polygon fill="none" stroke="#000000" points="33,-77.2321 33,-96.2321 78,-96.2321 78,-77.2321 33,-77.2321"/>
<text text-anchor="start" x="42.6105" y="-83.3321" font-family="Helvetica,sans-Serif" font-size="11.00" fill="#000000">0 rows</text>
<polygon fill="#ffffff" stroke="transparent" points="78,-77.2321 78,-96.2321 106,-96.2321 106,-77.2321 78,-77.2321"/>
<polygon fill="none" stroke="#000000" points="78,-77.2321 78,-96.2321 106,-96.2321 106,-77.2321 78,-77.2321"/>
<text text-anchor="start" x="87.4053" y="-83.3321" font-family="Helvetica,sans-Serif" font-size="11.00" fill="#000000">2 &gt;</text>
</a>
</g>
</g>
<!-- authority&#45;&gt;groups -->
<g id="edge1" class="edge">
<title>authority:w&#45;&gt;groups:e</title>
<path fill="none" stroke="#000000" d="M405.3506,-88.1093C388.4188,-82.6428 382.3415,-68.1669 359,-63.2321 266.8155,-43.7425 224.3901,-9.4864 147,-63.2321 104.1461,-92.9931 158.1744,-173.2321 106,-173.2321"/>
<polygon fill="#000000" stroke="#000000" points="412.0827,-89.0847 419.4837,-93.7949 416.0413,-89.6584 420,-90.2321 420,-90.2321 420,-90.2321 416.0413,-89.6584 420.5163,-86.6693 412.0827,-89.0847 412.0827,-89.0847"/>
<ellipse fill="none" stroke="#000000" cx="408.9158" cy="-88.6258" rx="3.2" ry="3.2"/>
</g>
<!-- users -->
<g id="node5" class="node">
<title>users</title>
<g id="a_node5"><a xlink:href="../../tables/users.html" xlink:title="users" target="_top">
<polygon fill="#ffffff" stroke="transparent" points="155,-73.2321 155,-247.2321 351,-247.2321 351,-73.2321 155,-73.2321"/>
<polygon fill="#f5f5f5" stroke="transparent" points="155,-224.2321 155,-247.2321 351,-247.2321 351,-224.2321 155,-224.2321"/>
<polygon fill="none" stroke="#000000" points="155,-224.2321 155,-247.2321 351,-247.2321 351,-224.2321 155,-224.2321"/>
<text text-anchor="start" x="160" y="-233.3321" font-family="Helvetica,sans-Serif" font-weight="bold" font-size="11.00" fill="#000000">users</text>
<text text-anchor="start" x="316.0437" y="-232.3321" font-family="Helvetica,sans-Serif" font-size="11.00" fill="#000000">[table]</text>
<polygon fill="none" stroke="#000000" points="155,-202.2321 155,-224.2321 351,-224.2321 351,-202.2321 155,-202.2321"/>
<image xlink:href="../../images/primaryKeys.png" width="11px" height="12px" preserveAspectRatio="xMinYMin meet" x="160" y="-219.232"/>
<text text-anchor="start" x="175" y="-209.3321" font-family="Helvetica,sans-Serif" font-size="11.00" fill="#000000">id</text>
<polygon fill="#ffffff" stroke="transparent" points="155,-180.2321 155,-202.2321 351,-202.2321 351,-180.2321 155,-180.2321"/>
<polygon fill="none" stroke="#000000" points="155,-180.2321 155,-202.2321 351,-202.2321 351,-180.2321 155,-180.2321"/>
<text text-anchor="start" x="175" y="-187.3321" font-family="Helvetica,sans-Serif" font-size="11.00" fill="#000000">username</text>
<polygon fill="none" stroke="#000000" points="155,-158.2321 155,-180.2321 351,-180.2321 351,-158.2321 155,-158.2321"/>
<text text-anchor="start" x="175" y="-165.3321" font-family="Helvetica,sans-Serif" font-size="11.00" fill="#000000">hashed_password</text>
<polygon fill="none" stroke="#000000" points="155,-136.2321 155,-158.2321 351,-158.2321 351,-136.2321 155,-136.2321"/>
<text text-anchor="start" x="175" y="-143.3321" font-family="Helvetica,sans-Serif" font-size="11.00" fill="#000000">is_Family</text>
<polygon fill="none" stroke="#000000" points="155,-114.2321 155,-136.2321 351,-136.2321 351,-114.2321 155,-114.2321"/>
<text text-anchor="start" x="175" y="-121.3321" font-family="Helvetica,sans-Serif" font-size="11.00" fill="#000000">is_active</text>
<polygon fill="none" stroke="#000000" points="155,-92.2321 155,-114.2321 351,-114.2321 351,-92.2321 155,-92.2321"/>
<text text-anchor="start" x="175" y="-99.3321" font-family="Helvetica,sans-Serif" font-size="11.00" fill="#000000">require_change_password</text>
<polygon fill="#ffffff" stroke="transparent" points="155,-73.2321 155,-92.2321 229,-92.2321 229,-73.2321 155,-73.2321"/>
<polygon fill="none" stroke="#000000" points="155,-73.2321 155,-92.2321 229,-92.2321 229,-73.2321 155,-73.2321"/>
<text text-anchor="start" x="158" y="-79.3321" font-family="Helvetica,sans-Serif" font-size="11.00" fill="#000000"> &#160;</text>
<polygon fill="#ffffff" stroke="transparent" points="229,-73.2321 229,-92.2321 298,-92.2321 298,-73.2321 229,-73.2321"/>
<polygon fill="none" stroke="#000000" points="229,-73.2321 229,-92.2321 298,-92.2321 298,-73.2321 229,-73.2321"/>
<text text-anchor="start" x="262.6105" y="-79.3321" font-family="Helvetica,sans-Serif" font-size="11.00" fill="#000000">0 rows</text>
<polygon fill="#ffffff" stroke="transparent" points="298,-73.2321 298,-92.2321 351,-92.2321 351,-73.2321 298,-73.2321"/>
<polygon fill="none" stroke="#000000" points="298,-73.2321 298,-92.2321 351,-92.2321 351,-73.2321 298,-73.2321"/>
<text text-anchor="start" x="332.4053" y="-79.3321" font-family="Helvetica,sans-Serif" font-size="11.00" fill="#000000">2 &gt;</text>
</a>
</g>
</g>
<!-- authority&#45;&gt;users -->
<g id="edge2" class="edge">
<title>authority:w&#45;&gt;users:e</title>
<path fill="none" stroke="#000000" d="M405.718,-115.3656C372.9694,-132.4133 399.6304,-213.2321 351,-213.2321"/>
<polygon fill="#000000" stroke="#000000" points="412.1859,-113.9466 420.7715,-115.7484 416.0929,-113.0893 420,-112.2321 420,-112.2321 420,-112.2321 416.0929,-113.0893 419.2285,-108.7157 412.1859,-113.9466 412.1859,-113.9466"/>
<ellipse fill="none" stroke="#000000" cx="409.0602" cy="-114.6323" rx="3.2" ry="3.2"/>
</g>
<!-- programs -->
<g id="node3" class="node">
<title>programs</title>
<g id="a_node3"><a xlink:href="../../tables/programs.html" xlink:title="programs" target="_top">
<polygon fill="#ffffff" stroke="transparent" points="202,-268.2321 202,-442.2321 304,-442.2321 304,-268.2321 202,-268.2321"/>
<polygon fill="#f5f5f5" stroke="transparent" points="202,-419.2321 202,-442.2321 304,-442.2321 304,-419.2321 202,-419.2321"/>
<polygon fill="none" stroke="#000000" points="202,-419.2321 202,-442.2321 304,-442.2321 304,-419.2321 202,-419.2321"/>
<text text-anchor="start" x="207" y="-428.3321" font-family="Helvetica,sans-Serif" font-weight="bold" font-size="11.00" fill="#000000">programs</text>
<text text-anchor="start" x="269.0437" y="-427.3321" font-family="Helvetica,sans-Serif" font-size="11.00" fill="#000000">[table]</text>
<polygon fill="none" stroke="#000000" points="202,-397.2321 202,-419.2321 304,-419.2321 304,-397.2321 202,-397.2321"/>
<image xlink:href="../../images/primaryKeys.png" width="11px" height="12px" preserveAspectRatio="xMinYMin meet" x="207" y="-414.232"/>
<text text-anchor="start" x="222" y="-404.3321" font-family="Helvetica,sans-Serif" font-size="11.00" fill="#000000">id</text>
<polygon fill="none" stroke="#000000" points="202,-375.2321 202,-397.2321 304,-397.2321 304,-375.2321 202,-375.2321"/>
<text text-anchor="start" x="222" y="-382.3321" font-family="Helvetica,sans-Serif" font-size="11.00" fill="#000000">sell_at</text>
<polygon fill="none" stroke="#000000" points="202,-353.2321 202,-375.2321 304,-375.2321 304,-353.2321 202,-353.2321"/>
<text text-anchor="start" x="222" y="-360.3321" font-family="Helvetica,sans-Serif" font-size="11.00" fill="#000000">starts_at</text>
<polygon fill="none" stroke="#000000" points="202,-331.2321 202,-353.2321 304,-353.2321 304,-331.2321 202,-331.2321"/>
<text text-anchor="start" x="222" y="-338.3321" font-family="Helvetica,sans-Serif" font-size="11.00" fill="#000000">ends_at</text>
<polygon fill="none" stroke="#000000" points="202,-309.2321 202,-331.2321 304,-331.2321 304,-309.2321 202,-309.2321"/>
<text text-anchor="start" x="222" y="-316.3321" font-family="Helvetica,sans-Serif" font-size="11.00" fill="#000000">ticket_stock</text>
<polygon fill="#ffffff" stroke="transparent" points="202,-287.2321 202,-309.2321 304,-309.2321 304,-287.2321 202,-287.2321"/>
<polygon fill="none" stroke="#000000" points="202,-287.2321 202,-309.2321 304,-309.2321 304,-287.2321 202,-287.2321"/>
<image xlink:href="../../images/foreignKeys.png" width="11px" height="12px" preserveAspectRatio="xMinYMin meet" x="207" y="-304.232"/>
<text text-anchor="start" x="222" y="-294.3321" font-family="Helvetica,sans-Serif" font-size="11.00" fill="#000000">group_id</text>
<polygon fill="#ffffff" stroke="transparent" points="202,-268.2321 202,-287.2321 234,-287.2321 234,-268.2321 202,-268.2321"/>
<polygon fill="none" stroke="#000000" points="202,-268.2321 202,-287.2321 234,-287.2321 234,-268.2321 202,-268.2321"/>
<text text-anchor="start" x="205" y="-274.3321" font-family="Helvetica,sans-Serif" font-size="11.00" fill="#000000">&lt; 1</text>
<polygon fill="#ffffff" stroke="transparent" points="234,-268.2321 234,-287.2321 277,-287.2321 277,-268.2321 234,-268.2321"/>
<polygon fill="none" stroke="#000000" points="234,-268.2321 234,-287.2321 277,-287.2321 277,-268.2321 234,-268.2321"/>
<text text-anchor="start" x="241.6105" y="-274.3321" font-family="Helvetica,sans-Serif" font-size="11.00" fill="#000000">0 rows</text>
<polygon fill="#ffffff" stroke="transparent" points="277,-268.2321 277,-287.2321 304,-287.2321 304,-268.2321 277,-268.2321"/>
<polygon fill="none" stroke="#000000" points="277,-268.2321 277,-287.2321 304,-287.2321 304,-268.2321 277,-268.2321"/>
<text text-anchor="start" x="285.4053" y="-274.3321" font-family="Helvetica,sans-Serif" font-size="11.00" fill="#000000">1 &gt;</text>
</a>
</g>
</g>
<!-- programs&#45;&gt;groups -->
<g id="edge3" class="edge">
<title>programs:w&#45;&gt;groups:e</title>
<path fill="none" stroke="#000000" d="M187.6225,-296.5977C169.3201,-291.8479 162.8159,-277.1735 147,-258.2321 120.1173,-226.0369 147.9429,-173.2321 106,-173.2321"/>
<polygon fill="#000000" stroke="#000000" points="194.0512,-297.3284 201.5934,-301.809 198.0256,-297.7803 202,-298.2321 202,-298.2321 202,-298.2321 198.0256,-297.7803 202.4066,-294.6551 194.0512,-297.3284 194.0512,-297.3284"/>
<ellipse fill="none" stroke="#000000" cx="190.8717" cy="-296.967" rx="3.2" ry="3.2"/>
</g>
<!-- tickets -->
<g id="node4" class="node">
<title>tickets</title>
<g id="a_node4"><a xlink:href="../../tables/tickets.html" xlink:title="tickets" target="_top">
<polygon fill="#ffffff" stroke="transparent" points="400,-271.2321 400,-445.2321 524,-445.2321 524,-271.2321 400,-271.2321"/>
<polygon fill="#f5f5f5" stroke="transparent" points="400,-422.2321 400,-445.2321 524,-445.2321 524,-422.2321 400,-422.2321"/>
<polygon fill="none" stroke="#000000" points="400,-422.2321 400,-445.2321 524,-445.2321 524,-422.2321 400,-422.2321"/>
<text text-anchor="start" x="405" y="-431.3321" font-family="Helvetica,sans-Serif" font-weight="bold" font-size="11.00" fill="#000000">tickets</text>
<text text-anchor="start" x="489.0437" y="-430.3321" font-family="Helvetica,sans-Serif" font-size="11.00" fill="#000000">[table]</text>
<polygon fill="none" stroke="#000000" points="400,-400.2321 400,-422.2321 524,-422.2321 524,-400.2321 400,-400.2321"/>
<image xlink:href="../../images/primaryKeys.png" width="11px" height="12px" preserveAspectRatio="xMinYMin meet" x="405" y="-417.232"/>
<text text-anchor="start" x="420" y="-407.3321" font-family="Helvetica,sans-Serif" font-size="11.00" fill="#000000">id</text>
<polygon fill="none" stroke="#000000" points="400,-378.2321 400,-400.2321 524,-400.2321 524,-378.2321 400,-378.2321"/>
<text text-anchor="start" x="420" y="-385.3321" font-family="Helvetica,sans-Serif" font-size="11.00" fill="#000000">created_at</text>
<polygon fill="#ffffff" stroke="transparent" points="400,-356.2321 400,-378.2321 524,-378.2321 524,-356.2321 400,-356.2321"/>
<polygon fill="none" stroke="#000000" points="400,-356.2321 400,-378.2321 524,-378.2321 524,-356.2321 400,-356.2321"/>
<image xlink:href="../../images/foreignKeys.png" width="11px" height="12px" preserveAspectRatio="xMinYMin meet" x="405" y="-373.232"/>
<text text-anchor="start" x="420" y="-363.3321" font-family="Helvetica,sans-Serif" font-size="11.00" fill="#000000">program_id</text>
<polygon fill="#ffffff" stroke="transparent" points="400,-334.2321 400,-356.2321 524,-356.2321 524,-334.2321 400,-334.2321"/>
<polygon fill="none" stroke="#000000" points="400,-334.2321 400,-356.2321 524,-356.2321 524,-334.2321 400,-334.2321"/>
<image xlink:href="../../images/foreignKeys.png" width="11px" height="12px" preserveAspectRatio="xMinYMin meet" x="405" y="-351.232"/>
<text text-anchor="start" x="420" y="-341.3321" font-family="Helvetica,sans-Serif" font-size="11.00" fill="#000000">owner_id</text>
<polygon fill="none" stroke="#000000" points="400,-312.2321 400,-334.2321 524,-334.2321 524,-312.2321 400,-312.2321"/>
<text text-anchor="start" x="420" y="-319.3321" font-family="Helvetica,sans-Serif" font-size="11.00" fill="#000000">is_family_ticket</text>
<polygon fill="none" stroke="#000000" points="400,-290.2321 400,-312.2321 524,-312.2321 524,-290.2321 400,-290.2321"/>
<text text-anchor="start" x="420" y="-297.3321" font-family="Helvetica,sans-Serif" font-size="11.00" fill="#000000">is_used</text>
<polygon fill="#ffffff" stroke="transparent" points="400,-271.2321 400,-290.2321 447,-290.2321 447,-271.2321 400,-271.2321"/>
<polygon fill="none" stroke="#000000" points="400,-271.2321 400,-290.2321 447,-290.2321 447,-271.2321 400,-271.2321"/>
<text text-anchor="start" x="403" y="-277.3321" font-family="Helvetica,sans-Serif" font-size="11.00" fill="#000000">&lt; 2</text>
<polygon fill="#ffffff" stroke="transparent" points="447,-271.2321 447,-290.2321 498,-290.2321 498,-271.2321 447,-271.2321"/>
<polygon fill="none" stroke="#000000" points="447,-271.2321 447,-290.2321 498,-290.2321 498,-271.2321 447,-271.2321"/>
<text text-anchor="start" x="462.6105" y="-277.3321" font-family="Helvetica,sans-Serif" font-size="11.00" fill="#000000">0 rows</text>
<polygon fill="#ffffff" stroke="transparent" points="498,-271.2321 498,-290.2321 524,-290.2321 524,-271.2321 498,-271.2321"/>
<polygon fill="none" stroke="#000000" points="498,-271.2321 498,-290.2321 524,-290.2321 524,-271.2321 498,-271.2321"/>
<text text-anchor="start" x="514.8862" y="-277.3321" font-family="Helvetica,sans-Serif" font-size="11.00" fill="#000000"> &#160;</text>
</a>
</g>
</g>
<!-- tickets&#45;&gt;programs -->
<g id="edge5" class="edge">
<title>tickets:w&#45;&gt;programs:e</title>
<path fill="none" stroke="#000000" d="M385.3294,-368.7893C352.2596,-376.2784 344.9581,-408.2321 304,-408.2321"/>
<polygon fill="#000000" stroke="#000000" points="392.0447,-368.0765 400.38,-370.812 396.0223,-367.6543 400,-367.2321 400,-367.2321 400,-367.2321 396.0223,-367.6543 399.62,-363.6522 392.0447,-368.0765 392.0447,-368.0765"/>
<ellipse fill="none" stroke="#000000" cx="388.8626" cy="-368.4143" rx="3.2" ry="3.2"/>
</g>
<!-- tickets&#45;&gt;users -->
<g id="edge4" class="edge">
<title>tickets:w&#45;&gt;users:e</title>
<path fill="none" stroke="#000000" d="M385.8293,-341.9691C350.4817,-321.6422 407.7116,-213.2321 351,-213.2321"/>
<polygon fill="#000000" stroke="#000000" points="392.204,-343.4369 399.1922,-348.7403 396.102,-344.3345 400,-345.2321 400,-345.2321 400,-345.2321 396.102,-344.3345 400.8078,-341.7239 392.204,-343.4369 392.204,-343.4369"/>
<ellipse fill="none" stroke="#000000" cx="389.0856" cy="-342.7189" rx="3.2" ry="3.2"/>
</g>
</g>
</svg>
