<?xml version="1.0" encoding="UTF-8" standalone="no"?>
<!DOCTYPE svg PUBLIC "-//W3C//DTD SVG 1.1//EN"
 "http://www.w3.org/Graphics/SVG/1.1/DTD/svg11.dtd">
<!-- Generated by graphviz version 2.40.1 (20161225.0304)
 -->
<!-- Title: compactRelationshipsDiagram Pages: 1 -->
<svg width="540pt" height="338pt"
 viewBox="0.00 0.00 540.00 338.20" xmlns="http://www.w3.org/2000/svg" xmlns:xlink="http://www.w3.org/1999/xlink">
<g id="graph0" class="graph" transform="scale(1 1) rotate(0) translate(4 334.2)">
<title>compactRelationshipsDiagram</title>
<polygon fill="#ffffff" stroke="transparent" points="-4,4 -4,-334.2 536,-334.2 536,4 -4,4"/>
<text text-anchor="middle" x="72.4936" y="-7.3" font-family="Helvetica,sans-Serif" font-size="11.00" fill="#000000">Generated by SchemaSpy</text>
<!-- authority -->
<g id="node1" class="node">
<title>authority</title>
<g id="a_node1"><a xlink:href="../../tables/authority.html" xlink:title="authority" target="_top">
<polygon fill="#ffffff" stroke="transparent" points="419.5,-38.2 419.5,-165.2 504.5,-165.2 504.5,-38.2 419.5,-38.2"/>
<polygon fill="#f5f5f5" stroke="transparent" points="420,-141.7 420,-164.7 505,-164.7 505,-141.7 420,-141.7"/>
<polygon fill="none" stroke="#000000" points="420,-141.7 420,-164.7 505,-164.7 505,-141.7 420,-141.7"/>
<text text-anchor="start" x="424.9119" y="-150.8" font-family="Helvetica,sans-Serif" font-weight="bold" font-size="11.00" fill="#000000">authority</text>
<text text-anchor="start" x="470.5219" y="-149.8" font-family="Helvetica,sans-Serif" font-size="11.00" fill="#000000">[table]</text>
<polygon fill="none" stroke="#000000" points="420,-119.7 420,-141.7 505,-141.7 505,-119.7 420,-119.7"/>
<image xlink:href="../../images/primaryKeys.png" width="11px" height="12px" preserveAspectRatio="xMinYMin meet" x="425" y="-136.7"/>
<text text-anchor="start" x="441" y="-126.8" font-family="Helvetica,sans-Serif" font-size="11.00" fill="#000000">id</text>
<polygon fill="#ffffff" stroke="transparent" points="420,-97.7 420,-119.7 505,-119.7 505,-97.7 420,-97.7"/>
<polygon fill="none" stroke="#000000" points="420,-97.7 420,-119.7 505,-119.7 505,-97.7 420,-97.7"/>
<image xlink:href="../../images/foreignKeys.png" width="11px" height="12px" preserveAspectRatio="xMinYMin meet" x="425" y="-114.7"/>
<text text-anchor="start" x="441" y="-104.8" font-family="Helvetica,sans-Serif" font-size="11.00" fill="#000000">user_id</text>
<polygon fill="#ffffff" stroke="transparent" points="420,-75.7 420,-97.7 505,-97.7 505,-75.7 420,-75.7"/>
<polygon fill="none" stroke="#000000" points="420,-75.7 420,-97.7 505,-97.7 505,-75.7 420,-75.7"/>
<image xlink:href="../../images/foreignKeys.png" width="11px" height="12px" preserveAspectRatio="xMinYMin meet" x="425" y="-92.7"/>
<text text-anchor="start" x="441" y="-82.8" font-family="Helvetica,sans-Serif" font-size="11.00" fill="#000000">group_id</text>
<polygon fill="none" stroke="#000000" points="420,-56.7 420,-75.7 505,-75.7 505,-56.7 420,-56.7"/>
<text text-anchor="start" x="423" y="-62.8" font-family="Helvetica,sans-Serif" font-size="11.00" fill="#000000">...</text>
<polygon fill="#ffffff" stroke="transparent" points="420,-37.7 420,-56.7 448,-56.7 448,-37.7 420,-37.7"/>
<polygon fill="none" stroke="#000000" points="420,-37.7 420,-56.7 448,-56.7 448,-37.7 420,-37.7"/>
<text text-anchor="start" x="423" y="-43.8" font-family="Helvetica,sans-Serif" font-size="11.00" fill="#000000">&lt; 2</text>
<polygon fill="#ffffff" stroke="transparent" points="448,-37.7 448,-56.7 489,-56.7 489,-37.7 448,-37.7"/>
<polygon fill="none" stroke="#000000" points="448,-37.7 448,-56.7 489,-56.7 489,-37.7 448,-37.7"/>
<text text-anchor="start" x="453.6105" y="-43.8" font-family="Helvetica,sans-Serif" font-size="11.00" fill="#000000">0 rows</text>
<polygon fill="#ffffff" stroke="transparent" points="489,-37.7 489,-56.7 505,-56.7 505,-37.7 489,-37.7"/>
<polygon fill="none" stroke="#000000" points="489,-37.7 489,-56.7 505,-56.7 505,-37.7 489,-37.7"/>
<text text-anchor="start" x="495.8862" y="-43.8" font-family="Helvetica,sans-Serif" font-size="11.00" fill="#000000"> &#160;</text>
</a>
</g>
</g>
<!-- groups -->
<g id="node2" class="node">
<title>groups</title>
<g id="a_node2"><a xlink:href="../../tables/groups.html" xlink:title="groups" target="_top">
<polygon fill="#ffffff" stroke="transparent" points="8,-90.2 8,-195.2 106,-195.2 106,-90.2 8,-90.2"/>
<polygon fill="#f5f5f5" stroke="transparent" points="8,-171.7 8,-194.7 106,-194.7 106,-171.7 8,-171.7"/>
<polygon fill="none" stroke="#000000" points="8,-171.7 8,-194.7 106,-194.7 106,-171.7 8,-171.7"/>
<text text-anchor="start" x="13" y="-180.8" font-family="Helvetica,sans-Serif" font-weight="bold" font-size="11.00" fill="#000000">groups</text>
<text text-anchor="start" x="71.0437" y="-179.8" font-family="Helvetica,sans-Serif" font-size="11.00" fill="#000000">[table]</text>
<polygon fill="none" stroke="#000000" points="8,-149.7 8,-171.7 106,-171.7 106,-149.7 8,-149.7"/>
<image xlink:href="../../images/primaryKeys.png" width="11px" height="12px" preserveAspectRatio="xMinYMin meet" x="13" y="-166.7"/>
<text text-anchor="start" x="28" y="-156.8" font-family="Helvetica,sans-Serif" font-size="11.00" fill="#000000">id</text>
<polygon fill="#ffffff" stroke="transparent" points="8,-127.7 8,-149.7 106,-149.7 106,-127.7 8,-127.7"/>
<polygon fill="none" stroke="#000000" points="8,-127.7 8,-149.7 106,-149.7 106,-127.7 8,-127.7"/>
<text text-anchor="start" x="28" y="-134.8" font-family="Helvetica,sans-Serif" font-size="11.00" fill="#000000">groupname</text>
<polygon fill="none" stroke="#000000" points="8,-108.7 8,-127.7 106,-127.7 106,-108.7 8,-108.7"/>
<text text-anchor="start" x="11" y="-114.8" font-family="Helvetica,sans-Serif" font-size="11.00" fill="#000000">...</text>
<polygon fill="#ffffff" stroke="transparent" points="8,-89.7 8,-108.7 33,-108.7 33,-89.7 8,-89.7"/>
<polygon fill="none" stroke="#000000" points="8,-89.7 8,-108.7 33,-108.7 33,-89.7 8,-89.7"/>
<text text-anchor="start" x="11" y="-95.8" font-family="Helvetica,sans-Serif" font-size="11.00" fill="#000000"> &#160;</text>
<polygon fill="#ffffff" stroke="transparent" points="33,-89.7 33,-108.7 78,-108.7 78,-89.7 33,-89.7"/>
<polygon fill="none" stroke="#000000" points="33,-89.7 33,-108.7 78,-108.7 78,-89.7 33,-89.7"/>
<text text-anchor="start" x="42.6105" y="-95.8" font-family="Helvetica,sans-Serif" font-size="11.00" fill="#000000">0 rows</text>
<polygon fill="#ffffff" stroke="transparent" points="78,-89.7 78,-108.7 106,-108.7 106,-89.7 78,-89.7"/>
<polygon fill="none" stroke="#000000" points="78,-89.7 78,-108.7 106,-108.7 106,-89.7 78,-89.7"/>
<text text-anchor="start" x="87.4053" y="-95.8" font-family="Helvetica,sans-Serif" font-size="11.00" fill="#000000">2 &gt;</text>
</a>
</g>
</g>
<!-- authority&#45;&gt;groups -->
<g id="edge1" class="edge">
<title>authority:w&#45;&gt;groups:e</title>
<path fill="none" stroke="#000000" d="M405.5183,-85.7649C389.1249,-83.4796 380.8653,-77.6557 359,-75.7 265.1524,-67.306 226.7961,-25.596 147,-75.7 111.4789,-98.0038 147.9429,-160.7 106,-160.7"/>
<polygon fill="#000000" stroke="#000000" points="412.0166,-86.1844 419.768,-90.2925 416.0083,-86.4422 420,-86.7 420,-86.7 420,-86.7 416.0083,-86.4422 420.232,-83.1075 412.0166,-86.1844 412.0166,-86.1844"/>
<ellipse fill="none" stroke="#000000" cx="408.8233" cy="-85.9782" rx="3.2" ry="3.2"/>
</g>
<!-- users -->
<g id="node5" class="node">
<title>users</title>
<g id="a_node5"><a xlink:href="../../tables/users.html" xlink:title="users" target="_top">
<polygon fill="#ffffff" stroke="transparent" points="155,-86.2 155,-191.2 351,-191.2 351,-86.2 155,-86.2"/>
<polygon fill="#f5f5f5" stroke="transparent" points="155,-167.7 155,-190.7 351,-190.7 351,-167.7 155,-167.7"/>
<polygon fill="none" stroke="#000000" points="155,-167.7 155,-190.7 351,-190.7 351,-167.7 155,-167.7"/>
<text text-anchor="start" x="160" y="-176.8" font-family="Helvetica,sans-Serif" font-weight="bold" font-size="11.00" fill="#000000">users</text>
<text text-anchor="start" x="316.0437" y="-175.8" font-family="Helvetica,sans-Serif" font-size="11.00" fill="#000000">[table]</text>
<polygon fill="none" stroke="#000000" points="155,-145.7 155,-167.7 351,-167.7 351,-145.7 155,-145.7"/>
<image xlink:href="../../images/primaryKeys.png" width="11px" height="12px" preserveAspectRatio="xMinYMin meet" x="160" y="-162.7"/>
<text text-anchor="start" x="175" y="-152.8" font-family="Helvetica,sans-Serif" font-size="11.00" fill="#000000">id</text>
<polygon fill="#ffffff" stroke="transparent" points="155,-123.7 155,-145.7 351,-145.7 351,-123.7 155,-123.7"/>
<polygon fill="none" stroke="#000000" points="155,-123.7 155,-145.7 351,-145.7 351,-123.7 155,-123.7"/>
<text text-anchor="start" x="175" y="-130.8" font-family="Helvetica,sans-Serif" font-size="11.00" fill="#000000">username</text>
<polygon fill="none" stroke="#000000" points="155,-104.7 155,-123.7 351,-123.7 351,-104.7 155,-104.7"/>
<text text-anchor="start" x="158" y="-110.8" font-family="Helvetica,sans-Serif" font-size="11.00" fill="#000000">...</text>
<polygon fill="#ffffff" stroke="transparent" points="155,-85.7 155,-104.7 229,-104.7 229,-85.7 155,-85.7"/>
<polygon fill="none" stroke="#000000" points="155,-85.7 155,-104.7 229,-104.7 229,-85.7 155,-85.7"/>
<text text-anchor="start" x="158" y="-91.8" font-family="Helvetica,sans-Serif" font-size="11.00" fill="#000000"> &#160;</text>
<polygon fill="#ffffff" stroke="transparent" points="229,-85.7 229,-104.7 298,-104.7 298,-85.7 229,-85.7"/>
<polygon fill="none" stroke="#000000" points="229,-85.7 229,-104.7 298,-104.7 298,-85.7 229,-85.7"/>
<text text-anchor="start" x="262.6105" y="-91.8" font-family="Helvetica,sans-Serif" font-size="11.00" fill="#000000">0 rows</text>
<polygon fill="#ffffff" stroke="transparent" points="298,-85.7 298,-104.7 351,-104.7 351,-85.7 298,-85.7"/>
<polygon fill="none" stroke="#000000" points="298,-85.7 298,-104.7 351,-104.7 351,-85.7 298,-85.7"/>
<text text-anchor="start" x="332.4053" y="-91.8" font-family="Helvetica,sans-Serif" font-size="11.00" fill="#000000">2 &gt;</text>
</a>
</g>
</g>
<!-- authority&#45;&gt;users -->
<g id="edge2" class="edge">
<title>authority:w&#45;&gt;users:e</title>
<path fill="none" stroke="#000000" d="M405.6209,-111.7026C383.3843,-122.211 382.666,-156.7 351,-156.7"/>
<polygon fill="#000000" stroke="#000000" points="412.1689,-110.3353 420.7359,-112.224 416.0845,-109.5177 420,-108.7 420,-108.7 420,-108.7 416.0845,-109.5177 419.2641,-105.176 412.1689,-110.3353 412.1689,-110.3353"/>
<ellipse fill="none" stroke="#000000" cx="409.0365" cy="-110.9894" rx="3.2" ry="3.2"/>
</g>
<!-- programs -->
<g id="node3" class="node">
<title>programs</title>
<g id="a_node3"><a xlink:href="../../tables/programs.html" xlink:title="programs" target="_top">
<polygon fill="#ffffff" stroke="transparent" points="202,-212.2 202,-317.2 304,-317.2 304,-212.2 202,-212.2"/>
<polygon fill="#f5f5f5" stroke="transparent" points="202,-293.7 202,-316.7 304,-316.7 304,-293.7 202,-293.7"/>
<polygon fill="none" stroke="#000000" points="202,-293.7 202,-316.7 304,-316.7 304,-293.7 202,-293.7"/>
<text text-anchor="start" x="207" y="-302.8" font-family="Helvetica,sans-Serif" font-weight="bold" font-size="11.00" fill="#000000">programs</text>
<text text-anchor="start" x="269.0437" y="-301.8" font-family="Helvetica,sans-Serif" font-size="11.00" fill="#000000">[table]</text>
<polygon fill="none" stroke="#000000" points="202,-271.7 202,-293.7 304,-293.7 304,-271.7 202,-271.7"/>
<image xlink:href="../../images/primaryKeys.png" width="11px" height="12px" preserveAspectRatio="xMinYMin meet" x="207" y="-288.7"/>
<text text-anchor="start" x="222" y="-278.8" font-family="Helvetica,sans-Serif" font-size="11.00" fill="#000000">id</text>
<polygon fill="#ffffff" stroke="transparent" points="202,-249.7 202,-271.7 304,-271.7 304,-249.7 202,-249.7"/>
<polygon fill="none" stroke="#000000" points="202,-249.7 202,-271.7 304,-271.7 304,-249.7 202,-249.7"/>
<image xlink:href="../../images/foreignKeys.png" width="11px" height="12px" preserveAspectRatio="xMinYMin meet" x="207" y="-266.7"/>
<text text-anchor="start" x="222" y="-256.8" font-family="Helvetica,sans-Serif" font-size="11.00" fill="#000000">group_id</text>
<polygon fill="none" stroke="#000000" points="202,-230.7 202,-249.7 304,-249.7 304,-230.7 202,-230.7"/>
<text text-anchor="start" x="205" y="-236.8" font-family="Helvetica,sans-Serif" font-size="11.00" fill="#000000">...</text>
<polygon fill="#ffffff" stroke="transparent" points="202,-211.7 202,-230.7 234,-230.7 234,-211.7 202,-211.7"/>
<polygon fill="none" stroke="#000000" points="202,-211.7 202,-230.7 234,-230.7 234,-211.7 202,-211.7"/>
<text text-anchor="start" x="205" y="-217.8" font-family="Helvetica,sans-Serif" font-size="11.00" fill="#000000">&lt; 1</text>
<polygon fill="#ffffff" stroke="transparent" points="234,-211.7 234,-230.7 277,-230.7 277,-211.7 234,-211.7"/>
<polygon fill="none" stroke="#000000" points="234,-211.7 234,-230.7 277,-230.7 277,-211.7 234,-211.7"/>
<text text-anchor="start" x="241.6105" y="-217.8" font-family="Helvetica,sans-Serif" font-size="11.00" fill="#000000">0 rows</text>
<polygon fill="#ffffff" stroke="transparent" points="277,-211.7 277,-230.7 304,-230.7 304,-211.7 277,-211.7"/>
<polygon fill="none" stroke="#000000" points="277,-211.7 277,-230.7 304,-230.7 304,-211.7 277,-211.7"/>
<text text-anchor="start" x="285.4053" y="-217.8" font-family="Helvetica,sans-Serif" font-size="11.00" fill="#000000">1 &gt;</text>
</a>
</g>
</g>
<!-- programs&#45;&gt;groups -->
<g id="edge3" class="edge">
<title>programs:w&#45;&gt;groups:e</title>
<path fill="none" stroke="#000000" d="M189.8029,-252.5166C165.216,-228.6337 118.695,-160.7 106,-160.7"/>
<polygon fill="#000000" stroke="#000000" points="195.3567,-256.2428 199.9943,-263.6895 198.6783,-258.4714 202,-260.7 202,-260.7 202,-260.7 198.6783,-258.4714 204.0057,-257.7105 195.3567,-256.2428 195.3567,-256.2428"/>
<ellipse fill="none" stroke="#000000" cx="192.6994" cy="-254.4599" rx="3.2" ry="3.2"/>
</g>
<!-- tickets -->
<g id="node4" class="node">
<title>tickets</title>
<g id="a_node4"><a xlink:href="../../tables/tickets.html" xlink:title="tickets" target="_top">
<polygon fill="#ffffff" stroke="transparent" points="400,-199.2 400,-326.2 524,-326.2 524,-199.2 400,-199.2"/>
<polygon fill="#f5f5f5" stroke="transparent" points="400,-302.7 400,-325.7 524,-325.7 524,-302.7 400,-302.7"/>
<polygon fill="none" stroke="#000000" points="400,-302.7 400,-325.7 524,-325.7 524,-302.7 400,-302.7"/>
<text text-anchor="start" x="405" y="-311.8" font-family="Helvetica,sans-Serif" font-weight="bold" font-size="11.00" fill="#000000">tickets</text>
<text text-anchor="start" x="489.0437" y="-310.8" font-family="Helvetica,sans-Serif" font-size="11.00" fill="#000000">[table]</text>
<polygon fill="none" stroke="#000000" points="400,-280.7 400,-302.7 524,-302.7 524,-280.7 400,-280.7"/>
<image xlink:href="../../images/primaryKeys.png" width="11px" height="12px" preserveAspectRatio="xMinYMin meet" x="405" y="-297.7"/>
<text text-anchor="start" x="420" y="-287.8" font-family="Helvetica,sans-Serif" font-size="11.00" fill="#000000">id</text>
<polygon fill="#ffffff" stroke="transparent" points="400,-258.7 400,-280.7 524,-280.7 524,-258.7 400,-258.7"/>
<polygon fill="none" stroke="#000000" points="400,-258.7 400,-280.7 524,-280.7 524,-258.7 400,-258.7"/>
<image xlink:href="../../images/foreignKeys.png" width="11px" height="12px" preserveAspectRatio="xMinYMin meet" x="405" y="-275.7"/>
<text text-anchor="start" x="420" y="-265.8" font-family="Helvetica,sans-Serif" font-size="11.00" fill="#000000">program_id</text>
<polygon fill="#ffffff" stroke="transparent" points="400,-236.7 400,-258.7 524,-258.7 524,-236.7 400,-236.7"/>
<polygon fill="none" stroke="#000000" points="400,-236.7 400,-258.7 524,-258.7 524,-236.7 400,-236.7"/>
<image xlink:href="../../images/foreignKeys.png" width="11px" height="12px" preserveAspectRatio="xMinYMin meet" x="405" y="-253.7"/>
<text text-anchor="start" x="420" y="-243.8" font-family="Helvetica,sans-Serif" font-size="11.00" fill="#000000">owner_id</text>
<polygon fill="none" stroke="#000000" points="400,-217.7 400,-236.7 524,-236.7 524,-217.7 400,-217.7"/>
<text text-anchor="start" x="403" y="-223.8" font-family="Helvetica,sans-Serif" font-size="11.00" fill="#000000">...</text>
<polygon fill="#ffffff" stroke="transparent" points="400,-198.7 400,-217.7 447,-217.7 447,-198.7 400,-198.7"/>
<polygon fill="none" stroke="#000000" points="400,-198.7 400,-217.7 447,-217.7 447,-198.7 400,-198.7"/>
<text text-anchor="start" x="403" y="-204.8" font-family="Helvetica,sans-Serif" font-size="11.00" fill="#000000">&lt; 2</text>
<polygon fill="#ffffff" stroke="transparent" points="447,-198.7 447,-217.7 498,-217.7 498,-198.7 447,-198.7"/>
<polygon fill="none" stroke="#000000" points="447,-198.7 447,-217.7 498,-217.7 498,-198.7 447,-198.7"/>
<text text-anchor="start" x="462.6105" y="-204.8" font-family="Helvetica,sans-Serif" font-size="11.00" fill="#000000">0 rows</text>
<polygon fill="#ffffff" stroke="transparent" points="498,-198.7 498,-217.7 524,-217.7 524,-198.7 498,-198.7"/>
<polygon fill="none" stroke="#000000" points="498,-198.7 498,-217.7 524,-217.7 524,-198.7 498,-198.7"/>
<text text-anchor="start" x="514.8862" y="-204.8" font-family="Helvetica,sans-Serif" font-size="11.00" fill="#000000"> &#160;</text>
</a>
</g>
</g>
<!-- tickets&#45;&gt;programs -->
<g id="edge5" class="edge">
<title>tickets:w&#45;&gt;programs:e</title>
<path fill="none" stroke="#000000" d="M385.2792,-270.2586C353.9537,-272.7469 341.6741,-282.7 304,-282.7"/>
<polygon fill="#000000" stroke="#000000" points="392.0058,-270.0034 400.1365,-273.2974 396.0029,-269.8517 400,-269.7 400,-269.7 400,-269.7 396.0029,-269.8517 399.8635,-266.1026 392.0058,-270.0034 392.0058,-270.0034"/>
<ellipse fill="none" stroke="#000000" cx="388.8081" cy="-270.1248" rx="3.2" ry="3.2"/>
</g>
<!-- tickets&#45;&gt;users -->
<g id="edge4" class="edge">
<title>tickets:w&#45;&gt;users:e</title>
<path fill="none" stroke="#000000" d="M385.981,-243.3109C363.8859,-225.1333 390.8343,-156.7 351,-156.7"/>
<polygon fill="#000000" stroke="#000000" points="392.3654,-245.3097 398.9244,-251.1356 396.1827,-246.5048 400,-247.7 400,-247.7 400,-247.7 396.1827,-246.5048 401.0756,-244.2644 392.3654,-245.3097 392.3654,-245.3097"/>
<ellipse fill="none" stroke="#000000" cx="389.3116" cy="-244.3536" rx="3.2" ry="3.2"/>
</g>
</g>
</svg>
