<?xml version="1.0" encoding="UTF-8" standalone="no"?>
<!DOCTYPE svg PUBLIC "-//W3C//DTD SVG 1.1//EN"
 "http://www.w3.org/Graphics/SVG/1.1/DTD/svg11.dtd">
<!-- Generated by graphviz version 2.40.1 (20161225.0304)
 -->
<!-- Title: oneDegreeRelationshipsDiagram Pages: 1 -->
<svg width="423pt" height="281pt"
 viewBox="0.00 0.00 423.00 281.20" xmlns="http://www.w3.org/2000/svg" xmlns:xlink="http://www.w3.org/1999/xlink">
<g id="graph0" class="graph" transform="scale(1 1) rotate(0) translate(4 277.2)">
<title>oneDegreeRelationshipsDiagram</title>
<polygon fill="#ffffff" stroke="transparent" points="-4,4 -4,-277.2 419,-277.2 419,4 -4,4"/>
<text text-anchor="middle" x="72.4936" y="-7.3" font-family="Helvetica,sans-Serif" font-size="11.00" fill="#000000">Generated by SchemaSpy</text>
<!-- authority -->
<g id="node1" class="node">
<title>authority</title>
<g id="a_node1"><a xlink:href="../../tables/authority.html" xlink:title="authority" target="_top">
<polygon fill="#ffffff" stroke="transparent" points="253,-106.7 253,-240.7 407,-240.7 407,-106.7 253,-106.7"/>
<polygon fill="#f5f5f5" stroke="transparent" points="255,-215.7 255,-238.7 405,-238.7 405,-215.7 255,-215.7"/>
<polygon fill="none" stroke="#000000" points="255,-215.7 255,-238.7 405,-238.7 405,-215.7 255,-215.7"/>
<text text-anchor="start" x="260" y="-224.8" font-family="Helvetica,sans-Serif" font-weight="bold" font-size="11.00" fill="#000000">authority</text>
<text text-anchor="start" x="370.0437" y="-223.8" font-family="Helvetica,sans-Serif" font-size="11.00" fill="#000000">[table]</text>
<polygon fill="none" stroke="#000000" points="255,-193.7 255,-215.7 338,-215.7 338,-193.7 255,-193.7"/>
<image xlink:href="../../images/primaryKeys.png" width="11px" height="12px" preserveAspectRatio="xMinYMin meet" x="260" y="-210.7"/>
<text text-anchor="start" x="275" y="-200.8" font-family="Helvetica,sans-Serif" font-size="11.00" fill="#000000">id</text>
<polygon fill="none" stroke="#000000" points="338,-193.7 338,-215.7 405,-215.7 405,-193.7 338,-193.7"/>
<text text-anchor="start" x="341" y="-201.4" font-family="Helvetica,sans-Serif" font-size="11.00" fill="#000000">int[10]</text>
<polygon fill="#ffffff" stroke="transparent" points="255,-171.7 255,-193.7 338,-193.7 338,-171.7 255,-171.7"/>
<polygon fill="none" stroke="#000000" points="255,-171.7 255,-193.7 338,-193.7 338,-171.7 255,-171.7"/>
<image xlink:href="../../images/foreignKeys.png" width="11px" height="12px" preserveAspectRatio="xMinYMin meet" x="260" y="-188.7"/>
<text text-anchor="start" x="275" y="-178.8" font-family="Helvetica,sans-Serif" font-size="11.00" fill="#000000">user_id</text>
<polygon fill="none" stroke="#000000" points="338,-171.7 338,-193.7 405,-193.7 405,-171.7 338,-171.7"/>
<text text-anchor="start" x="341" y="-179.4" font-family="Helvetica,sans-Serif" font-size="11.00" fill="#000000">int[10]</text>
<polygon fill="#ffffff" stroke="transparent" points="255,-149.7 255,-171.7 338,-171.7 338,-149.7 255,-149.7"/>
<polygon fill="none" stroke="#000000" points="255,-149.7 255,-171.7 338,-171.7 338,-149.7 255,-149.7"/>
<image xlink:href="../../images/foreignKeys.png" width="11px" height="12px" preserveAspectRatio="xMinYMin meet" x="260" y="-166.7"/>
<text text-anchor="start" x="275" y="-156.8" font-family="Helvetica,sans-Serif" font-size="11.00" fill="#000000">group_id</text>
<polygon fill="none" stroke="#000000" points="338,-149.7 338,-171.7 405,-171.7 405,-149.7 338,-149.7"/>
<text text-anchor="start" x="341" y="-157.4" font-family="Helvetica,sans-Serif" font-size="11.00" fill="#000000">int[10]</text>
<polygon fill="none" stroke="#000000" points="255,-127.7 255,-149.7 338,-149.7 338,-127.7 255,-127.7"/>
<text text-anchor="start" x="275" y="-134.8" font-family="Helvetica,sans-Serif" font-size="11.00" fill="#000000">role</text>
<polygon fill="none" stroke="#000000" points="338,-127.7 338,-149.7 405,-149.7 405,-127.7 338,-127.7"/>
<text text-anchor="start" x="340.9365" y="-135.4" font-family="Helvetica,sans-Serif" font-size="11.00" fill="#000000">varchar[255]</text>
<polygon fill="#ffffff" stroke="transparent" points="255,-108.7 255,-127.7 288,-127.7 288,-108.7 255,-108.7"/>
<polygon fill="none" stroke="#000000" points="255,-108.7 255,-127.7 288,-127.7 288,-108.7 255,-108.7"/>
<text text-anchor="start" x="258" y="-114.8" font-family="Helvetica,sans-Serif" font-size="11.00" fill="#000000">&lt; 2</text>
<polygon fill="#ffffff" stroke="transparent" points="288,-108.7 288,-127.7 338,-127.7 338,-108.7 288,-108.7"/>
<polygon fill="none" stroke="#000000" points="288,-108.7 288,-127.7 338,-127.7 338,-108.7 288,-108.7"/>
<text text-anchor="start" x="302.6105" y="-114.8" font-family="Helvetica,sans-Serif" font-size="11.00" fill="#000000">0 rows</text>
<polygon fill="#ffffff" stroke="transparent" points="338,-108.7 338,-127.7 405,-127.7 405,-108.7 338,-108.7"/>
<polygon fill="none" stroke="#000000" points="338,-108.7 338,-127.7 405,-127.7 405,-108.7 338,-108.7"/>
<text text-anchor="start" x="386.4053" y="-114.8" font-family="Helvetica,sans-Serif" font-size="11.00" fill="#000000">0 &gt;</text>
<polygon fill="none" stroke="#000000" stroke-width="2" points="254,-107.7 254,-239.7 406,-239.7 406,-107.7 254,-107.7"/>
</a>
</g>
</g>
<!-- groups -->
<g id="node2" class="node">
<title>groups</title>
<g id="a_node2"><a xlink:href="../../tables/groups.html" xlink:title="groups" target="_top">
<polygon fill="#ffffff" stroke="transparent" points="57,-38.2 57,-143.2 155,-143.2 155,-38.2 57,-38.2"/>
<polygon fill="#f5f5f5" stroke="transparent" points="57,-119.7 57,-142.7 155,-142.7 155,-119.7 57,-119.7"/>
<polygon fill="none" stroke="#000000" points="57,-119.7 57,-142.7 155,-142.7 155,-119.7 57,-119.7"/>
<text text-anchor="start" x="62" y="-128.8" font-family="Helvetica,sans-Serif" font-weight="bold" font-size="11.00" fill="#000000">groups</text>
<text text-anchor="start" x="120.0437" y="-127.8" font-family="Helvetica,sans-Serif" font-size="11.00" fill="#000000">[table]</text>
<polygon fill="none" stroke="#000000" points="57,-97.7 57,-119.7 155,-119.7 155,-97.7 57,-97.7"/>
<image xlink:href="../../images/primaryKeys.png" width="11px" height="12px" preserveAspectRatio="xMinYMin meet" x="62" y="-114.7"/>
<text text-anchor="start" x="77" y="-104.8" font-family="Helvetica,sans-Serif" font-size="11.00" fill="#000000">id</text>
<polygon fill="#ffffff" stroke="transparent" points="57,-75.7 57,-97.7 155,-97.7 155,-75.7 57,-75.7"/>
<polygon fill="none" stroke="#000000" points="57,-75.7 57,-97.7 155,-97.7 155,-75.7 57,-75.7"/>
<text text-anchor="start" x="77" y="-82.8" font-family="Helvetica,sans-Serif" font-size="11.00" fill="#000000">groupname</text>
<polygon fill="none" stroke="#000000" points="57,-56.7 57,-75.7 155,-75.7 155,-56.7 57,-56.7"/>
<text text-anchor="start" x="60" y="-62.8" font-family="Helvetica,sans-Serif" font-size="11.00" fill="#000000">...</text>
<polygon fill="#ffffff" stroke="transparent" points="57,-37.7 57,-56.7 82,-56.7 82,-37.7 57,-37.7"/>
<polygon fill="none" stroke="#000000" points="57,-37.7 57,-56.7 82,-56.7 82,-37.7 57,-37.7"/>
<text text-anchor="start" x="60" y="-43.8" font-family="Helvetica,sans-Serif" font-size="11.00" fill="#000000"> &#160;</text>
<polygon fill="#ffffff" stroke="transparent" points="82,-37.7 82,-56.7 127,-56.7 127,-37.7 82,-37.7"/>
<polygon fill="none" stroke="#000000" points="82,-37.7 82,-56.7 127,-56.7 127,-37.7 82,-37.7"/>
<text text-anchor="start" x="91.6105" y="-43.8" font-family="Helvetica,sans-Serif" font-size="11.00" fill="#000000">0 rows</text>
<polygon fill="#ffffff" stroke="transparent" points="127,-37.7 127,-56.7 155,-56.7 155,-37.7 127,-37.7"/>
<polygon fill="none" stroke="#000000" points="127,-37.7 127,-56.7 155,-56.7 155,-37.7 127,-37.7"/>
<text text-anchor="start" x="136.4053" y="-43.8" font-family="Helvetica,sans-Serif" font-size="11.00" fill="#000000">2 &gt;</text>
</a>
</g>
</g>
<!-- authority&#45;&gt;groups -->
<g id="edge1" class="edge">
<title>authority:w&#45;&gt;groups:e</title>
<path fill="none" stroke="#000000" d="M240.2358,-158.9699C204.3455,-149.9471 199.6152,-108.7 155,-108.7"/>
<polygon fill="#000000" stroke="#000000" points="247.0544,-159.7688 254.581,-164.2755 251.0272,-160.2344 255,-160.7 255,-160.7 255,-160.7 251.0272,-160.2344 255.419,-157.1245 247.0544,-159.7688 247.0544,-159.7688"/>
<ellipse fill="none" stroke="#000000" cx="243.8761" cy="-159.3964" rx="3.2" ry="3.2"/>
</g>
<!-- users -->
<g id="node3" class="node">
<title>users</title>
<g id="a_node3"><a xlink:href="../../tables/users.html" xlink:title="users" target="_top">
<polygon fill="#ffffff" stroke="transparent" points="8,-164.2 8,-269.2 204,-269.2 204,-164.2 8,-164.2"/>
<polygon fill="#f5f5f5" stroke="transparent" points="8,-245.7 8,-268.7 204,-268.7 204,-245.7 8,-245.7"/>
<polygon fill="none" stroke="#000000" points="8,-245.7 8,-268.7 204,-268.7 204,-245.7 8,-245.7"/>
<text text-anchor="start" x="13" y="-254.8" font-family="Helvetica,sans-Serif" font-weight="bold" font-size="11.00" fill="#000000">users</text>
<text text-anchor="start" x="169.0437" y="-253.8" font-family="Helvetica,sans-Serif" font-size="11.00" fill="#000000">[table]</text>
<polygon fill="none" stroke="#000000" points="8,-223.7 8,-245.7 204,-245.7 204,-223.7 8,-223.7"/>
<image xlink:href="../../images/primaryKeys.png" width="11px" height="12px" preserveAspectRatio="xMinYMin meet" x="13" y="-240.7"/>
<text text-anchor="start" x="28" y="-230.8" font-family="Helvetica,sans-Serif" font-size="11.00" fill="#000000">id</text>
<polygon fill="#ffffff" stroke="transparent" points="8,-201.7 8,-223.7 204,-223.7 204,-201.7 8,-201.7"/>
<polygon fill="none" stroke="#000000" points="8,-201.7 8,-223.7 204,-223.7 204,-201.7 8,-201.7"/>
<text text-anchor="start" x="28" y="-208.8" font-family="Helvetica,sans-Serif" font-size="11.00" fill="#000000">username</text>
<polygon fill="none" stroke="#000000" points="8,-182.7 8,-201.7 204,-201.7 204,-182.7 8,-182.7"/>
<text text-anchor="start" x="11" y="-188.8" font-family="Helvetica,sans-Serif" font-size="11.00" fill="#000000">...</text>
<polygon fill="#ffffff" stroke="transparent" points="8,-163.7 8,-182.7 82,-182.7 82,-163.7 8,-163.7"/>
<polygon fill="none" stroke="#000000" points="8,-163.7 8,-182.7 82,-182.7 82,-163.7 8,-163.7"/>
<text text-anchor="start" x="11" y="-169.8" font-family="Helvetica,sans-Serif" font-size="11.00" fill="#000000"> &#160;</text>
<polygon fill="#ffffff" stroke="transparent" points="82,-163.7 82,-182.7 151,-182.7 151,-163.7 82,-163.7"/>
<polygon fill="none" stroke="#000000" points="82,-163.7 82,-182.7 151,-182.7 151,-163.7 82,-163.7"/>
<text text-anchor="start" x="115.6105" y="-169.8" font-family="Helvetica,sans-Serif" font-size="11.00" fill="#000000">0 rows</text>
<polygon fill="#ffffff" stroke="transparent" points="151,-163.7 151,-182.7 204,-182.7 204,-163.7 151,-163.7"/>
<polygon fill="none" stroke="#000000" points="151,-163.7 151,-182.7 204,-182.7 204,-163.7 151,-163.7"/>
<text text-anchor="start" x="185.4053" y="-169.8" font-family="Helvetica,sans-Serif" font-size="11.00" fill="#000000">2 &gt;</text>
</a>
</g>
</g>
<!-- authority&#45;&gt;users -->
<g id="edge2" class="edge">
<title>authority:w&#45;&gt;users:e</title>
<path fill="none" stroke="#000000" d="M241.0468,-187.4988C226.161,-200.3719 230.3017,-234.7 204,-234.7"/>
<polygon fill="#000000" stroke="#000000" points="247.4349,-185.3018 256.1708,-186.1043 251.2175,-184.0009 255,-182.7 255,-182.7 255,-182.7 251.2175,-184.0009 253.8292,-179.2957 247.4349,-185.3018 247.4349,-185.3018"/>
<ellipse fill="none" stroke="#000000" cx="244.4089" cy="-186.3426" rx="3.2" ry="3.2"/>
</g>
</g>
</svg>
