<?xml version="1.0" encoding="UTF-8" standalone="no"?>
<!DOCTYPE svg PUBLIC "-//W3C//DTD SVG 1.1//EN"
 "http://www.w3.org/Graphics/SVG/1.1/DTD/svg11.dtd">
<!-- Generated by graphviz version 2.40.1 (20161225.0304)
 -->
<!-- Title: twoDegreesRelationshipsDiagram Pages: 1 -->
<svg width="570pt" height="292pt"
 viewBox="0.00 0.00 570.00 291.70" xmlns="http://www.w3.org/2000/svg" xmlns:xlink="http://www.w3.org/1999/xlink">
<g id="graph0" class="graph" transform="scale(1 1) rotate(0) translate(4 287.7)">
<title>twoDegreesRelationshipsDiagram</title>
<polygon fill="#ffffff" stroke="transparent" points="-4,4 -4,-287.7 566,-287.7 566,4 -4,4"/>
<text text-anchor="middle" x="72.4936" y="-7.3" font-family="Helvetica,sans-Serif" font-size="11.00" fill="#000000">Generated by SchemaSpy</text>
<!-- authority -->
<g id="node1" class="node">
<title>authority</title>
<g id="a_node1"><a xlink:href="../../tables/authority.html" xlink:title="authority" target="_top">
<polygon fill="#ffffff" stroke="transparent" points="400,-38.2 400,-172.2 554,-172.2 554,-38.2 400,-38.2"/>
<polygon fill="#f5f5f5" stroke="transparent" points="402,-147.2 402,-170.2 552,-170.2 552,-147.2 402,-147.2"/>
<polygon fill="none" stroke="#000000" points="402,-147.2 402,-170.2 552,-170.2 552,-147.2 402,-147.2"/>
<text text-anchor="start" x="407" y="-156.3" font-family="Helvetica,sans-Serif" font-weight="bold" font-size="11.00" fill="#000000">authority</text>
<text text-anchor="start" x="517.0437" y="-155.3" font-family="Helvetica,sans-Serif" font-size="11.00" fill="#000000">[table]</text>
<polygon fill="none" stroke="#000000" points="402,-125.2 402,-147.2 485,-147.2 485,-125.2 402,-125.2"/>
<image xlink:href="../../images/primaryKeys.png" width="11px" height="12px" preserveAspectRatio="xMinYMin meet" x="407" y="-142.2"/>
<text text-anchor="start" x="422" y="-132.3" font-family="Helvetica,sans-Serif" font-size="11.00" fill="#000000">id</text>
<polygon fill="none" stroke="#000000" points="485,-125.2 485,-147.2 552,-147.2 552,-125.2 485,-125.2"/>
<text text-anchor="start" x="488" y="-132.9" font-family="Helvetica,sans-Serif" font-size="11.00" fill="#000000">int[10]</text>
<polygon fill="#ffffff" stroke="transparent" points="402,-103.2 402,-125.2 485,-125.2 485,-103.2 402,-103.2"/>
<polygon fill="none" stroke="#000000" points="402,-103.2 402,-125.2 485,-125.2 485,-103.2 402,-103.2"/>
<image xlink:href="../../images/foreignKeys.png" width="11px" height="12px" preserveAspectRatio="xMinYMin meet" x="407" y="-120.2"/>
<text text-anchor="start" x="422" y="-110.3" font-family="Helvetica,sans-Serif" font-size="11.00" fill="#000000">user_id</text>
<polygon fill="none" stroke="#000000" points="485,-103.2 485,-125.2 552,-125.2 552,-103.2 485,-103.2"/>
<text text-anchor="start" x="488" y="-110.9" font-family="Helvetica,sans-Serif" font-size="11.00" fill="#000000">int[10]</text>
<polygon fill="#ffffff" stroke="transparent" points="402,-81.2 402,-103.2 485,-103.2 485,-81.2 402,-81.2"/>
<polygon fill="none" stroke="#000000" points="402,-81.2 402,-103.2 485,-103.2 485,-81.2 402,-81.2"/>
<image xlink:href="../../images/foreignKeys.png" width="11px" height="12px" preserveAspectRatio="xMinYMin meet" x="407" y="-98.2"/>
<text text-anchor="start" x="422" y="-88.3" font-family="Helvetica,sans-Serif" font-size="11.00" fill="#000000">group_id</text>
<polygon fill="none" stroke="#000000" points="485,-81.2 485,-103.2 552,-103.2 552,-81.2 485,-81.2"/>
<text text-anchor="start" x="488" y="-88.9" font-family="Helvetica,sans-Serif" font-size="11.00" fill="#000000">int[10]</text>
<polygon fill="none" stroke="#000000" points="402,-59.2 402,-81.2 485,-81.2 485,-59.2 402,-59.2"/>
<text text-anchor="start" x="422" y="-66.3" font-family="Helvetica,sans-Serif" font-size="11.00" fill="#000000">role</text>
<polygon fill="none" stroke="#000000" points="485,-59.2 485,-81.2 552,-81.2 552,-59.2 485,-59.2"/>
<text text-anchor="start" x="487.9365" y="-66.9" font-family="Helvetica,sans-Serif" font-size="11.00" fill="#000000">varchar[255]</text>
<polygon fill="#ffffff" stroke="transparent" points="402,-40.2 402,-59.2 435,-59.2 435,-40.2 402,-40.2"/>
<polygon fill="none" stroke="#000000" points="402,-40.2 402,-59.2 435,-59.2 435,-40.2 402,-40.2"/>
<text text-anchor="start" x="405" y="-46.3" font-family="Helvetica,sans-Serif" font-size="11.00" fill="#000000">&lt; 2</text>
<polygon fill="#ffffff" stroke="transparent" points="435,-40.2 435,-59.2 485,-59.2 485,-40.2 435,-40.2"/>
<polygon fill="none" stroke="#000000" points="435,-40.2 435,-59.2 485,-59.2 485,-40.2 435,-40.2"/>
<text text-anchor="start" x="449.6105" y="-46.3" font-family="Helvetica,sans-Serif" font-size="11.00" fill="#000000">0 rows</text>
<polygon fill="#ffffff" stroke="transparent" points="485,-40.2 485,-59.2 552,-59.2 552,-40.2 485,-40.2"/>
<polygon fill="none" stroke="#000000" points="485,-40.2 485,-59.2 552,-59.2 552,-40.2 485,-40.2"/>
<text text-anchor="start" x="533.4053" y="-46.3" font-family="Helvetica,sans-Serif" font-size="11.00" fill="#000000">0 &gt;</text>
<polygon fill="none" stroke="#000000" stroke-width="2" points="401,-39.2 401,-171.2 553,-171.2 553,-39.2 401,-39.2"/>
</a>
</g>
</g>
<!-- groups -->
<g id="node2" class="node">
<title>groups</title>
<g id="a_node2"><a xlink:href="../../tables/groups.html" xlink:title="groups" target="_top">
<polygon fill="#ffffff" stroke="transparent" points="8,-86.7 8,-191.7 106,-191.7 106,-86.7 8,-86.7"/>
<polygon fill="#f5f5f5" stroke="transparent" points="8,-168.2 8,-191.2 106,-191.2 106,-168.2 8,-168.2"/>
<polygon fill="none" stroke="#000000" points="8,-168.2 8,-191.2 106,-191.2 106,-168.2 8,-168.2"/>
<text text-anchor="start" x="13" y="-177.3" font-family="Helvetica,sans-Serif" font-weight="bold" font-size="11.00" fill="#000000">groups</text>
<text text-anchor="start" x="71.0437" y="-176.3" font-family="Helvetica,sans-Serif" font-size="11.00" fill="#000000">[table]</text>
<polygon fill="none" stroke="#000000" points="8,-146.2 8,-168.2 106,-168.2 106,-146.2 8,-146.2"/>
<image xlink:href="../../images/primaryKeys.png" width="11px" height="12px" preserveAspectRatio="xMinYMin meet" x="13" y="-163.2"/>
<text text-anchor="start" x="28" y="-153.3" font-family="Helvetica,sans-Serif" font-size="11.00" fill="#000000">id</text>
<polygon fill="#ffffff" stroke="transparent" points="8,-124.2 8,-146.2 106,-146.2 106,-124.2 8,-124.2"/>
<polygon fill="none" stroke="#000000" points="8,-124.2 8,-146.2 106,-146.2 106,-124.2 8,-124.2"/>
<text text-anchor="start" x="28" y="-131.3" font-family="Helvetica,sans-Serif" font-size="11.00" fill="#000000">groupname</text>
<polygon fill="none" stroke="#000000" points="8,-105.2 8,-124.2 106,-124.2 106,-105.2 8,-105.2"/>
<text text-anchor="start" x="11" y="-111.3" font-family="Helvetica,sans-Serif" font-size="11.00" fill="#000000">...</text>
<polygon fill="#ffffff" stroke="transparent" points="8,-86.2 8,-105.2 33,-105.2 33,-86.2 8,-86.2"/>
<polygon fill="none" stroke="#000000" points="8,-86.2 8,-105.2 33,-105.2 33,-86.2 8,-86.2"/>
<text text-anchor="start" x="11" y="-92.3" font-family="Helvetica,sans-Serif" font-size="11.00" fill="#000000"> &#160;</text>
<polygon fill="#ffffff" stroke="transparent" points="33,-86.2 33,-105.2 78,-105.2 78,-86.2 33,-86.2"/>
<polygon fill="none" stroke="#000000" points="33,-86.2 33,-105.2 78,-105.2 78,-86.2 33,-86.2"/>
<text text-anchor="start" x="42.6105" y="-92.3" font-family="Helvetica,sans-Serif" font-size="11.00" fill="#000000">0 rows</text>
<polygon fill="#ffffff" stroke="transparent" points="78,-86.2 78,-105.2 106,-105.2 106,-86.2 78,-86.2"/>
<polygon fill="none" stroke="#000000" points="78,-86.2 78,-105.2 106,-105.2 106,-86.2 78,-86.2"/>
<text text-anchor="start" x="87.4053" y="-92.3" font-family="Helvetica,sans-Serif" font-size="11.00" fill="#000000">2 &gt;</text>
</a>
</g>
</g>
<!-- authority&#45;&gt;groups -->
<g id="edge1" class="edge">
<title>authority:w&#45;&gt;groups:e</title>
<path fill="none" stroke="#000000" d="M387.5609,-90.4138C378.5621,-87.9823 372.5539,-83.7553 359,-82.2 265.392,-71.4587 228.044,-34.1407 147,-82.2 114.3243,-101.5768 143.989,-157.2 106,-157.2"/>
<polygon fill="#000000" stroke="#000000" points="394.0605,-91.2178 401.558,-95.7728 398.0303,-91.7089 402,-92.2 402,-92.2 402,-92.2 398.0303,-91.7089 402.442,-88.6272 394.0605,-91.2178 394.0605,-91.2178"/>
<ellipse fill="none" stroke="#000000" cx="390.8847" cy="-90.8249" rx="3.2" ry="3.2"/>
</g>
<!-- users -->
<g id="node3" class="node">
<title>users</title>
<g id="a_node3"><a xlink:href="../../tables/users.html" xlink:title="users" target="_top">
<polygon fill="#ffffff" stroke="transparent" points="155,-92.7 155,-197.7 351,-197.7 351,-92.7 155,-92.7"/>
<polygon fill="#f5f5f5" stroke="transparent" points="155,-174.2 155,-197.2 351,-197.2 351,-174.2 155,-174.2"/>
<polygon fill="none" stroke="#000000" points="155,-174.2 155,-197.2 351,-197.2 351,-174.2 155,-174.2"/>
<text text-anchor="start" x="160" y="-183.3" font-family="Helvetica,sans-Serif" font-weight="bold" font-size="11.00" fill="#000000">users</text>
<text text-anchor="start" x="316.0437" y="-182.3" font-family="Helvetica,sans-Serif" font-size="11.00" fill="#000000">[table]</text>
<polygon fill="none" stroke="#000000" points="155,-152.2 155,-174.2 351,-174.2 351,-152.2 155,-152.2"/>
<image xlink:href="../../images/primaryKeys.png" width="11px" height="12px" preserveAspectRatio="xMinYMin meet" x="160" y="-169.2"/>
<text text-anchor="start" x="175" y="-159.3" font-family="Helvetica,sans-Serif" font-size="11.00" fill="#000000">id</text>
<polygon fill="#ffffff" stroke="transparent" points="155,-130.2 155,-152.2 351,-152.2 351,-130.2 155,-130.2"/>
<polygon fill="none" stroke="#000000" points="155,-130.2 155,-152.2 351,-152.2 351,-130.2 155,-130.2"/>
<text text-anchor="start" x="175" y="-137.3" font-family="Helvetica,sans-Serif" font-size="11.00" fill="#000000">username</text>
<polygon fill="none" stroke="#000000" points="155,-111.2 155,-130.2 351,-130.2 351,-111.2 155,-111.2"/>
<text text-anchor="start" x="158" y="-117.3" font-family="Helvetica,sans-Serif" font-size="11.00" fill="#000000">...</text>
<polygon fill="#ffffff" stroke="transparent" points="155,-92.2 155,-111.2 229,-111.2 229,-92.2 155,-92.2"/>
<polygon fill="none" stroke="#000000" points="155,-92.2 155,-111.2 229,-111.2 229,-92.2 155,-92.2"/>
<text text-anchor="start" x="158" y="-98.3" font-family="Helvetica,sans-Serif" font-size="11.00" fill="#000000"> &#160;</text>
<polygon fill="#ffffff" stroke="transparent" points="229,-92.2 229,-111.2 298,-111.2 298,-92.2 229,-92.2"/>
<polygon fill="none" stroke="#000000" points="229,-92.2 229,-111.2 298,-111.2 298,-92.2 229,-92.2"/>
<text text-anchor="start" x="262.6105" y="-98.3" font-family="Helvetica,sans-Serif" font-size="11.00" fill="#000000">0 rows</text>
<polygon fill="#ffffff" stroke="transparent" points="298,-92.2 298,-111.2 351,-111.2 351,-92.2 298,-92.2"/>
<polygon fill="none" stroke="#000000" points="298,-92.2 298,-111.2 351,-111.2 351,-92.2 298,-92.2"/>
<text text-anchor="start" x="332.4053" y="-98.3" font-family="Helvetica,sans-Serif" font-size="11.00" fill="#000000">2 &gt;</text>
</a>
</g>
</g>
<!-- authority&#45;&gt;users -->
<g id="edge2" class="edge">
<title>authority:w&#45;&gt;users:e</title>
<path fill="none" stroke="#000000" d="M388.3147,-118.722C373.4944,-130.8523 376.5395,-163.2 351,-163.2"/>
<polygon fill="#000000" stroke="#000000" points="394.4039,-116.71 403.1295,-117.6182 398.202,-115.455 402,-114.2 402,-114.2 402,-114.2 398.202,-115.455 400.8705,-110.7818 394.4039,-116.71 394.4039,-116.71"/>
<ellipse fill="none" stroke="#000000" cx="391.3655" cy="-117.714" rx="3.2" ry="3.2"/>
</g>
<!-- programs -->
<g id="node4" class="node">
<title>programs</title>
<g id="a_node4"><a xlink:href="../../tables/programs.html" xlink:title="programs" target="_top">
<polygon fill="#ffffff" stroke="transparent" points="208.5,-218.7 208.5,-279.7 297.5,-279.7 297.5,-218.7 208.5,-218.7"/>
<polygon fill="#f5f5f5" stroke="transparent" points="209,-256.2 209,-279.2 298,-279.2 298,-256.2 209,-256.2"/>
<polygon fill="none" stroke="#000000" points="209,-256.2 209,-279.2 298,-279.2 298,-256.2 209,-256.2"/>
<text text-anchor="start" x="213.7774" y="-265.3" font-family="Helvetica,sans-Serif" font-weight="bold" font-size="11.00" fill="#000000">programs</text>
<text text-anchor="start" x="263.5219" y="-264.3" font-family="Helvetica,sans-Serif" font-size="11.00" fill="#000000">[table]</text>
<polygon fill="none" stroke="#000000" points="209,-237.2 209,-256.2 298,-256.2 298,-237.2 209,-237.2"/>
<text text-anchor="start" x="212" y="-243.3" font-family="Helvetica,sans-Serif" font-size="11.00" fill="#000000">...</text>
<polygon fill="#ffffff" stroke="transparent" points="209,-218.2 209,-237.2 234,-237.2 234,-218.2 209,-218.2"/>
<polygon fill="none" stroke="#000000" points="209,-218.2 209,-237.2 234,-237.2 234,-218.2 209,-218.2"/>
<text text-anchor="start" x="212" y="-224.3" font-family="Helvetica,sans-Serif" font-size="11.00" fill="#000000">&lt; 1</text>
<polygon fill="#ffffff" stroke="transparent" points="234,-218.2 234,-237.2 274,-237.2 274,-218.2 234,-218.2"/>
<polygon fill="none" stroke="#000000" points="234,-218.2 234,-237.2 274,-237.2 274,-218.2 234,-218.2"/>
<text text-anchor="start" x="238.6105" y="-224.3" font-family="Helvetica,sans-Serif" font-size="11.00" fill="#000000">0 rows</text>
<polygon fill="#ffffff" stroke="transparent" points="274,-218.2 274,-237.2 298,-237.2 298,-218.2 274,-218.2"/>
<polygon fill="none" stroke="#000000" points="274,-218.2 274,-237.2 298,-237.2 298,-218.2 274,-218.2"/>
<text text-anchor="start" x="279.4053" y="-224.3" font-family="Helvetica,sans-Serif" font-size="11.00" fill="#000000">1 &gt;</text>
</a>
</g>
</g>
<!-- programs&#45;&gt;groups -->
<g id="edge3" class="edge">
<title>programs:w&#45;&gt;groups:e</title>
<path fill="none" stroke="#000000" d="M194.487,-244.7854C174.2608,-240.3388 167.0906,-225.8835 147,-208.2 125.169,-188.9846 135.0831,-157.2 106,-157.2"/>
<polygon fill="#000000" stroke="#000000" points="201.0377,-245.4238 208.6507,-249.783 205.0189,-245.8119 209,-246.2 209,-246.2 209,-246.2 205.0189,-245.8119 209.3493,-242.617 201.0377,-245.4238 201.0377,-245.4238"/>
<ellipse fill="none" stroke="#000000" cx="197.8528" cy="-245.1134" rx="3.2" ry="3.2"/>
</g>
<!-- tickets -->
<g id="node5" class="node">
<title>tickets</title>
<g id="a_node5"><a xlink:href="../../tables/tickets.html" xlink:title="tickets" target="_top">
<polygon fill="#ffffff" stroke="transparent" points="440,-205.7 440,-266.7 514,-266.7 514,-205.7 440,-205.7"/>
<polygon fill="#f5f5f5" stroke="transparent" points="440,-243.2 440,-266.2 514,-266.2 514,-243.2 440,-243.2"/>
<polygon fill="none" stroke="#000000" points="440,-243.2 440,-266.2 514,-266.2 514,-243.2 440,-243.2"/>
<text text-anchor="start" x="444.9152" y="-252.3" font-family="Helvetica,sans-Serif" font-weight="bold" font-size="11.00" fill="#000000">tickets</text>
<text text-anchor="start" x="479.5219" y="-251.3" font-family="Helvetica,sans-Serif" font-size="11.00" fill="#000000">[table]</text>
<polygon fill="none" stroke="#000000" points="440,-224.2 440,-243.2 514,-243.2 514,-224.2 440,-224.2"/>
<text text-anchor="start" x="443" y="-230.3" font-family="Helvetica,sans-Serif" font-size="11.00" fill="#000000">...</text>
<polygon fill="#ffffff" stroke="transparent" points="440,-205.2 440,-224.2 462,-224.2 462,-205.2 440,-205.2"/>
<polygon fill="none" stroke="#000000" points="440,-205.2 440,-224.2 462,-224.2 462,-205.2 440,-205.2"/>
<text text-anchor="start" x="443" y="-211.3" font-family="Helvetica,sans-Serif" font-size="11.00" fill="#000000">&lt; 2</text>
<polygon fill="#ffffff" stroke="transparent" points="462,-205.2 462,-224.2 501,-224.2 501,-205.2 462,-205.2"/>
<polygon fill="none" stroke="#000000" points="462,-205.2 462,-224.2 501,-224.2 501,-205.2 462,-205.2"/>
<text text-anchor="start" x="465.6105" y="-211.3" font-family="Helvetica,sans-Serif" font-size="11.00" fill="#000000">0 rows</text>
<polygon fill="#ffffff" stroke="transparent" points="501,-205.2 501,-224.2 514,-224.2 514,-205.2 501,-205.2"/>
<polygon fill="none" stroke="#000000" points="501,-205.2 501,-224.2 514,-224.2 514,-205.2 501,-205.2"/>
<text text-anchor="start" x="504.8862" y="-211.3" font-family="Helvetica,sans-Serif" font-size="11.00" fill="#000000"> &#160;</text>
</a>
</g>
</g>
<!-- tickets&#45;&gt;users -->
<g id="edge4" class="edge">
<title>tickets:w&#45;&gt;users:e</title>
<path fill="none" stroke="#000000" d="M425.5493,-230.871C391.4824,-218.7249 395.8202,-163.2 351,-163.2"/>
<polygon fill="#000000" stroke="#000000" points="432.1019,-231.927 439.4272,-236.7541 436.051,-232.5635 440,-233.2 440,-233.2 440,-233.2 436.051,-232.5635 440.5728,-229.6459 432.1019,-231.927 432.1019,-231.927"/>
<ellipse fill="none" stroke="#000000" cx="428.9427" cy="-231.4178" rx="3.2" ry="3.2"/>
</g>
<!-- tickets&#45;&gt;programs -->
<g id="edge5" class="edge">
<title>tickets:w&#45;&gt;programs:e</title>
<path fill="none" stroke="#000000" d="M425.3222,-233.4481C373.7992,-235.2453 356.1763,-246.2 298,-246.2"/>
<polygon fill="#000000" stroke="#000000" points="432.0011,-233.3353 440.0609,-236.7995 436.0006,-233.2676 440,-233.2 440,-233.2 440,-233.2 436.0006,-233.2676 439.9391,-229.6005 432.0011,-233.3353 432.0011,-233.3353"/>
<ellipse fill="none" stroke="#000000" cx="428.8016" cy="-233.3894" rx="3.2" ry="3.2"/>
</g>
</g>
</svg>
