<?xml version="1.0" encoding="UTF-8" standalone="no"?>
<!DOCTYPE svg PUBLIC "-//W3C//DTD SVG 1.1//EN"
 "http://www.w3.org/Graphics/SVG/1.1/DTD/svg11.dtd">
<!-- Generated by graphviz version 2.40.1 (20161225.0304)
 -->
<!-- Title: twoDegreesRelationshipsDiagram Pages: 1 -->
<svg width="478pt" height="295pt"
 viewBox="0.00 0.00 478.00 295.20" xmlns="http://www.w3.org/2000/svg" xmlns:xlink="http://www.w3.org/1999/xlink">
<g id="graph0" class="graph" transform="scale(1 1) rotate(0) translate(4 291.2)">
<title>twoDegreesRelationshipsDiagram</title>
<polygon fill="#ffffff" stroke="transparent" points="-4,4 -4,-291.2 474,-291.2 474,4 -4,4"/>
<text text-anchor="middle" x="72.4936" y="-7.3" font-family="Helvetica,sans-Serif" font-size="11.00" fill="#000000">Generated by SchemaSpy</text>
<!-- authority -->
<g id="node1" class="node">
<title>authority</title>
<g id="a_node1"><a xlink:href="../../tables/authority.html" xlink:title="authority" target="_top">
<polygon fill="#ffffff" stroke="transparent" points="377,-38.2 377,-165.2 462,-165.2 462,-38.2 377,-38.2"/>
<polygon fill="#f5f5f5" stroke="transparent" points="377.5,-141.7 377.5,-164.7 462.5,-164.7 462.5,-141.7 377.5,-141.7"/>
<polygon fill="none" stroke="#000000" points="377.5,-141.7 377.5,-164.7 462.5,-164.7 462.5,-141.7 377.5,-141.7"/>
<text text-anchor="start" x="382.4119" y="-150.8" font-family="Helvetica,sans-Serif" font-weight="bold" font-size="11.00" fill="#000000">authority</text>
<text text-anchor="start" x="428.0219" y="-149.8" font-family="Helvetica,sans-Serif" font-size="11.00" fill="#000000">[table]</text>
<polygon fill="none" stroke="#000000" points="377.5,-119.7 377.5,-141.7 462.5,-141.7 462.5,-119.7 377.5,-119.7"/>
<image xlink:href="../../images/primaryKeys.png" width="11px" height="12px" preserveAspectRatio="xMinYMin meet" x="382.5" y="-136.7"/>
<text text-anchor="start" x="398.5" y="-126.8" font-family="Helvetica,sans-Serif" font-size="11.00" fill="#000000">id</text>
<polygon fill="#ffffff" stroke="transparent" points="377.5,-97.7 377.5,-119.7 462.5,-119.7 462.5,-97.7 377.5,-97.7"/>
<polygon fill="none" stroke="#000000" points="377.5,-97.7 377.5,-119.7 462.5,-119.7 462.5,-97.7 377.5,-97.7"/>
<image xlink:href="../../images/foreignKeys.png" width="11px" height="12px" preserveAspectRatio="xMinYMin meet" x="382.5" y="-114.7"/>
<text text-anchor="start" x="398.5" y="-104.8" font-family="Helvetica,sans-Serif" font-size="11.00" fill="#000000">user_id</text>
<polygon fill="#ffffff" stroke="transparent" points="377.5,-75.7 377.5,-97.7 462.5,-97.7 462.5,-75.7 377.5,-75.7"/>
<polygon fill="none" stroke="#000000" points="377.5,-75.7 377.5,-97.7 462.5,-97.7 462.5,-75.7 377.5,-75.7"/>
<image xlink:href="../../images/foreignKeys.png" width="11px" height="12px" preserveAspectRatio="xMinYMin meet" x="382.5" y="-92.7"/>
<text text-anchor="start" x="398.5" y="-82.8" font-family="Helvetica,sans-Serif" font-size="11.00" fill="#000000">group_id</text>
<polygon fill="none" stroke="#000000" points="377.5,-56.7 377.5,-75.7 462.5,-75.7 462.5,-56.7 377.5,-56.7"/>
<text text-anchor="start" x="380.5" y="-62.8" font-family="Helvetica,sans-Serif" font-size="11.00" fill="#000000">...</text>
<polygon fill="#ffffff" stroke="transparent" points="377.5,-37.7 377.5,-56.7 405.5,-56.7 405.5,-37.7 377.5,-37.7"/>
<polygon fill="none" stroke="#000000" points="377.5,-37.7 377.5,-56.7 405.5,-56.7 405.5,-37.7 377.5,-37.7"/>
<text text-anchor="start" x="380.5" y="-43.8" font-family="Helvetica,sans-Serif" font-size="11.00" fill="#000000">&lt; 2</text>
<polygon fill="#ffffff" stroke="transparent" points="405.5,-37.7 405.5,-56.7 446.5,-56.7 446.5,-37.7 405.5,-37.7"/>
<polygon fill="none" stroke="#000000" points="405.5,-37.7 405.5,-56.7 446.5,-56.7 446.5,-37.7 405.5,-37.7"/>
<text text-anchor="start" x="411.1105" y="-43.8" font-family="Helvetica,sans-Serif" font-size="11.00" fill="#000000">0 rows</text>
<polygon fill="#ffffff" stroke="transparent" points="446.5,-37.7 446.5,-56.7 462.5,-56.7 462.5,-37.7 446.5,-37.7"/>
<polygon fill="none" stroke="#000000" points="446.5,-37.7 446.5,-56.7 462.5,-56.7 462.5,-37.7 446.5,-37.7"/>
<text text-anchor="start" x="453.3862" y="-43.8" font-family="Helvetica,sans-Serif" font-size="11.00" fill="#000000"> &#160;</text>
</a>
</g>
</g>
<!-- groups -->
<g id="node2" class="node">
<title>groups</title>
<g id="a_node2"><a xlink:href="../../tables/groups.html" xlink:title="groups" target="_top">
<polygon fill="#ffffff" stroke="transparent" points="8,-50.7 8,-184.7 177,-184.7 177,-50.7 8,-50.7"/>
<polygon fill="#f5f5f5" stroke="transparent" points="10.5,-159.7 10.5,-182.7 175.5,-182.7 175.5,-159.7 10.5,-159.7"/>
<polygon fill="none" stroke="#000000" points="10.5,-159.7 10.5,-182.7 175.5,-182.7 175.5,-159.7 10.5,-159.7"/>
<text text-anchor="start" x="15.5" y="-168.8" font-family="Helvetica,sans-Serif" font-weight="bold" font-size="11.00" fill="#000000">groups</text>
<text text-anchor="start" x="140.5437" y="-167.8" font-family="Helvetica,sans-Serif" font-size="11.00" fill="#000000">[table]</text>
<polygon fill="none" stroke="#000000" points="10.5,-137.7 10.5,-159.7 108.5,-159.7 108.5,-137.7 10.5,-137.7"/>
<image xlink:href="../../images/primaryKeys.png" width="11px" height="12px" preserveAspectRatio="xMinYMin meet" x="15.5" y="-154.7"/>
<text text-anchor="start" x="30.5" y="-144.8" font-family="Helvetica,sans-Serif" font-size="11.00" fill="#000000">id</text>
<polygon fill="none" stroke="#000000" points="108.5,-137.7 108.5,-159.7 175.5,-159.7 175.5,-137.7 108.5,-137.7"/>
<text text-anchor="start" x="111.5" y="-145.4" font-family="Helvetica,sans-Serif" font-size="11.00" fill="#000000">int[10]</text>
<polygon fill="#ffffff" stroke="transparent" points="10.5,-115.7 10.5,-137.7 108.5,-137.7 108.5,-115.7 10.5,-115.7"/>
<polygon fill="none" stroke="#000000" points="10.5,-115.7 10.5,-137.7 108.5,-137.7 108.5,-115.7 10.5,-115.7"/>
<text text-anchor="start" x="30.5" y="-122.8" font-family="Helvetica,sans-Serif" font-size="11.00" fill="#000000">groupname</text>
<polygon fill="none" stroke="#000000" points="108.5,-115.7 108.5,-137.7 175.5,-137.7 175.5,-115.7 108.5,-115.7"/>
<text text-anchor="start" x="111.4365" y="-123.4" font-family="Helvetica,sans-Serif" font-size="11.00" fill="#000000">varchar[255]</text>
<polygon fill="none" stroke="#000000" points="10.5,-93.7 10.5,-115.7 108.5,-115.7 108.5,-93.7 10.5,-93.7"/>
<text text-anchor="start" x="30.5" y="-100.8" font-family="Helvetica,sans-Serif" font-size="11.00" fill="#000000">title</text>
<polygon fill="none" stroke="#000000" points="108.5,-93.7 108.5,-115.7 175.5,-115.7 175.5,-93.7 108.5,-93.7"/>
<text text-anchor="start" x="111.4365" y="-101.4" font-family="Helvetica,sans-Serif" font-size="11.00" fill="#000000">varchar[255]</text>
<polygon fill="none" stroke="#000000" points="10.5,-71.7 10.5,-93.7 108.5,-93.7 108.5,-71.7 10.5,-71.7"/>
<text text-anchor="start" x="30.5" y="-78.8" font-family="Helvetica,sans-Serif" font-size="11.00" fill="#000000">description</text>
<polygon fill="none" stroke="#000000" points="108.5,-71.7 108.5,-93.7 175.5,-93.7 175.5,-71.7 108.5,-71.7"/>
<text text-anchor="start" x="111.4365" y="-79.4" font-family="Helvetica,sans-Serif" font-size="11.00" fill="#000000">varchar[255]</text>
<polygon fill="#ffffff" stroke="transparent" points="10.5,-52.7 10.5,-71.7 50.5,-71.7 50.5,-52.7 10.5,-52.7"/>
<polygon fill="none" stroke="#000000" points="10.5,-52.7 10.5,-71.7 50.5,-71.7 50.5,-52.7 10.5,-52.7"/>
<text text-anchor="start" x="13.5" y="-58.8" font-family="Helvetica,sans-Serif" font-size="11.00" fill="#000000">&lt; 0</text>
<polygon fill="#ffffff" stroke="transparent" points="50.5,-52.7 50.5,-71.7 108.5,-71.7 108.5,-52.7 50.5,-52.7"/>
<polygon fill="none" stroke="#000000" points="50.5,-52.7 50.5,-71.7 108.5,-71.7 108.5,-52.7 50.5,-52.7"/>
<text text-anchor="start" x="73.1105" y="-58.8" font-family="Helvetica,sans-Serif" font-size="11.00" fill="#000000">0 rows</text>
<polygon fill="#ffffff" stroke="transparent" points="108.5,-52.7 108.5,-71.7 175.5,-71.7 175.5,-52.7 108.5,-52.7"/>
<polygon fill="none" stroke="#000000" points="108.5,-52.7 108.5,-71.7 175.5,-71.7 175.5,-52.7 108.5,-52.7"/>
<text text-anchor="start" x="156.9053" y="-58.8" font-family="Helvetica,sans-Serif" font-size="11.00" fill="#000000">2 &gt;</text>
<polygon fill="none" stroke="#000000" stroke-width="2" points="9,-51.7 9,-183.7 176,-183.7 176,-51.7 9,-51.7"/>
</a>
</g>
</g>
<!-- authority&#45;&gt;groups -->
<g id="edge1" class="edge">
<title>authority:w&#45;&gt;groups:e</title>
<path fill="none" stroke="#000000" d="M362.8035,-86.2014C302.6585,-82.0984 276.0701,-54.826 218,-85.7 188.1774,-101.5557 209.2756,-148.7 175.5,-148.7"/>
<polygon fill="#000000" stroke="#000000" points="369.5046,-86.4287 377.3779,-90.2979 373.5023,-86.5643 377.5,-86.7 377.5,-86.7 377.5,-86.7 373.5023,-86.5643 377.6221,-83.1021 369.5046,-86.4287 369.5046,-86.4287"/>
<ellipse fill="none" stroke="#000000" cx="366.3064" cy="-86.3202" rx="3.2" ry="3.2"/>
</g>
<!-- users -->
<g id="node3" class="node">
<title>users</title>
<g id="a_node3"><a xlink:href="../../tables/users.html" xlink:title="users" target="_top">
<polygon fill="#ffffff" stroke="transparent" points="241.5,-96.2 241.5,-157.2 312.5,-157.2 312.5,-96.2 241.5,-96.2"/>
<polygon fill="#f5f5f5" stroke="transparent" points="242,-133.7 242,-156.7 313,-156.7 313,-133.7 242,-133.7"/>
<polygon fill="none" stroke="#000000" points="242,-133.7 242,-156.7 313,-156.7 313,-133.7 242,-133.7"/>
<text text-anchor="start" x="247" y="-142.8" font-family="Helvetica,sans-Serif" font-weight="bold" font-size="11.00" fill="#000000">users</text>
<text text-anchor="start" x="278.0437" y="-141.8" font-family="Helvetica,sans-Serif" font-size="11.00" fill="#000000">[table]</text>
<polygon fill="none" stroke="#000000" points="242,-114.7 242,-133.7 313,-133.7 313,-114.7 242,-114.7"/>
<text text-anchor="start" x="245" y="-120.8" font-family="Helvetica,sans-Serif" font-size="11.00" fill="#000000">...</text>
<polygon fill="#ffffff" stroke="transparent" points="242,-95.7 242,-114.7 254,-114.7 254,-95.7 242,-95.7"/>
<polygon fill="none" stroke="#000000" points="242,-95.7 242,-114.7 254,-114.7 254,-95.7 242,-95.7"/>
<text text-anchor="start" x="244.9431" y="-101.8" font-family="Helvetica,sans-Serif" font-size="11.00" fill="#000000"> &#160;</text>
<polygon fill="#ffffff" stroke="transparent" points="254,-95.7 254,-114.7 292,-114.7 292,-95.7 254,-95.7"/>
<polygon fill="none" stroke="#000000" points="254,-95.7 254,-114.7 292,-114.7 292,-95.7 254,-95.7"/>
<text text-anchor="start" x="256.8053" y="-101.8" font-family="Helvetica,sans-Serif" font-size="11.00" fill="#000000">0 rows</text>
<polygon fill="#ffffff" stroke="transparent" points="292,-95.7 292,-114.7 313,-114.7 313,-95.7 292,-95.7"/>
<polygon fill="none" stroke="#000000" points="292,-95.7 292,-114.7 313,-114.7 313,-95.7 292,-95.7"/>
<text text-anchor="start" x="294.7027" y="-101.8" font-family="Helvetica,sans-Serif" font-size="11.00" fill="#000000">2 &gt;</text>
</a>
</g>
</g>
<!-- authority&#45;&gt;users -->
<g id="edge2" class="edge">
<title>authority:w&#45;&gt;users:e</title>
<path fill="none" stroke="#000000" d="M363.1406,-110.0843C345.118,-113.7977 336.9132,-123.7 313,-123.7"/>
<polygon fill="#000000" stroke="#000000" points="369.5369,-109.4677 377.8455,-112.2834 373.5185,-109.0839 377.5,-108.7 377.5,-108.7 377.5,-108.7 373.5185,-109.0839 377.1545,-105.1166 369.5369,-109.4677 369.5369,-109.4677"/>
<ellipse fill="none" stroke="#000000" cx="366.3517" cy="-109.7748" rx="3.2" ry="3.2"/>
</g>
<!-- programs -->
<g id="node4" class="node">
<title>programs</title>
<g id="a_node4"><a xlink:href="../../tables/programs.html" xlink:title="programs" target="_top">
<polygon fill="#ffffff" stroke="transparent" points="226,-178.2 226,-283.2 328,-283.2 328,-178.2 226,-178.2"/>
<polygon fill="#f5f5f5" stroke="transparent" points="226,-259.7 226,-282.7 328,-282.7 328,-259.7 226,-259.7"/>
<polygon fill="none" stroke="#000000" points="226,-259.7 226,-282.7 328,-282.7 328,-259.7 226,-259.7"/>
<text text-anchor="start" x="231" y="-268.8" font-family="Helvetica,sans-Serif" font-weight="bold" font-size="11.00" fill="#000000">programs</text>
<text text-anchor="start" x="293.0437" y="-267.8" font-family="Helvetica,sans-Serif" font-size="11.00" fill="#000000">[table]</text>
<polygon fill="none" stroke="#000000" points="226,-237.7 226,-259.7 328,-259.7 328,-237.7 226,-237.7"/>
<image xlink:href="../../images/primaryKeys.png" width="11px" height="12px" preserveAspectRatio="xMinYMin meet" x="231" y="-254.7"/>
<text text-anchor="start" x="246" y="-244.8" font-family="Helvetica,sans-Serif" font-size="11.00" fill="#000000">id</text>
<polygon fill="#ffffff" stroke="transparent" points="226,-215.7 226,-237.7 328,-237.7 328,-215.7 226,-215.7"/>
<polygon fill="none" stroke="#000000" points="226,-215.7 226,-237.7 328,-237.7 328,-215.7 226,-215.7"/>
<image xlink:href="../../images/foreignKeys.png" width="11px" height="12px" preserveAspectRatio="xMinYMin meet" x="231" y="-232.7"/>
<text text-anchor="start" x="246" y="-222.8" font-family="Helvetica,sans-Serif" font-size="11.00" fill="#000000">group_id</text>
<polygon fill="none" stroke="#000000" points="226,-196.7 226,-215.7 328,-215.7 328,-196.7 226,-196.7"/>
<text text-anchor="start" x="229" y="-202.8" font-family="Helvetica,sans-Serif" font-size="11.00" fill="#000000">...</text>
<polygon fill="#ffffff" stroke="transparent" points="226,-177.7 226,-196.7 258,-196.7 258,-177.7 226,-177.7"/>
<polygon fill="none" stroke="#000000" points="226,-177.7 226,-196.7 258,-196.7 258,-177.7 226,-177.7"/>
<text text-anchor="start" x="229" y="-183.8" font-family="Helvetica,sans-Serif" font-size="11.00" fill="#000000">&lt; 1</text>
<polygon fill="#ffffff" stroke="transparent" points="258,-177.7 258,-196.7 301,-196.7 301,-177.7 258,-177.7"/>
<polygon fill="none" stroke="#000000" points="258,-177.7 258,-196.7 301,-196.7 301,-177.7 258,-177.7"/>
<text text-anchor="start" x="265.6105" y="-183.8" font-family="Helvetica,sans-Serif" font-size="11.00" fill="#000000">0 rows</text>
<polygon fill="#ffffff" stroke="transparent" points="301,-177.7 301,-196.7 328,-196.7 328,-177.7 301,-177.7"/>
<polygon fill="none" stroke="#000000" points="301,-177.7 301,-196.7 328,-196.7 328,-177.7 301,-177.7"/>
<text text-anchor="start" x="309.4053" y="-183.8" font-family="Helvetica,sans-Serif" font-size="11.00" fill="#000000">1 &gt;</text>
</a>
</g>
</g>
<!-- programs&#45;&gt;groups -->
<g id="edge3" class="edge">
<title>programs:w&#45;&gt;groups:e</title>
<path fill="none" stroke="#000000" d="M212.2497,-222.2829C192.4466,-205.7825 210.8292,-148.7 175.5,-148.7"/>
<polygon fill="#000000" stroke="#000000" points="218.3833,-224.2532 224.8989,-230.1275 222.1917,-225.4766 226,-226.7 226,-226.7 226,-226.7 222.1917,-225.4766 227.1011,-223.2725 218.3833,-224.2532 218.3833,-224.2532"/>
<ellipse fill="none" stroke="#000000" cx="215.3367" cy="-223.2745" rx="3.2" ry="3.2"/>
</g>
<!-- tickets -->
<g id="node5" class="node">
<title>tickets</title>
<g id="a_node5"><a xlink:href="../../tables/tickets.html" xlink:title="tickets" target="_top">
<polygon fill="#ffffff" stroke="transparent" points="382.5,-203.2 382.5,-264.2 456.5,-264.2 456.5,-203.2 382.5,-203.2"/>
<polygon fill="#f5f5f5" stroke="transparent" points="382.5,-240.7 382.5,-263.7 456.5,-263.7 456.5,-240.7 382.5,-240.7"/>
<polygon fill="none" stroke="#000000" points="382.5,-240.7 382.5,-263.7 456.5,-263.7 456.5,-240.7 382.5,-240.7"/>
<text text-anchor="start" x="387.4152" y="-249.8" font-family="Helvetica,sans-Serif" font-weight="bold" font-size="11.00" fill="#000000">tickets</text>
<text text-anchor="start" x="422.0219" y="-248.8" font-family="Helvetica,sans-Serif" font-size="11.00" fill="#000000">[table]</text>
<polygon fill="none" stroke="#000000" points="382.5,-221.7 382.5,-240.7 456.5,-240.7 456.5,-221.7 382.5,-221.7"/>
<text text-anchor="start" x="385.5" y="-227.8" font-family="Helvetica,sans-Serif" font-size="11.00" fill="#000000">...</text>
<polygon fill="#ffffff" stroke="transparent" points="382.5,-202.7 382.5,-221.7 404.5,-221.7 404.5,-202.7 382.5,-202.7"/>
<polygon fill="none" stroke="#000000" points="382.5,-202.7 382.5,-221.7 404.5,-221.7 404.5,-202.7 382.5,-202.7"/>
<text text-anchor="start" x="385.5" y="-208.8" font-family="Helvetica,sans-Serif" font-size="11.00" fill="#000000">&lt; 2</text>
<polygon fill="#ffffff" stroke="transparent" points="404.5,-202.7 404.5,-221.7 443.5,-221.7 443.5,-202.7 404.5,-202.7"/>
<polygon fill="none" stroke="#000000" points="404.5,-202.7 404.5,-221.7 443.5,-221.7 443.5,-202.7 404.5,-202.7"/>
<text text-anchor="start" x="408.1105" y="-208.8" font-family="Helvetica,sans-Serif" font-size="11.00" fill="#000000">0 rows</text>
<polygon fill="#ffffff" stroke="transparent" points="443.5,-202.7 443.5,-221.7 456.5,-221.7 456.5,-202.7 443.5,-202.7"/>
<polygon fill="none" stroke="#000000" points="443.5,-202.7 443.5,-221.7 456.5,-221.7 456.5,-202.7 443.5,-202.7"/>
<text text-anchor="start" x="447.3862" y="-208.8" font-family="Helvetica,sans-Serif" font-size="11.00" fill="#000000"> &#160;</text>
</a>
</g>
</g>
<!-- tickets&#45;&gt;users -->
<g id="edge4" class="edge">
<title>tickets:w&#45;&gt;users:e</title>
<path fill="none" stroke="#000000" d="M368.125,-227.6131C333.6753,-210.0693 363.9475,-123.7 313,-123.7"/>
<polygon fill="#000000" stroke="#000000" points="374.6783,-229.0203 381.7441,-234.2198 378.5892,-229.8602 382.5,-230.7 382.5,-230.7 382.5,-230.7 378.5892,-229.8602 383.2559,-227.1802 374.6783,-229.0203 374.6783,-229.0203"/>
<ellipse fill="none" stroke="#000000" cx="371.5496" cy="-228.3484" rx="3.2" ry="3.2"/>
</g>
<!-- tickets&#45;&gt;programs -->
<g id="edge5" class="edge">
<title>tickets:w&#45;&gt;programs:e</title>
<path fill="none" stroke="#000000" d="M368.0415,-233.0532C354.2825,-237.9323 347.7297,-248.7 328,-248.7"/>
<polygon fill="#000000" stroke="#000000" points="374.6039,-231.9852 383.0783,-234.2532 378.5519,-231.3426 382.5,-230.7 382.5,-230.7 382.5,-230.7 378.5519,-231.3426 381.9217,-227.1468 374.6039,-231.9852 374.6039,-231.9852"/>
<ellipse fill="none" stroke="#000000" cx="371.4455" cy="-232.4992" rx="3.2" ry="3.2"/>
</g>
</g>
</svg>
