<?xml version="1.0" encoding="UTF-8" standalone="no"?>
<!DOCTYPE svg PUBLIC "-//W3C//DTD SVG 1.1//EN"
 "http://www.w3.org/Graphics/SVG/1.1/DTD/svg11.dtd">
<!-- Generated by graphviz version 2.40.1 (20161225.0304)
 -->
<!-- Title: oneDegreeRelationshipsDiagram Pages: 1 -->
<svg width="344pt" height="303pt"
 viewBox="0.00 0.00 344.00 303.20" xmlns="http://www.w3.org/2000/svg" xmlns:xlink="http://www.w3.org/1999/xlink">
<g id="graph0" class="graph" transform="scale(1 1) rotate(0) translate(4 299.2)">
<title>oneDegreeRelationshipsDiagram</title>
<polygon fill="#ffffff" stroke="transparent" points="-4,4 -4,-299.2 340,-299.2 340,4 -4,4"/>
<text text-anchor="middle" x="72.4936" y="-7.3" font-family="Helvetica,sans-Serif" font-size="11.00" fill="#000000">Generated by SchemaSpy</text>
<!-- authority -->
<g id="node1" class="node">
<title>authority</title>
<g id="a_node1"><a xlink:href="../../tables/authority.html" xlink:title="authority" target="_top">
<polygon fill="#ffffff" stroke="transparent" points="234.5,-164.2 234.5,-291.2 319.5,-291.2 319.5,-164.2 234.5,-164.2"/>
<polygon fill="#f5f5f5" stroke="transparent" points="235,-267.7 235,-290.7 320,-290.7 320,-267.7 235,-267.7"/>
<polygon fill="none" stroke="#000000" points="235,-267.7 235,-290.7 320,-290.7 320,-267.7 235,-267.7"/>
<text text-anchor="start" x="239.9119" y="-276.8" font-family="Helvetica,sans-Serif" font-weight="bold" font-size="11.00" fill="#000000">authority</text>
<text text-anchor="start" x="285.5219" y="-275.8" font-family="Helvetica,sans-Serif" font-size="11.00" fill="#000000">[table]</text>
<polygon fill="none" stroke="#000000" points="235,-245.7 235,-267.7 320,-267.7 320,-245.7 235,-245.7"/>
<image xlink:href="../../images/primaryKeys.png" width="11px" height="12px" preserveAspectRatio="xMinYMin meet" x="240" y="-262.7"/>
<text text-anchor="start" x="256" y="-252.8" font-family="Helvetica,sans-Serif" font-size="11.00" fill="#000000">id</text>
<polygon fill="#ffffff" stroke="transparent" points="235,-223.7 235,-245.7 320,-245.7 320,-223.7 235,-223.7"/>
<polygon fill="none" stroke="#000000" points="235,-223.7 235,-245.7 320,-245.7 320,-223.7 235,-223.7"/>
<image xlink:href="../../images/foreignKeys.png" width="11px" height="12px" preserveAspectRatio="xMinYMin meet" x="240" y="-240.7"/>
<text text-anchor="start" x="256" y="-230.8" font-family="Helvetica,sans-Serif" font-size="11.00" fill="#000000">user_id</text>
<polygon fill="#ffffff" stroke="transparent" points="235,-201.7 235,-223.7 320,-223.7 320,-201.7 235,-201.7"/>
<polygon fill="none" stroke="#000000" points="235,-201.7 235,-223.7 320,-223.7 320,-201.7 235,-201.7"/>
<image xlink:href="../../images/foreignKeys.png" width="11px" height="12px" preserveAspectRatio="xMinYMin meet" x="240" y="-218.7"/>
<text text-anchor="start" x="256" y="-208.8" font-family="Helvetica,sans-Serif" font-size="11.00" fill="#000000">group_id</text>
<polygon fill="none" stroke="#000000" points="235,-182.7 235,-201.7 320,-201.7 320,-182.7 235,-182.7"/>
<text text-anchor="start" x="238" y="-188.8" font-family="Helvetica,sans-Serif" font-size="11.00" fill="#000000">...</text>
<polygon fill="#ffffff" stroke="transparent" points="235,-163.7 235,-182.7 263,-182.7 263,-163.7 235,-163.7"/>
<polygon fill="none" stroke="#000000" points="235,-163.7 235,-182.7 263,-182.7 263,-163.7 235,-163.7"/>
<text text-anchor="start" x="238" y="-169.8" font-family="Helvetica,sans-Serif" font-size="11.00" fill="#000000">&lt; 2</text>
<polygon fill="#ffffff" stroke="transparent" points="263,-163.7 263,-182.7 304,-182.7 304,-163.7 263,-163.7"/>
<polygon fill="none" stroke="#000000" points="263,-163.7 263,-182.7 304,-182.7 304,-163.7 263,-163.7"/>
<text text-anchor="start" x="268.6105" y="-169.8" font-family="Helvetica,sans-Serif" font-size="11.00" fill="#000000">0 rows</text>
<polygon fill="#ffffff" stroke="transparent" points="304,-163.7 304,-182.7 320,-182.7 320,-163.7 304,-163.7"/>
<polygon fill="none" stroke="#000000" points="304,-163.7 304,-182.7 320,-182.7 320,-163.7 304,-163.7"/>
<text text-anchor="start" x="310.8862" y="-169.8" font-family="Helvetica,sans-Serif" font-size="11.00" fill="#000000"> &#160;</text>
</a>
</g>
</g>
<!-- groups -->
<g id="node2" class="node">
<title>groups</title>
<g id="a_node2"><a xlink:href="../../tables/groups.html" xlink:title="groups" target="_top">
<polygon fill="#ffffff" stroke="transparent" points="8,-51.7 8,-185.7 177,-185.7 177,-51.7 8,-51.7"/>
<polygon fill="#f5f5f5" stroke="transparent" points="10.5,-160.7 10.5,-183.7 175.5,-183.7 175.5,-160.7 10.5,-160.7"/>
<polygon fill="none" stroke="#000000" points="10.5,-160.7 10.5,-183.7 175.5,-183.7 175.5,-160.7 10.5,-160.7"/>
<text text-anchor="start" x="15.5" y="-169.8" font-family="Helvetica,sans-Serif" font-weight="bold" font-size="11.00" fill="#000000">groups</text>
<text text-anchor="start" x="140.5437" y="-168.8" font-family="Helvetica,sans-Serif" font-size="11.00" fill="#000000">[table]</text>
<polygon fill="none" stroke="#000000" points="10.5,-138.7 10.5,-160.7 108.5,-160.7 108.5,-138.7 10.5,-138.7"/>
<image xlink:href="../../images/primaryKeys.png" width="11px" height="12px" preserveAspectRatio="xMinYMin meet" x="15.5" y="-155.7"/>
<text text-anchor="start" x="30.5" y="-145.8" font-family="Helvetica,sans-Serif" font-size="11.00" fill="#000000">id</text>
<polygon fill="none" stroke="#000000" points="108.5,-138.7 108.5,-160.7 175.5,-160.7 175.5,-138.7 108.5,-138.7"/>
<text text-anchor="start" x="111.5" y="-146.4" font-family="Helvetica,sans-Serif" font-size="11.00" fill="#000000">int[10]</text>
<polygon fill="#ffffff" stroke="transparent" points="10.5,-116.7 10.5,-138.7 108.5,-138.7 108.5,-116.7 10.5,-116.7"/>
<polygon fill="none" stroke="#000000" points="10.5,-116.7 10.5,-138.7 108.5,-138.7 108.5,-116.7 10.5,-116.7"/>
<text text-anchor="start" x="30.5" y="-123.8" font-family="Helvetica,sans-Serif" font-size="11.00" fill="#000000">groupname</text>
<polygon fill="none" stroke="#000000" points="108.5,-116.7 108.5,-138.7 175.5,-138.7 175.5,-116.7 108.5,-116.7"/>
<text text-anchor="start" x="111.4365" y="-124.4" font-family="Helvetica,sans-Serif" font-size="11.00" fill="#000000">varchar[255]</text>
<polygon fill="none" stroke="#000000" points="10.5,-94.7 10.5,-116.7 108.5,-116.7 108.5,-94.7 10.5,-94.7"/>
<text text-anchor="start" x="30.5" y="-101.8" font-family="Helvetica,sans-Serif" font-size="11.00" fill="#000000">title</text>
<polygon fill="none" stroke="#000000" points="108.5,-94.7 108.5,-116.7 175.5,-116.7 175.5,-94.7 108.5,-94.7"/>
<text text-anchor="start" x="111.4365" y="-102.4" font-family="Helvetica,sans-Serif" font-size="11.00" fill="#000000">varchar[255]</text>
<polygon fill="none" stroke="#000000" points="10.5,-72.7 10.5,-94.7 108.5,-94.7 108.5,-72.7 10.5,-72.7"/>
<text text-anchor="start" x="30.5" y="-79.8" font-family="Helvetica,sans-Serif" font-size="11.00" fill="#000000">description</text>
<polygon fill="none" stroke="#000000" points="108.5,-72.7 108.5,-94.7 175.5,-94.7 175.5,-72.7 108.5,-72.7"/>
<text text-anchor="start" x="111.4365" y="-80.4" font-family="Helvetica,sans-Serif" font-size="11.00" fill="#000000">varchar[255]</text>
<polygon fill="#ffffff" stroke="transparent" points="10.5,-53.7 10.5,-72.7 50.5,-72.7 50.5,-53.7 10.5,-53.7"/>
<polygon fill="none" stroke="#000000" points="10.5,-53.7 10.5,-72.7 50.5,-72.7 50.5,-53.7 10.5,-53.7"/>
<text text-anchor="start" x="13.5" y="-59.8" font-family="Helvetica,sans-Serif" font-size="11.00" fill="#000000">&lt; 0</text>
<polygon fill="#ffffff" stroke="transparent" points="50.5,-53.7 50.5,-72.7 108.5,-72.7 108.5,-53.7 50.5,-53.7"/>
<polygon fill="none" stroke="#000000" points="50.5,-53.7 50.5,-72.7 108.5,-72.7 108.5,-53.7 50.5,-53.7"/>
<text text-anchor="start" x="73.1105" y="-59.8" font-family="Helvetica,sans-Serif" font-size="11.00" fill="#000000">0 rows</text>
<polygon fill="#ffffff" stroke="transparent" points="108.5,-53.7 108.5,-72.7 175.5,-72.7 175.5,-53.7 108.5,-53.7"/>
<polygon fill="none" stroke="#000000" points="108.5,-53.7 108.5,-72.7 175.5,-72.7 175.5,-53.7 108.5,-53.7"/>
<text text-anchor="start" x="156.9053" y="-59.8" font-family="Helvetica,sans-Serif" font-size="11.00" fill="#000000">2 &gt;</text>
<polygon fill="none" stroke="#000000" stroke-width="2" points="9,-52.7 9,-184.7 176,-184.7 176,-52.7 9,-52.7"/>
</a>
</g>
</g>
<!-- authority&#45;&gt;groups -->
<g id="edge1" class="edge">
<title>authority:w&#45;&gt;groups:e</title>
<path fill="none" stroke="#000000" d="M220.9036,-208.7591C200.526,-194.9668 208.1464,-149.7 175.5,-149.7"/>
<polygon fill="#000000" stroke="#000000" points="227.2954,-210.546 234.0307,-216.1671 231.1477,-211.623 235,-212.7 235,-212.7 235,-212.7 231.1477,-211.623 235.9693,-209.2329 227.2954,-210.546 227.2954,-210.546"/>
<ellipse fill="none" stroke="#000000" cx="224.2136" cy="-209.6844" rx="3.2" ry="3.2"/>
</g>
<!-- programs -->
<g id="node3" class="node">
<title>programs</title>
<g id="a_node3"><a xlink:href="../../tables/programs.html" xlink:title="programs" target="_top">
<polygon fill="#ffffff" stroke="transparent" points="226,-38.2 226,-143.2 328,-143.2 328,-38.2 226,-38.2"/>
<polygon fill="#f5f5f5" stroke="transparent" points="226,-119.7 226,-142.7 328,-142.7 328,-119.7 226,-119.7"/>
<polygon fill="none" stroke="#000000" points="226,-119.7 226,-142.7 328,-142.7 328,-119.7 226,-119.7"/>
<text text-anchor="start" x="231" y="-128.8" font-family="Helvetica,sans-Serif" font-weight="bold" font-size="11.00" fill="#000000">programs</text>
<text text-anchor="start" x="293.0437" y="-127.8" font-family="Helvetica,sans-Serif" font-size="11.00" fill="#000000">[table]</text>
<polygon fill="none" stroke="#000000" points="226,-97.7 226,-119.7 328,-119.7 328,-97.7 226,-97.7"/>
<image xlink:href="../../images/primaryKeys.png" width="11px" height="12px" preserveAspectRatio="xMinYMin meet" x="231" y="-114.7"/>
<text text-anchor="start" x="246" y="-104.8" font-family="Helvetica,sans-Serif" font-size="11.00" fill="#000000">id</text>
<polygon fill="#ffffff" stroke="transparent" points="226,-75.7 226,-97.7 328,-97.7 328,-75.7 226,-75.7"/>
<polygon fill="none" stroke="#000000" points="226,-75.7 226,-97.7 328,-97.7 328,-75.7 226,-75.7"/>
<image xlink:href="../../images/foreignKeys.png" width="11px" height="12px" preserveAspectRatio="xMinYMin meet" x="231" y="-92.7"/>
<text text-anchor="start" x="246" y="-82.8" font-family="Helvetica,sans-Serif" font-size="11.00" fill="#000000">group_id</text>
<polygon fill="none" stroke="#000000" points="226,-56.7 226,-75.7 328,-75.7 328,-56.7 226,-56.7"/>
<text text-anchor="start" x="229" y="-62.8" font-family="Helvetica,sans-Serif" font-size="11.00" fill="#000000">...</text>
<polygon fill="#ffffff" stroke="transparent" points="226,-37.7 226,-56.7 258,-56.7 258,-37.7 226,-37.7"/>
<polygon fill="none" stroke="#000000" points="226,-37.7 226,-56.7 258,-56.7 258,-37.7 226,-37.7"/>
<text text-anchor="start" x="229" y="-43.8" font-family="Helvetica,sans-Serif" font-size="11.00" fill="#000000">&lt; 1</text>
<polygon fill="#ffffff" stroke="transparent" points="258,-37.7 258,-56.7 301,-56.7 301,-37.7 258,-37.7"/>
<polygon fill="none" stroke="#000000" points="258,-37.7 258,-56.7 301,-56.7 301,-37.7 258,-37.7"/>
<text text-anchor="start" x="265.6105" y="-43.8" font-family="Helvetica,sans-Serif" font-size="11.00" fill="#000000">0 rows</text>
<polygon fill="#ffffff" stroke="transparent" points="301,-37.7 301,-56.7 328,-56.7 328,-37.7 301,-37.7"/>
<polygon fill="none" stroke="#000000" points="301,-37.7 301,-56.7 328,-56.7 328,-37.7 301,-37.7"/>
<text text-anchor="start" x="309.4053" y="-43.8" font-family="Helvetica,sans-Serif" font-size="11.00" fill="#000000">1 &gt;</text>
</a>
</g>
</g>
<!-- programs&#45;&gt;groups -->
<g id="edge2" class="edge">
<title>programs:w&#45;&gt;groups:e</title>
<path fill="none" stroke="#000000" d="M211.9816,-91.6435C195.738,-106.4952 205.2175,-149.7 175.5,-149.7"/>
<polygon fill="#000000" stroke="#000000" points="218.4554,-89.3606 227.1973,-90.0951 222.2277,-88.0303 226,-86.7 226,-86.7 226,-86.7 222.2277,-88.0303 224.8027,-83.3049 218.4554,-89.3606 218.4554,-89.3606"/>
<ellipse fill="none" stroke="#000000" cx="215.4375" cy="-90.4248" rx="3.2" ry="3.2"/>
</g>
</g>
</svg>
