<?xml version="1.0" encoding="UTF-8" standalone="no"?>
<!DOCTYPE svg PUBLIC "-//W3C//DTD SVG 1.1//EN"
 "http://www.w3.org/Graphics/SVG/1.1/DTD/svg11.dtd">
<!-- Generated by graphviz version 2.40.1 (20161225.0304)
 -->
<!-- Title: oneDegreeRelationshipsDiagram Pages: 1 -->
<svg width="516pt" height="287pt"
 viewBox="0.00 0.00 516.00 287.20" xmlns="http://www.w3.org/2000/svg" xmlns:xlink="http://www.w3.org/1999/xlink">
<g id="graph0" class="graph" transform="scale(1 1) rotate(0) translate(4 283.2)">
<title>oneDegreeRelationshipsDiagram</title>
<polygon fill="#ffffff" stroke="transparent" points="-4,4 -4,-283.2 512,-283.2 512,4 -4,4"/>
<text text-anchor="middle" x="72.4936" y="-7.3" font-family="Helvetica,sans-Serif" font-size="11.00" fill="#000000">Generated by SchemaSpy</text>
<!-- programs -->
<g id="node1" class="node">
<title>programs</title>
<g id="a_node1"><a xlink:href="../../tables/programs.html" xlink:title="programs" target="_top">
<polygon fill="#ffffff" stroke="transparent" points="155,-76.7 155,-254.7 327,-254.7 327,-76.7 155,-76.7"/>
<polygon fill="#f5f5f5" stroke="transparent" points="157,-229.7 157,-252.7 325,-252.7 325,-229.7 157,-229.7"/>
<polygon fill="none" stroke="#000000" points="157,-229.7 157,-252.7 325,-252.7 325,-229.7 157,-229.7"/>
<text text-anchor="start" x="162" y="-238.8" font-family="Helvetica,sans-Serif" font-weight="bold" font-size="11.00" fill="#000000">programs</text>
<text text-anchor="start" x="290.0437" y="-237.8" font-family="Helvetica,sans-Serif" font-size="11.00" fill="#000000">[table]</text>
<polygon fill="none" stroke="#000000" points="157,-207.7 157,-229.7 259,-229.7 259,-207.7 157,-207.7"/>
<image xlink:href="../../images/primaryKeys.png" width="11px" height="12px" preserveAspectRatio="xMinYMin meet" x="162" y="-224.7"/>
<text text-anchor="start" x="177" y="-214.8" font-family="Helvetica,sans-Serif" font-size="11.00" fill="#000000">id</text>
<polygon fill="none" stroke="#000000" points="259,-207.7 259,-229.7 325,-229.7 325,-207.7 259,-207.7"/>
<text text-anchor="start" x="262" y="-215.4" font-family="Helvetica,sans-Serif" font-size="11.00" fill="#000000">int[10]</text>
<polygon fill="none" stroke="#000000" points="157,-185.7 157,-207.7 259,-207.7 259,-185.7 157,-185.7"/>
<text text-anchor="start" x="177" y="-192.8" font-family="Helvetica,sans-Serif" font-size="11.00" fill="#000000">sell_at</text>
<polygon fill="none" stroke="#000000" points="259,-185.7 259,-207.7 325,-207.7 325,-185.7 259,-185.7"/>
<text text-anchor="start" x="261.7401" y="-193.4" font-family="Helvetica,sans-Serif" font-size="11.00" fill="#000000">datetime[19]</text>
<polygon fill="none" stroke="#000000" points="157,-163.7 157,-185.7 259,-185.7 259,-163.7 157,-163.7"/>
<text text-anchor="start" x="177" y="-170.8" font-family="Helvetica,sans-Serif" font-size="11.00" fill="#000000">starts_at</text>
<polygon fill="none" stroke="#000000" points="259,-163.7 259,-185.7 325,-185.7 325,-163.7 259,-163.7"/>
<text text-anchor="start" x="261.7401" y="-171.4" font-family="Helvetica,sans-Serif" font-size="11.00" fill="#000000">datetime[19]</text>
<polygon fill="none" stroke="#000000" points="157,-141.7 157,-163.7 259,-163.7 259,-141.7 157,-141.7"/>
<text text-anchor="start" x="177" y="-148.8" font-family="Helvetica,sans-Serif" font-size="11.00" fill="#000000">ends_at</text>
<polygon fill="none" stroke="#000000" points="259,-141.7 259,-163.7 325,-163.7 325,-141.7 259,-141.7"/>
<text text-anchor="start" x="261.7401" y="-149.4" font-family="Helvetica,sans-Serif" font-size="11.00" fill="#000000">datetime[19]</text>
<polygon fill="none" stroke="#000000" points="157,-119.7 157,-141.7 259,-141.7 259,-119.7 157,-119.7"/>
<text text-anchor="start" x="177" y="-126.8" font-family="Helvetica,sans-Serif" font-size="11.00" fill="#000000">ticket_stock</text>
<polygon fill="none" stroke="#000000" points="259,-119.7 259,-141.7 325,-141.7 325,-119.7 259,-119.7"/>
<text text-anchor="start" x="262" y="-127.4" font-family="Helvetica,sans-Serif" font-size="11.00" fill="#000000">int[10]</text>
<polygon fill="#ffffff" stroke="transparent" points="157,-97.7 157,-119.7 259,-119.7 259,-97.7 157,-97.7"/>
<polygon fill="none" stroke="#000000" points="157,-97.7 157,-119.7 259,-119.7 259,-97.7 157,-97.7"/>
<image xlink:href="../../images/foreignKeys.png" width="11px" height="12px" preserveAspectRatio="xMinYMin meet" x="162" y="-114.7"/>
<text text-anchor="start" x="177" y="-104.8" font-family="Helvetica,sans-Serif" font-size="11.00" fill="#000000">group_id</text>
<polygon fill="none" stroke="#000000" points="259,-97.7 259,-119.7 325,-119.7 325,-97.7 259,-97.7"/>
<text text-anchor="start" x="262" y="-105.4" font-family="Helvetica,sans-Serif" font-size="11.00" fill="#000000">int[10]</text>
<polygon fill="#ffffff" stroke="transparent" points="157,-78.7 157,-97.7 199,-97.7 199,-78.7 157,-78.7"/>
<polygon fill="none" stroke="#000000" points="157,-78.7 157,-97.7 199,-97.7 199,-78.7 157,-78.7"/>
<text text-anchor="start" x="160" y="-84.8" font-family="Helvetica,sans-Serif" font-size="11.00" fill="#000000">&lt; 1</text>
<polygon fill="#ffffff" stroke="transparent" points="199,-78.7 199,-97.7 259,-97.7 259,-78.7 199,-78.7"/>
<polygon fill="none" stroke="#000000" points="199,-78.7 199,-97.7 259,-97.7 259,-78.7 199,-78.7"/>
<text text-anchor="start" x="223.6105" y="-84.8" font-family="Helvetica,sans-Serif" font-size="11.00" fill="#000000">0 rows</text>
<polygon fill="#ffffff" stroke="transparent" points="259,-78.7 259,-97.7 325,-97.7 325,-78.7 259,-78.7"/>
<polygon fill="none" stroke="#000000" points="259,-78.7 259,-97.7 325,-97.7 325,-78.7 259,-78.7"/>
<text text-anchor="start" x="306.4053" y="-84.8" font-family="Helvetica,sans-Serif" font-size="11.00" fill="#000000">1 &gt;</text>
<polygon fill="none" stroke="#000000" stroke-width="2" points="156,-77.7 156,-253.7 326,-253.7 326,-77.7 156,-77.7"/>
</a>
</g>
</g>
<!-- groups -->
<g id="node2" class="node">
<title>groups</title>
<g id="a_node2"><a xlink:href="../../tables/groups.html" xlink:title="groups" target="_top">
<polygon fill="#ffffff" stroke="transparent" points="8,-38.2 8,-143.2 106,-143.2 106,-38.2 8,-38.2"/>
<polygon fill="#f5f5f5" stroke="transparent" points="8,-119.7 8,-142.7 106,-142.7 106,-119.7 8,-119.7"/>
<polygon fill="none" stroke="#000000" points="8,-119.7 8,-142.7 106,-142.7 106,-119.7 8,-119.7"/>
<text text-anchor="start" x="13" y="-128.8" font-family="Helvetica,sans-Serif" font-weight="bold" font-size="11.00" fill="#000000">groups</text>
<text text-anchor="start" x="71.0437" y="-127.8" font-family="Helvetica,sans-Serif" font-size="11.00" fill="#000000">[table]</text>
<polygon fill="none" stroke="#000000" points="8,-97.7 8,-119.7 106,-119.7 106,-97.7 8,-97.7"/>
<image xlink:href="../../images/primaryKeys.png" width="11px" height="12px" preserveAspectRatio="xMinYMin meet" x="13" y="-114.7"/>
<text text-anchor="start" x="28" y="-104.8" font-family="Helvetica,sans-Serif" font-size="11.00" fill="#000000">id</text>
<polygon fill="#ffffff" stroke="transparent" points="8,-75.7 8,-97.7 106,-97.7 106,-75.7 8,-75.7"/>
<polygon fill="none" stroke="#000000" points="8,-75.7 8,-97.7 106,-97.7 106,-75.7 8,-75.7"/>
<text text-anchor="start" x="28" y="-82.8" font-family="Helvetica,sans-Serif" font-size="11.00" fill="#000000">groupname</text>
<polygon fill="none" stroke="#000000" points="8,-56.7 8,-75.7 106,-75.7 106,-56.7 8,-56.7"/>
<text text-anchor="start" x="11" y="-62.8" font-family="Helvetica,sans-Serif" font-size="11.00" fill="#000000">...</text>
<polygon fill="#ffffff" stroke="transparent" points="8,-37.7 8,-56.7 33,-56.7 33,-37.7 8,-37.7"/>
<polygon fill="none" stroke="#000000" points="8,-37.7 8,-56.7 33,-56.7 33,-37.7 8,-37.7"/>
<text text-anchor="start" x="11" y="-43.8" font-family="Helvetica,sans-Serif" font-size="11.00" fill="#000000"> &#160;</text>
<polygon fill="#ffffff" stroke="transparent" points="33,-37.7 33,-56.7 78,-56.7 78,-37.7 33,-37.7"/>
<polygon fill="none" stroke="#000000" points="33,-37.7 33,-56.7 78,-56.7 78,-37.7 33,-37.7"/>
<text text-anchor="start" x="42.6105" y="-43.8" font-family="Helvetica,sans-Serif" font-size="11.00" fill="#000000">0 rows</text>
<polygon fill="#ffffff" stroke="transparent" points="78,-37.7 78,-56.7 106,-56.7 106,-37.7 78,-37.7"/>
<polygon fill="none" stroke="#000000" points="78,-37.7 78,-56.7 106,-56.7 106,-37.7 78,-37.7"/>
<text text-anchor="start" x="87.4053" y="-43.8" font-family="Helvetica,sans-Serif" font-size="11.00" fill="#000000">2 &gt;</text>
</a>
</g>
</g>
<!-- programs&#45;&gt;groups -->
<g id="edge1" class="edge">
<title>programs:w&#45;&gt;groups:e</title>
<path fill="none" stroke="#000000" d="M142.276,-108.7C130.2815,-108.7 122.8229,-108.7 106,-108.7"/>
<polygon fill="#000000" stroke="#000000" points="149,-108.7001 157,-112.3 153,-108.7 157,-108.7 157,-108.7 157,-108.7 153,-108.7 157,-105.1 149,-108.7001 149,-108.7001"/>
<ellipse fill="none" stroke="#000000" cx="145.8" cy="-108.7001" rx="3.2" ry="3.2"/>
</g>
<!-- tickets -->
<g id="node3" class="node">
<title>tickets</title>
<g id="a_node3"><a xlink:href="../../tables/tickets.html" xlink:title="tickets" target="_top">
<polygon fill="#ffffff" stroke="transparent" points="376,-148.2 376,-275.2 500,-275.2 500,-148.2 376,-148.2"/>
<polygon fill="#f5f5f5" stroke="transparent" points="376,-251.7 376,-274.7 500,-274.7 500,-251.7 376,-251.7"/>
<polygon fill="none" stroke="#000000" points="376,-251.7 376,-274.7 500,-274.7 500,-251.7 376,-251.7"/>
<text text-anchor="start" x="381" y="-260.8" font-family="Helvetica,sans-Serif" font-weight="bold" font-size="11.00" fill="#000000">tickets</text>
<text text-anchor="start" x="465.0437" y="-259.8" font-family="Helvetica,sans-Serif" font-size="11.00" fill="#000000">[table]</text>
<polygon fill="none" stroke="#000000" points="376,-229.7 376,-251.7 500,-251.7 500,-229.7 376,-229.7"/>
<image xlink:href="../../images/primaryKeys.png" width="11px" height="12px" preserveAspectRatio="xMinYMin meet" x="381" y="-246.7"/>
<text text-anchor="start" x="396" y="-236.8" font-family="Helvetica,sans-Serif" font-size="11.00" fill="#000000">id</text>
<polygon fill="#ffffff" stroke="transparent" points="376,-207.7 376,-229.7 500,-229.7 500,-207.7 376,-207.7"/>
<polygon fill="none" stroke="#000000" points="376,-207.7 376,-229.7 500,-229.7 500,-207.7 376,-207.7"/>
<image xlink:href="../../images/foreignKeys.png" width="11px" height="12px" preserveAspectRatio="xMinYMin meet" x="381" y="-224.7"/>
<text text-anchor="start" x="396" y="-214.8" font-family="Helvetica,sans-Serif" font-size="11.00" fill="#000000">program_id</text>
<polygon fill="#ffffff" stroke="transparent" points="376,-185.7 376,-207.7 500,-207.7 500,-185.7 376,-185.7"/>
<polygon fill="none" stroke="#000000" points="376,-185.7 376,-207.7 500,-207.7 500,-185.7 376,-185.7"/>
<image xlink:href="../../images/foreignKeys.png" width="11px" height="12px" preserveAspectRatio="xMinYMin meet" x="381" y="-202.7"/>
<text text-anchor="start" x="396" y="-192.8" font-family="Helvetica,sans-Serif" font-size="11.00" fill="#000000">owner_id</text>
<polygon fill="none" stroke="#000000" points="376,-166.7 376,-185.7 500,-185.7 500,-166.7 376,-166.7"/>
<text text-anchor="start" x="379" y="-172.8" font-family="Helvetica,sans-Serif" font-size="11.00" fill="#000000">...</text>
<polygon fill="#ffffff" stroke="transparent" points="376,-147.7 376,-166.7 423,-166.7 423,-147.7 376,-147.7"/>
<polygon fill="none" stroke="#000000" points="376,-147.7 376,-166.7 423,-166.7 423,-147.7 376,-147.7"/>
<text text-anchor="start" x="379" y="-153.8" font-family="Helvetica,sans-Serif" font-size="11.00" fill="#000000">&lt; 2</text>
<polygon fill="#ffffff" stroke="transparent" points="423,-147.7 423,-166.7 474,-166.7 474,-147.7 423,-147.7"/>
<polygon fill="none" stroke="#000000" points="423,-147.7 423,-166.7 474,-166.7 474,-147.7 423,-147.7"/>
<text text-anchor="start" x="438.6105" y="-153.8" font-family="Helvetica,sans-Serif" font-size="11.00" fill="#000000">0 rows</text>
<polygon fill="#ffffff" stroke="transparent" points="474,-147.7 474,-166.7 500,-166.7 500,-147.7 474,-147.7"/>
<polygon fill="none" stroke="#000000" points="474,-147.7 474,-166.7 500,-166.7 500,-147.7 474,-147.7"/>
<text text-anchor="start" x="490.8862" y="-153.8" font-family="Helvetica,sans-Serif" font-size="11.00" fill="#000000"> &#160;</text>
</a>
</g>
</g>
<!-- tickets&#45;&gt;programs -->
<g id="edge2" class="edge">
<title>tickets:w&#45;&gt;programs:e</title>
<path fill="none" stroke="#000000" d="M361.276,-218.7C349.2815,-218.7 341.8229,-218.7 325,-218.7"/>
<polygon fill="#000000" stroke="#000000" points="368,-218.7001 376,-222.3 372,-218.7 376,-218.7 376,-218.7 376,-218.7 372,-218.7 376,-215.1 368,-218.7001 368,-218.7001"/>
<ellipse fill="none" stroke="#000000" cx="364.8" cy="-218.7001" rx="3.2" ry="3.2"/>
</g>
</g>
</svg>
