<?xml version="1.0" encoding="UTF-8" standalone="no"?>
<!DOCTYPE svg PUBLIC "-//W3C//DTD SVG 1.1//EN"
 "http://www.w3.org/Graphics/SVG/1.1/DTD/svg11.dtd">
<!-- Generated by graphviz version 2.40.1 (20161225.0304)
 -->
<!-- Title: twoDegreesRelationshipsDiagram Pages: 1 -->
<svg width="516pt" height="337pt"
 viewBox="0.00 0.00 516.00 336.70" xmlns="http://www.w3.org/2000/svg" xmlns:xlink="http://www.w3.org/1999/xlink">
<g id="graph0" class="graph" transform="scale(1 1) rotate(0) translate(4 332.7)">
<title>twoDegreesRelationshipsDiagram</title>
<polygon fill="#ffffff" stroke="transparent" points="-4,4 -4,-332.7 512,-332.7 512,4 -4,4"/>
<text text-anchor="middle" x="72.4936" y="-7.3" font-family="Helvetica,sans-Serif" font-size="11.00" fill="#000000">Generated by SchemaSpy</text>
<!-- authority -->
<g id="node1" class="node">
<title>authority</title>
<g id="a_node1"><a xlink:href="../../tables/authority.html" xlink:title="authority" target="_top">
<polygon fill="#ffffff" stroke="transparent" points="395.5,-38.2 395.5,-99.2 480.5,-99.2 480.5,-38.2 395.5,-38.2"/>
<polygon fill="#f5f5f5" stroke="transparent" points="396,-75.7 396,-98.7 481,-98.7 481,-75.7 396,-75.7"/>
<polygon fill="none" stroke="#000000" points="396,-75.7 396,-98.7 481,-98.7 481,-75.7 396,-75.7"/>
<text text-anchor="start" x="400.9119" y="-84.8" font-family="Helvetica,sans-Serif" font-weight="bold" font-size="11.00" fill="#000000">authority</text>
<text text-anchor="start" x="446.5219" y="-83.8" font-family="Helvetica,sans-Serif" font-size="11.00" fill="#000000">[table]</text>
<polygon fill="none" stroke="#000000" points="396,-56.7 396,-75.7 481,-75.7 481,-56.7 396,-56.7"/>
<text text-anchor="start" x="399" y="-62.8" font-family="Helvetica,sans-Serif" font-size="11.00" fill="#000000">...</text>
<polygon fill="#ffffff" stroke="transparent" points="396,-37.7 396,-56.7 424,-56.7 424,-37.7 396,-37.7"/>
<polygon fill="none" stroke="#000000" points="396,-37.7 396,-56.7 424,-56.7 424,-37.7 396,-37.7"/>
<text text-anchor="start" x="399" y="-43.8" font-family="Helvetica,sans-Serif" font-size="11.00" fill="#000000">&lt; 2</text>
<polygon fill="#ffffff" stroke="transparent" points="424,-37.7 424,-56.7 465,-56.7 465,-37.7 424,-37.7"/>
<polygon fill="none" stroke="#000000" points="424,-37.7 424,-56.7 465,-56.7 465,-37.7 424,-37.7"/>
<text text-anchor="start" x="429.6105" y="-43.8" font-family="Helvetica,sans-Serif" font-size="11.00" fill="#000000">0 rows</text>
<polygon fill="#ffffff" stroke="transparent" points="465,-37.7 465,-56.7 481,-56.7 481,-37.7 465,-37.7"/>
<polygon fill="none" stroke="#000000" points="465,-37.7 465,-56.7 481,-56.7 481,-37.7 465,-37.7"/>
<text text-anchor="start" x="471.8862" y="-43.8" font-family="Helvetica,sans-Serif" font-size="11.00" fill="#000000"> &#160;</text>
</a>
</g>
</g>
<!-- groups -->
<g id="node2" class="node">
<title>groups</title>
<g id="a_node2"><a xlink:href="../../tables/groups.html" xlink:title="groups" target="_top">
<polygon fill="#ffffff" stroke="transparent" points="8,-38.2 8,-143.2 106,-143.2 106,-38.2 8,-38.2"/>
<polygon fill="#f5f5f5" stroke="transparent" points="8,-119.7 8,-142.7 106,-142.7 106,-119.7 8,-119.7"/>
<polygon fill="none" stroke="#000000" points="8,-119.7 8,-142.7 106,-142.7 106,-119.7 8,-119.7"/>
<text text-anchor="start" x="13" y="-128.8" font-family="Helvetica,sans-Serif" font-weight="bold" font-size="11.00" fill="#000000">groups</text>
<text text-anchor="start" x="71.0437" y="-127.8" font-family="Helvetica,sans-Serif" font-size="11.00" fill="#000000">[table]</text>
<polygon fill="none" stroke="#000000" points="8,-97.7 8,-119.7 106,-119.7 106,-97.7 8,-97.7"/>
<image xlink:href="../../images/primaryKeys.png" width="11px" height="12px" preserveAspectRatio="xMinYMin meet" x="13" y="-114.7"/>
<text text-anchor="start" x="28" y="-104.8" font-family="Helvetica,sans-Serif" font-size="11.00" fill="#000000">id</text>
<polygon fill="#ffffff" stroke="transparent" points="8,-75.7 8,-97.7 106,-97.7 106,-75.7 8,-75.7"/>
<polygon fill="none" stroke="#000000" points="8,-75.7 8,-97.7 106,-97.7 106,-75.7 8,-75.7"/>
<text text-anchor="start" x="28" y="-82.8" font-family="Helvetica,sans-Serif" font-size="11.00" fill="#000000">groupname</text>
<polygon fill="none" stroke="#000000" points="8,-56.7 8,-75.7 106,-75.7 106,-56.7 8,-56.7"/>
<text text-anchor="start" x="11" y="-62.8" font-family="Helvetica,sans-Serif" font-size="11.00" fill="#000000">...</text>
<polygon fill="#ffffff" stroke="transparent" points="8,-37.7 8,-56.7 33,-56.7 33,-37.7 8,-37.7"/>
<polygon fill="none" stroke="#000000" points="8,-37.7 8,-56.7 33,-56.7 33,-37.7 8,-37.7"/>
<text text-anchor="start" x="11" y="-43.8" font-family="Helvetica,sans-Serif" font-size="11.00" fill="#000000"> &#160;</text>
<polygon fill="#ffffff" stroke="transparent" points="33,-37.7 33,-56.7 78,-56.7 78,-37.7 33,-37.7"/>
<polygon fill="none" stroke="#000000" points="33,-37.7 33,-56.7 78,-56.7 78,-37.7 33,-37.7"/>
<text text-anchor="start" x="42.6105" y="-43.8" font-family="Helvetica,sans-Serif" font-size="11.00" fill="#000000">0 rows</text>
<polygon fill="#ffffff" stroke="transparent" points="78,-37.7 78,-56.7 106,-56.7 106,-37.7 78,-37.7"/>
<polygon fill="none" stroke="#000000" points="78,-37.7 78,-56.7 106,-56.7 106,-37.7 78,-37.7"/>
<text text-anchor="start" x="87.4053" y="-43.8" font-family="Helvetica,sans-Serif" font-size="11.00" fill="#000000">2 &gt;</text>
</a>
</g>
</g>
<!-- authority&#45;&gt;groups -->
<g id="edge1" class="edge">
<title>authority:w&#45;&gt;groups:e</title>
<path fill="none" stroke="#000000" d="M381.4925,-64.6801C365.0926,-62.1875 356.9145,-55.8351 335,-53.7 251.8382,-45.5978 221.6798,-16.2239 147,-53.7 119.7497,-67.3748 136.489,-108.7 106,-108.7"/>
<polygon fill="#000000" stroke="#000000" points="388.0197,-65.1389 395.7475,-69.2911 392.0098,-65.4195 396,-65.7 396,-65.7 396,-65.7 392.0098,-65.4195 396.2525,-62.1089 388.0197,-65.1389 388.0197,-65.1389"/>
<ellipse fill="none" stroke="#000000" cx="384.8276" cy="-64.9145" rx="3.2" ry="3.2"/>
</g>
<!-- users -->
<g id="node3" class="node">
<title>users</title>
<g id="a_node3"><a xlink:href="../../tables/users.html" xlink:title="users" target="_top">
<polygon fill="#ffffff" stroke="transparent" points="205.5,-64.2 205.5,-125.2 276.5,-125.2 276.5,-64.2 205.5,-64.2"/>
<polygon fill="#f5f5f5" stroke="transparent" points="206,-101.7 206,-124.7 277,-124.7 277,-101.7 206,-101.7"/>
<polygon fill="none" stroke="#000000" points="206,-101.7 206,-124.7 277,-124.7 277,-101.7 206,-101.7"/>
<text text-anchor="start" x="211" y="-110.8" font-family="Helvetica,sans-Serif" font-weight="bold" font-size="11.00" fill="#000000">users</text>
<text text-anchor="start" x="242.0437" y="-109.8" font-family="Helvetica,sans-Serif" font-size="11.00" fill="#000000">[table]</text>
<polygon fill="none" stroke="#000000" points="206,-82.7 206,-101.7 277,-101.7 277,-82.7 206,-82.7"/>
<text text-anchor="start" x="209" y="-88.8" font-family="Helvetica,sans-Serif" font-size="11.00" fill="#000000">...</text>
<polygon fill="#ffffff" stroke="transparent" points="206,-63.7 206,-82.7 218,-82.7 218,-63.7 206,-63.7"/>
<polygon fill="none" stroke="#000000" points="206,-63.7 206,-82.7 218,-82.7 218,-63.7 206,-63.7"/>
<text text-anchor="start" x="208.9431" y="-69.8" font-family="Helvetica,sans-Serif" font-size="11.00" fill="#000000"> &#160;</text>
<polygon fill="#ffffff" stroke="transparent" points="218,-63.7 218,-82.7 256,-82.7 256,-63.7 218,-63.7"/>
<polygon fill="none" stroke="#000000" points="218,-63.7 218,-82.7 256,-82.7 256,-63.7 218,-63.7"/>
<text text-anchor="start" x="220.8053" y="-69.8" font-family="Helvetica,sans-Serif" font-size="11.00" fill="#000000">0 rows</text>
<polygon fill="#ffffff" stroke="transparent" points="256,-63.7 256,-82.7 277,-82.7 277,-63.7 256,-63.7"/>
<polygon fill="none" stroke="#000000" points="256,-63.7 256,-82.7 277,-82.7 277,-63.7 256,-63.7"/>
<text text-anchor="start" x="258.7027" y="-69.8" font-family="Helvetica,sans-Serif" font-size="11.00" fill="#000000">2 &gt;</text>
</a>
</g>
</g>
<!-- authority&#45;&gt;users -->
<g id="edge2" class="edge">
<title>authority:w&#45;&gt;users:e</title>
<path fill="none" stroke="#000000" d="M381.5736,-66.3688C339.4127,-70.4384 325.9555,-91.7 277,-91.7"/>
<polygon fill="#000000" stroke="#000000" points="388.0086,-66.0705 396.1667,-69.2961 392.0043,-65.8853 396,-65.7 396,-65.7 396,-65.7 392.0043,-65.8853 395.8333,-62.1039 388.0086,-66.0705 388.0086,-66.0705"/>
<ellipse fill="none" stroke="#000000" cx="384.812" cy="-66.2188" rx="3.2" ry="3.2"/>
</g>
<!-- programs -->
<g id="node4" class="node">
<title>programs</title>
<g id="a_node4"><a xlink:href="../../tables/programs.html" xlink:title="programs" target="_top">
<polygon fill="#ffffff" stroke="transparent" points="155,-146.7 155,-324.7 327,-324.7 327,-146.7 155,-146.7"/>
<polygon fill="#f5f5f5" stroke="transparent" points="157,-299.7 157,-322.7 325,-322.7 325,-299.7 157,-299.7"/>
<polygon fill="none" stroke="#000000" points="157,-299.7 157,-322.7 325,-322.7 325,-299.7 157,-299.7"/>
<text text-anchor="start" x="162" y="-308.8" font-family="Helvetica,sans-Serif" font-weight="bold" font-size="11.00" fill="#000000">programs</text>
<text text-anchor="start" x="290.0437" y="-307.8" font-family="Helvetica,sans-Serif" font-size="11.00" fill="#000000">[table]</text>
<polygon fill="none" stroke="#000000" points="157,-277.7 157,-299.7 259,-299.7 259,-277.7 157,-277.7"/>
<image xlink:href="../../images/primaryKeys.png" width="11px" height="12px" preserveAspectRatio="xMinYMin meet" x="162" y="-294.7"/>
<text text-anchor="start" x="177" y="-284.8" font-family="Helvetica,sans-Serif" font-size="11.00" fill="#000000">id</text>
<polygon fill="none" stroke="#000000" points="259,-277.7 259,-299.7 325,-299.7 325,-277.7 259,-277.7"/>
<text text-anchor="start" x="262" y="-285.4" font-family="Helvetica,sans-Serif" font-size="11.00" fill="#000000">int[10]</text>
<polygon fill="none" stroke="#000000" points="157,-255.7 157,-277.7 259,-277.7 259,-255.7 157,-255.7"/>
<text text-anchor="start" x="177" y="-262.8" font-family="Helvetica,sans-Serif" font-size="11.00" fill="#000000">sell_at</text>
<polygon fill="none" stroke="#000000" points="259,-255.7 259,-277.7 325,-277.7 325,-255.7 259,-255.7"/>
<text text-anchor="start" x="261.7401" y="-263.4" font-family="Helvetica,sans-Serif" font-size="11.00" fill="#000000">datetime[19]</text>
<polygon fill="none" stroke="#000000" points="157,-233.7 157,-255.7 259,-255.7 259,-233.7 157,-233.7"/>
<text text-anchor="start" x="177" y="-240.8" font-family="Helvetica,sans-Serif" font-size="11.00" fill="#000000">starts_at</text>
<polygon fill="none" stroke="#000000" points="259,-233.7 259,-255.7 325,-255.7 325,-233.7 259,-233.7"/>
<text text-anchor="start" x="261.7401" y="-241.4" font-family="Helvetica,sans-Serif" font-size="11.00" fill="#000000">datetime[19]</text>
<polygon fill="none" stroke="#000000" points="157,-211.7 157,-233.7 259,-233.7 259,-211.7 157,-211.7"/>
<text text-anchor="start" x="177" y="-218.8" font-family="Helvetica,sans-Serif" font-size="11.00" fill="#000000">ends_at</text>
<polygon fill="none" stroke="#000000" points="259,-211.7 259,-233.7 325,-233.7 325,-211.7 259,-211.7"/>
<text text-anchor="start" x="261.7401" y="-219.4" font-family="Helvetica,sans-Serif" font-size="11.00" fill="#000000">datetime[19]</text>
<polygon fill="none" stroke="#000000" points="157,-189.7 157,-211.7 259,-211.7 259,-189.7 157,-189.7"/>
<text text-anchor="start" x="177" y="-196.8" font-family="Helvetica,sans-Serif" font-size="11.00" fill="#000000">ticket_stock</text>
<polygon fill="none" stroke="#000000" points="259,-189.7 259,-211.7 325,-211.7 325,-189.7 259,-189.7"/>
<text text-anchor="start" x="262" y="-197.4" font-family="Helvetica,sans-Serif" font-size="11.00" fill="#000000">int[10]</text>
<polygon fill="#ffffff" stroke="transparent" points="157,-167.7 157,-189.7 259,-189.7 259,-167.7 157,-167.7"/>
<polygon fill="none" stroke="#000000" points="157,-167.7 157,-189.7 259,-189.7 259,-167.7 157,-167.7"/>
<image xlink:href="../../images/foreignKeys.png" width="11px" height="12px" preserveAspectRatio="xMinYMin meet" x="162" y="-184.7"/>
<text text-anchor="start" x="177" y="-174.8" font-family="Helvetica,sans-Serif" font-size="11.00" fill="#000000">group_id</text>
<polygon fill="none" stroke="#000000" points="259,-167.7 259,-189.7 325,-189.7 325,-167.7 259,-167.7"/>
<text text-anchor="start" x="262" y="-175.4" font-family="Helvetica,sans-Serif" font-size="11.00" fill="#000000">int[10]</text>
<polygon fill="#ffffff" stroke="transparent" points="157,-148.7 157,-167.7 199,-167.7 199,-148.7 157,-148.7"/>
<polygon fill="none" stroke="#000000" points="157,-148.7 157,-167.7 199,-167.7 199,-148.7 157,-148.7"/>
<text text-anchor="start" x="160" y="-154.8" font-family="Helvetica,sans-Serif" font-size="11.00" fill="#000000">&lt; 1</text>
<polygon fill="#ffffff" stroke="transparent" points="199,-148.7 199,-167.7 259,-167.7 259,-148.7 199,-148.7"/>
<polygon fill="none" stroke="#000000" points="199,-148.7 199,-167.7 259,-167.7 259,-148.7 199,-148.7"/>
<text text-anchor="start" x="223.6105" y="-154.8" font-family="Helvetica,sans-Serif" font-size="11.00" fill="#000000">0 rows</text>
<polygon fill="#ffffff" stroke="transparent" points="259,-148.7 259,-167.7 325,-167.7 325,-148.7 259,-148.7"/>
<polygon fill="none" stroke="#000000" points="259,-148.7 259,-167.7 325,-167.7 325,-148.7 259,-148.7"/>
<text text-anchor="start" x="306.4053" y="-154.8" font-family="Helvetica,sans-Serif" font-size="11.00" fill="#000000">1 &gt;</text>
<polygon fill="none" stroke="#000000" stroke-width="2" points="156,-147.7 156,-323.7 326,-323.7 326,-147.7 156,-147.7"/>
</a>
</g>
</g>
<!-- programs&#45;&gt;groups -->
<g id="edge3" class="edge">
<title>programs:w&#45;&gt;groups:e</title>
<path fill="none" stroke="#000000" d="M143.1872,-174.1071C125.0536,-158.534 138.4781,-108.7 106,-108.7"/>
<polygon fill="#000000" stroke="#000000" points="149.4087,-176.1758 155.8641,-182.1161 153.2043,-177.4379 157,-178.7 157,-178.7 157,-178.7 153.2043,-177.4379 158.1359,-175.2839 149.4087,-176.1758 149.4087,-176.1758"/>
<ellipse fill="none" stroke="#000000" cx="146.3721" cy="-175.1661" rx="3.2" ry="3.2"/>
</g>
<!-- tickets -->
<g id="node5" class="node">
<title>tickets</title>
<g id="a_node5"><a xlink:href="../../tables/tickets.html" xlink:title="tickets" target="_top">
<polygon fill="#ffffff" stroke="transparent" points="376,-169.2 376,-296.2 500,-296.2 500,-169.2 376,-169.2"/>
<polygon fill="#f5f5f5" stroke="transparent" points="376,-272.7 376,-295.7 500,-295.7 500,-272.7 376,-272.7"/>
<polygon fill="none" stroke="#000000" points="376,-272.7 376,-295.7 500,-295.7 500,-272.7 376,-272.7"/>
<text text-anchor="start" x="381" y="-281.8" font-family="Helvetica,sans-Serif" font-weight="bold" font-size="11.00" fill="#000000">tickets</text>
<text text-anchor="start" x="465.0437" y="-280.8" font-family="Helvetica,sans-Serif" font-size="11.00" fill="#000000">[table]</text>
<polygon fill="none" stroke="#000000" points="376,-250.7 376,-272.7 500,-272.7 500,-250.7 376,-250.7"/>
<image xlink:href="../../images/primaryKeys.png" width="11px" height="12px" preserveAspectRatio="xMinYMin meet" x="381" y="-267.7"/>
<text text-anchor="start" x="396" y="-257.8" font-family="Helvetica,sans-Serif" font-size="11.00" fill="#000000">id</text>
<polygon fill="#ffffff" stroke="transparent" points="376,-228.7 376,-250.7 500,-250.7 500,-228.7 376,-228.7"/>
<polygon fill="none" stroke="#000000" points="376,-228.7 376,-250.7 500,-250.7 500,-228.7 376,-228.7"/>
<image xlink:href="../../images/foreignKeys.png" width="11px" height="12px" preserveAspectRatio="xMinYMin meet" x="381" y="-245.7"/>
<text text-anchor="start" x="396" y="-235.8" font-family="Helvetica,sans-Serif" font-size="11.00" fill="#000000">program_id</text>
<polygon fill="#ffffff" stroke="transparent" points="376,-206.7 376,-228.7 500,-228.7 500,-206.7 376,-206.7"/>
<polygon fill="none" stroke="#000000" points="376,-206.7 376,-228.7 500,-228.7 500,-206.7 376,-206.7"/>
<image xlink:href="../../images/foreignKeys.png" width="11px" height="12px" preserveAspectRatio="xMinYMin meet" x="381" y="-223.7"/>
<text text-anchor="start" x="396" y="-213.8" font-family="Helvetica,sans-Serif" font-size="11.00" fill="#000000">owner_id</text>
<polygon fill="none" stroke="#000000" points="376,-187.7 376,-206.7 500,-206.7 500,-187.7 376,-187.7"/>
<text text-anchor="start" x="379" y="-193.8" font-family="Helvetica,sans-Serif" font-size="11.00" fill="#000000">...</text>
<polygon fill="#ffffff" stroke="transparent" points="376,-168.7 376,-187.7 423,-187.7 423,-168.7 376,-168.7"/>
<polygon fill="none" stroke="#000000" points="376,-168.7 376,-187.7 423,-187.7 423,-168.7 376,-168.7"/>
<text text-anchor="start" x="379" y="-174.8" font-family="Helvetica,sans-Serif" font-size="11.00" fill="#000000">&lt; 2</text>
<polygon fill="#ffffff" stroke="transparent" points="423,-168.7 423,-187.7 474,-187.7 474,-168.7 423,-168.7"/>
<polygon fill="none" stroke="#000000" points="423,-168.7 423,-187.7 474,-187.7 474,-168.7 423,-168.7"/>
<text text-anchor="start" x="438.6105" y="-174.8" font-family="Helvetica,sans-Serif" font-size="11.00" fill="#000000">0 rows</text>
<polygon fill="#ffffff" stroke="transparent" points="474,-168.7 474,-187.7 500,-187.7 500,-168.7 474,-168.7"/>
<polygon fill="none" stroke="#000000" points="474,-168.7 474,-187.7 500,-187.7 500,-168.7 474,-168.7"/>
<text text-anchor="start" x="490.8862" y="-174.8" font-family="Helvetica,sans-Serif" font-size="11.00" fill="#000000"> &#160;</text>
</a>
</g>
</g>
<!-- tickets&#45;&gt;users -->
<g id="edge4" class="edge">
<title>tickets:w&#45;&gt;users:e</title>
<path fill="none" stroke="#000000" d="M361.865,-214.581C341.7626,-203.0897 357.1593,-162.4003 335,-135.7 314.3363,-110.8017 309.356,-91.7 277,-91.7"/>
<polygon fill="#000000" stroke="#000000" points="368.1879,-215.9762 375.2243,-221.2154 372.094,-216.8381 376,-217.7 376,-217.7 376,-217.7 372.094,-216.8381 376.7757,-214.1846 368.1879,-215.9762 368.1879,-215.9762"/>
<ellipse fill="none" stroke="#000000" cx="365.0631" cy="-215.2866" rx="3.2" ry="3.2"/>
</g>
<!-- tickets&#45;&gt;programs -->
<g id="edge5" class="edge">
<title>tickets:w&#45;&gt;programs:e</title>
<path fill="none" stroke="#000000" d="M362.3147,-244.222C347.4944,-256.3523 350.5395,-288.7 325,-288.7"/>
<polygon fill="#000000" stroke="#000000" points="368.4039,-242.21 377.1295,-243.1182 372.202,-240.955 376,-239.7 376,-239.7 376,-239.7 372.202,-240.955 374.8705,-236.2818 368.4039,-242.21 368.4039,-242.21"/>
<ellipse fill="none" stroke="#000000" cx="365.3655" cy="-243.214" rx="3.2" ry="3.2"/>
</g>
</g>
</svg>
