<?xml version="1.0" encoding="UTF-8" standalone="no"?>
<!DOCTYPE svg PUBLIC "-//W3C//DTD SVG 1.1//EN"
 "http://www.w3.org/Graphics/SVG/1.1/DTD/svg11.dtd">
<!-- Generated by graphviz version 2.40.1 (20161225.0304)
 -->
<!-- Title: oneDegreeRelationshipsDiagram Pages: 1 -->
<svg width="472pt" height="281pt"
 viewBox="0.00 0.00 472.00 281.20" xmlns="http://www.w3.org/2000/svg" xmlns:xlink="http://www.w3.org/1999/xlink">
<g id="graph0" class="graph" transform="scale(1 1) rotate(0) translate(4 277.2)">
<title>oneDegreeRelationshipsDiagram</title>
<polygon fill="#ffffff" stroke="transparent" points="-4,4 -4,-277.2 468,-277.2 468,4 -4,4"/>
<text text-anchor="middle" x="72.4936" y="-7.3" font-family="Helvetica,sans-Serif" font-size="11.00" fill="#000000">Generated by SchemaSpy</text>
<!-- tickets -->
<g id="node1" class="node">
<title>tickets</title>
<g id="a_node1"><a xlink:href="../../tables/tickets.html" xlink:title="tickets" target="_top">
<polygon fill="#ffffff" stroke="transparent" points="253,-84.7 253,-262.7 456,-262.7 456,-84.7 253,-84.7"/>
<polygon fill="#f5f5f5" stroke="transparent" points="255.5,-237.7 255.5,-260.7 454.5,-260.7 454.5,-237.7 255.5,-237.7"/>
<polygon fill="none" stroke="#000000" points="255.5,-237.7 255.5,-260.7 454.5,-260.7 454.5,-237.7 255.5,-237.7"/>
<text text-anchor="start" x="260.5" y="-246.8" font-family="Helvetica,sans-Serif" font-weight="bold" font-size="11.00" fill="#000000">tickets</text>
<text text-anchor="start" x="419.5437" y="-245.8" font-family="Helvetica,sans-Serif" font-size="11.00" fill="#000000">[table]</text>
<polygon fill="none" stroke="#000000" points="255.5,-215.7 255.5,-237.7 379.5,-237.7 379.5,-215.7 255.5,-215.7"/>
<image xlink:href="../../images/primaryKeys.png" width="11px" height="12px" preserveAspectRatio="xMinYMin meet" x="260.5" y="-232.7"/>
<text text-anchor="start" x="275.5" y="-222.8" font-family="Helvetica,sans-Serif" font-size="11.00" fill="#000000">id</text>
<polygon fill="none" stroke="#000000" points="379.5,-215.7 379.5,-237.7 454.5,-237.7 454.5,-215.7 379.5,-215.7"/>
<text text-anchor="start" x="382.5" y="-223.4" font-family="Helvetica,sans-Serif" font-size="11.00" fill="#000000">int[10]</text>
<polygon fill="none" stroke="#000000" points="255.5,-193.7 255.5,-215.7 379.5,-215.7 379.5,-193.7 255.5,-193.7"/>
<text text-anchor="start" x="275.5" y="-200.8" font-family="Helvetica,sans-Serif" font-size="11.00" fill="#000000">created_at</text>
<polygon fill="none" stroke="#000000" points="379.5,-193.7 379.5,-215.7 454.5,-215.7 454.5,-193.7 379.5,-193.7"/>
<text text-anchor="start" x="382.4666" y="-201.4" font-family="Helvetica,sans-Serif" font-size="11.00" fill="#000000">timestamp[19]</text>
<polygon fill="#ffffff" stroke="transparent" points="255.5,-171.7 255.5,-193.7 379.5,-193.7 379.5,-171.7 255.5,-171.7"/>
<polygon fill="none" stroke="#000000" points="255.5,-171.7 255.5,-193.7 379.5,-193.7 379.5,-171.7 255.5,-171.7"/>
<image xlink:href="../../images/foreignKeys.png" width="11px" height="12px" preserveAspectRatio="xMinYMin meet" x="260.5" y="-188.7"/>
<text text-anchor="start" x="275.5" y="-178.8" font-family="Helvetica,sans-Serif" font-size="11.00" fill="#000000">program_id</text>
<polygon fill="none" stroke="#000000" points="379.5,-171.7 379.5,-193.7 454.5,-193.7 454.5,-171.7 379.5,-171.7"/>
<text text-anchor="start" x="382.5" y="-179.4" font-family="Helvetica,sans-Serif" font-size="11.00" fill="#000000">int[10]</text>
<polygon fill="#ffffff" stroke="transparent" points="255.5,-149.7 255.5,-171.7 379.5,-171.7 379.5,-149.7 255.5,-149.7"/>
<polygon fill="none" stroke="#000000" points="255.5,-149.7 255.5,-171.7 379.5,-171.7 379.5,-149.7 255.5,-149.7"/>
<image xlink:href="../../images/foreignKeys.png" width="11px" height="12px" preserveAspectRatio="xMinYMin meet" x="260.5" y="-166.7"/>
<text text-anchor="start" x="275.5" y="-156.8" font-family="Helvetica,sans-Serif" font-size="11.00" fill="#000000">owner_id</text>
<polygon fill="none" stroke="#000000" points="379.5,-149.7 379.5,-171.7 454.5,-171.7 454.5,-149.7 379.5,-149.7"/>
<text text-anchor="start" x="382.5" y="-157.4" font-family="Helvetica,sans-Serif" font-size="11.00" fill="#000000">int[10]</text>
<polygon fill="none" stroke="#000000" points="255.5,-127.7 255.5,-149.7 379.5,-149.7 379.5,-127.7 255.5,-127.7"/>
<text text-anchor="start" x="275.5" y="-134.8" font-family="Helvetica,sans-Serif" font-size="11.00" fill="#000000">is_family_ticket</text>
<polygon fill="none" stroke="#000000" points="379.5,-127.7 379.5,-149.7 454.5,-149.7 454.5,-127.7 379.5,-127.7"/>
<text text-anchor="start" x="382.5" y="-135.4" font-family="Helvetica,sans-Serif" font-size="11.00" fill="#000000">bit[1]</text>
<polygon fill="none" stroke="#000000" points="255.5,-105.7 255.5,-127.7 379.5,-127.7 379.5,-105.7 255.5,-105.7"/>
<text text-anchor="start" x="275.5" y="-112.8" font-family="Helvetica,sans-Serif" font-size="11.00" fill="#000000">is_used</text>
<polygon fill="none" stroke="#000000" points="379.5,-105.7 379.5,-127.7 454.5,-127.7 454.5,-105.7 379.5,-105.7"/>
<text text-anchor="start" x="382.5" y="-113.4" font-family="Helvetica,sans-Serif" font-size="11.00" fill="#000000">bit[1]</text>
<polygon fill="#ffffff" stroke="transparent" points="255.5,-86.7 255.5,-105.7 308.5,-105.7 308.5,-86.7 255.5,-86.7"/>
<polygon fill="none" stroke="#000000" points="255.5,-86.7 255.5,-105.7 308.5,-105.7 308.5,-86.7 255.5,-86.7"/>
<text text-anchor="start" x="258.5" y="-92.8" font-family="Helvetica,sans-Serif" font-size="11.00" fill="#000000">&lt; 2</text>
<polygon fill="#ffffff" stroke="transparent" points="308.5,-86.7 308.5,-105.7 379.5,-105.7 379.5,-86.7 308.5,-86.7"/>
<polygon fill="none" stroke="#000000" points="308.5,-86.7 308.5,-105.7 379.5,-105.7 379.5,-86.7 308.5,-86.7"/>
<text text-anchor="start" x="344.1105" y="-92.8" font-family="Helvetica,sans-Serif" font-size="11.00" fill="#000000">0 rows</text>
<polygon fill="#ffffff" stroke="transparent" points="379.5,-86.7 379.5,-105.7 454.5,-105.7 454.5,-86.7 379.5,-86.7"/>
<polygon fill="none" stroke="#000000" points="379.5,-86.7 379.5,-105.7 454.5,-105.7 454.5,-86.7 379.5,-86.7"/>
<text text-anchor="start" x="435.9053" y="-92.8" font-family="Helvetica,sans-Serif" font-size="11.00" fill="#000000">0 &gt;</text>
<polygon fill="none" stroke="#000000" stroke-width="2" points="254,-85.7 254,-261.7 455,-261.7 455,-85.7 254,-85.7"/>
</a>
</g>
</g>
<!-- users -->
<g id="node2" class="node">
<title>users</title>
<g id="a_node2"><a xlink:href="../../tables/users.html" xlink:title="users" target="_top">
<polygon fill="#ffffff" stroke="transparent" points="8,-38.2 8,-143.2 204,-143.2 204,-38.2 8,-38.2"/>
<polygon fill="#f5f5f5" stroke="transparent" points="8,-119.7 8,-142.7 204,-142.7 204,-119.7 8,-119.7"/>
<polygon fill="none" stroke="#000000" points="8,-119.7 8,-142.7 204,-142.7 204,-119.7 8,-119.7"/>
<text text-anchor="start" x="13" y="-128.8" font-family="Helvetica,sans-Serif" font-weight="bold" font-size="11.00" fill="#000000">users</text>
<text text-anchor="start" x="169.0437" y="-127.8" font-family="Helvetica,sans-Serif" font-size="11.00" fill="#000000">[table]</text>
<polygon fill="none" stroke="#000000" points="8,-97.7 8,-119.7 204,-119.7 204,-97.7 8,-97.7"/>
<image xlink:href="../../images/primaryKeys.png" width="11px" height="12px" preserveAspectRatio="xMinYMin meet" x="13" y="-114.7"/>
<text text-anchor="start" x="28" y="-104.8" font-family="Helvetica,sans-Serif" font-size="11.00" fill="#000000">id</text>
<polygon fill="#ffffff" stroke="transparent" points="8,-75.7 8,-97.7 204,-97.7 204,-75.7 8,-75.7"/>
<polygon fill="none" stroke="#000000" points="8,-75.7 8,-97.7 204,-97.7 204,-75.7 8,-75.7"/>
<text text-anchor="start" x="28" y="-82.8" font-family="Helvetica,sans-Serif" font-size="11.00" fill="#000000">username</text>
<polygon fill="none" stroke="#000000" points="8,-56.7 8,-75.7 204,-75.7 204,-56.7 8,-56.7"/>
<text text-anchor="start" x="11" y="-62.8" font-family="Helvetica,sans-Serif" font-size="11.00" fill="#000000">...</text>
<polygon fill="#ffffff" stroke="transparent" points="8,-37.7 8,-56.7 82,-56.7 82,-37.7 8,-37.7"/>
<polygon fill="none" stroke="#000000" points="8,-37.7 8,-56.7 82,-56.7 82,-37.7 8,-37.7"/>
<text text-anchor="start" x="11" y="-43.8" font-family="Helvetica,sans-Serif" font-size="11.00" fill="#000000"> &#160;</text>
<polygon fill="#ffffff" stroke="transparent" points="82,-37.7 82,-56.7 151,-56.7 151,-37.7 82,-37.7"/>
<polygon fill="none" stroke="#000000" points="82,-37.7 82,-56.7 151,-56.7 151,-37.7 82,-37.7"/>
<text text-anchor="start" x="115.6105" y="-43.8" font-family="Helvetica,sans-Serif" font-size="11.00" fill="#000000">0 rows</text>
<polygon fill="#ffffff" stroke="transparent" points="151,-37.7 151,-56.7 204,-56.7 204,-37.7 151,-37.7"/>
<polygon fill="none" stroke="#000000" points="151,-37.7 151,-56.7 204,-56.7 204,-37.7 151,-37.7"/>
<text text-anchor="start" x="185.4053" y="-43.8" font-family="Helvetica,sans-Serif" font-size="11.00" fill="#000000">2 &gt;</text>
</a>
</g>
</g>
<!-- tickets&#45;&gt;users -->
<g id="edge1" class="edge">
<title>tickets:w&#45;&gt;users:e</title>
<path fill="none" stroke="#000000" d="M241.4561,-155.9012C226.4356,-143.0281 230.4284,-108.7 204,-108.7"/>
<polygon fill="#000000" stroke="#000000" points="247.9297,-158.1132 254.3359,-164.1066 251.7149,-159.4066 255.5,-160.7 255.5,-160.7 255.5,-160.7 251.7149,-159.4066 256.6641,-157.2934 247.9297,-158.1132 247.9297,-158.1132"/>
<ellipse fill="none" stroke="#000000" cx="244.9016" cy="-157.0785" rx="3.2" ry="3.2"/>
</g>
<!-- programs -->
<g id="node3" class="node">
<title>programs</title>
<g id="a_node3"><a xlink:href="../../tables/programs.html" xlink:title="programs" target="_top">
<polygon fill="#ffffff" stroke="transparent" points="55,-164.2 55,-269.2 157,-269.2 157,-164.2 55,-164.2"/>
<polygon fill="#f5f5f5" stroke="transparent" points="55,-245.7 55,-268.7 157,-268.7 157,-245.7 55,-245.7"/>
<polygon fill="none" stroke="#000000" points="55,-245.7 55,-268.7 157,-268.7 157,-245.7 55,-245.7"/>
<text text-anchor="start" x="60" y="-254.8" font-family="Helvetica,sans-Serif" font-weight="bold" font-size="11.00" fill="#000000">programs</text>
<text text-anchor="start" x="122.0437" y="-253.8" font-family="Helvetica,sans-Serif" font-size="11.00" fill="#000000">[table]</text>
<polygon fill="none" stroke="#000000" points="55,-223.7 55,-245.7 157,-245.7 157,-223.7 55,-223.7"/>
<image xlink:href="../../images/primaryKeys.png" width="11px" height="12px" preserveAspectRatio="xMinYMin meet" x="60" y="-240.7"/>
<text text-anchor="start" x="75" y="-230.8" font-family="Helvetica,sans-Serif" font-size="11.00" fill="#000000">id</text>
<polygon fill="#ffffff" stroke="transparent" points="55,-201.7 55,-223.7 157,-223.7 157,-201.7 55,-201.7"/>
<polygon fill="none" stroke="#000000" points="55,-201.7 55,-223.7 157,-223.7 157,-201.7 55,-201.7"/>
<image xlink:href="../../images/foreignKeys.png" width="11px" height="12px" preserveAspectRatio="xMinYMin meet" x="60" y="-218.7"/>
<text text-anchor="start" x="75" y="-208.8" font-family="Helvetica,sans-Serif" font-size="11.00" fill="#000000">group_id</text>
<polygon fill="none" stroke="#000000" points="55,-182.7 55,-201.7 157,-201.7 157,-182.7 55,-182.7"/>
<text text-anchor="start" x="58" y="-188.8" font-family="Helvetica,sans-Serif" font-size="11.00" fill="#000000">...</text>
<polygon fill="#ffffff" stroke="transparent" points="55,-163.7 55,-182.7 87,-182.7 87,-163.7 55,-163.7"/>
<polygon fill="none" stroke="#000000" points="55,-163.7 55,-182.7 87,-182.7 87,-163.7 55,-163.7"/>
<text text-anchor="start" x="58" y="-169.8" font-family="Helvetica,sans-Serif" font-size="11.00" fill="#000000">&lt; 1</text>
<polygon fill="#ffffff" stroke="transparent" points="87,-163.7 87,-182.7 130,-182.7 130,-163.7 87,-163.7"/>
<polygon fill="none" stroke="#000000" points="87,-163.7 87,-182.7 130,-182.7 130,-163.7 87,-163.7"/>
<text text-anchor="start" x="94.6105" y="-169.8" font-family="Helvetica,sans-Serif" font-size="11.00" fill="#000000">0 rows</text>
<polygon fill="#ffffff" stroke="transparent" points="130,-163.7 130,-182.7 157,-182.7 157,-163.7 130,-163.7"/>
<polygon fill="none" stroke="#000000" points="130,-163.7 130,-182.7 157,-182.7 157,-163.7 130,-163.7"/>
<text text-anchor="start" x="138.4053" y="-169.8" font-family="Helvetica,sans-Serif" font-size="11.00" fill="#000000">1 &gt;</text>
</a>
</g>
</g>
<!-- tickets&#45;&gt;programs -->
<g id="edge2" class="edge">
<title>tickets:w&#45;&gt;programs:e</title>
<path fill="none" stroke="#000000" d="M240.9206,-184.4301C205.509,-193.4529 201.0892,-234.7 157,-234.7"/>
<polygon fill="#000000" stroke="#000000" points="247.5557,-183.6428 255.9243,-186.2749 251.5279,-183.1714 255.5,-182.7 255.5,-182.7 255.5,-182.7 251.5279,-183.1714 255.0757,-179.1251 247.5557,-183.6428 247.5557,-183.6428"/>
<ellipse fill="none" stroke="#000000" cx="244.378" cy="-184.0199" rx="3.2" ry="3.2"/>
</g>
</g>
</svg>
