<?xml version="1.0" encoding="UTF-8" standalone="no"?>
<!DOCTYPE svg PUBLIC "-//W3C//DTD SVG 1.1//EN"
 "http://www.w3.org/Graphics/SVG/1.1/DTD/svg11.dtd">
<!-- Generated by graphviz version 2.40.1 (20161225.0304)
 -->
<!-- Title: twoDegreesRelationshipsDiagram Pages: 1 -->
<svg width="597pt" height="349pt"
 viewBox="0.00 0.00 597.00 348.61" xmlns="http://www.w3.org/2000/svg" xmlns:xlink="http://www.w3.org/1999/xlink">
<g id="graph0" class="graph" transform="scale(1 1) rotate(0) translate(4 344.6099)">
<title>twoDegreesRelationshipsDiagram</title>
<polygon fill="#ffffff" stroke="transparent" points="-4,4 -4,-344.6099 593,-344.6099 593,4 -4,4"/>
<text text-anchor="middle" x="72.4936" y="-7.3" font-family="Helvetica,sans-Serif" font-size="11.00" fill="#000000">Generated by SchemaSpy</text>
<!-- authority -->
<g id="node1" class="node">
<title>authority</title>
<g id="a_node1"><a xlink:href="../../tables/authority.html" xlink:title="authority" target="_top">
<polygon fill="#ffffff" stroke="transparent" points="437,-42.1099 437,-103.1099 522,-103.1099 522,-42.1099 437,-42.1099"/>
<polygon fill="#f5f5f5" stroke="transparent" points="437.5,-79.6099 437.5,-102.6099 522.5,-102.6099 522.5,-79.6099 437.5,-79.6099"/>
<polygon fill="none" stroke="#000000" points="437.5,-79.6099 437.5,-102.6099 522.5,-102.6099 522.5,-79.6099 437.5,-79.6099"/>
<text text-anchor="start" x="442.4119" y="-88.7099" font-family="Helvetica,sans-Serif" font-weight="bold" font-size="11.00" fill="#000000">authority</text>
<text text-anchor="start" x="488.0219" y="-87.7099" font-family="Helvetica,sans-Serif" font-size="11.00" fill="#000000">[table]</text>
<polygon fill="none" stroke="#000000" points="437.5,-60.6099 437.5,-79.6099 522.5,-79.6099 522.5,-60.6099 437.5,-60.6099"/>
<text text-anchor="start" x="440.5" y="-66.7099" font-family="Helvetica,sans-Serif" font-size="11.00" fill="#000000">...</text>
<polygon fill="#ffffff" stroke="transparent" points="437.5,-41.6099 437.5,-60.6099 465.5,-60.6099 465.5,-41.6099 437.5,-41.6099"/>
<polygon fill="none" stroke="#000000" points="437.5,-41.6099 437.5,-60.6099 465.5,-60.6099 465.5,-41.6099 437.5,-41.6099"/>
<text text-anchor="start" x="440.5" y="-47.7099" font-family="Helvetica,sans-Serif" font-size="11.00" fill="#000000">&lt; 2</text>
<polygon fill="#ffffff" stroke="transparent" points="465.5,-41.6099 465.5,-60.6099 506.5,-60.6099 506.5,-41.6099 465.5,-41.6099"/>
<polygon fill="none" stroke="#000000" points="465.5,-41.6099 465.5,-60.6099 506.5,-60.6099 506.5,-41.6099 465.5,-41.6099"/>
<text text-anchor="start" x="471.1105" y="-47.7099" font-family="Helvetica,sans-Serif" font-size="11.00" fill="#000000">0 rows</text>
<polygon fill="#ffffff" stroke="transparent" points="506.5,-41.6099 506.5,-60.6099 522.5,-60.6099 522.5,-41.6099 506.5,-41.6099"/>
<polygon fill="none" stroke="#000000" points="506.5,-41.6099 506.5,-60.6099 522.5,-60.6099 522.5,-41.6099 506.5,-41.6099"/>
<text text-anchor="start" x="513.3862" y="-47.7099" font-family="Helvetica,sans-Serif" font-size="11.00" fill="#000000"> &#160;</text>
</a>
</g>
</g>
<!-- groups -->
<g id="node2" class="node">
<title>groups</title>
<g id="a_node2"><a xlink:href="../../tables/groups.html" xlink:title="groups" target="_top">
<polygon fill="#ffffff" stroke="transparent" points="8,-124.1099 8,-185.1099 84,-185.1099 84,-124.1099 8,-124.1099"/>
<polygon fill="#f5f5f5" stroke="transparent" points="8,-161.6099 8,-184.6099 84,-184.6099 84,-161.6099 8,-161.6099"/>
<polygon fill="none" stroke="#000000" points="8,-161.6099 8,-184.6099 84,-184.6099 84,-161.6099 8,-161.6099"/>
<text text-anchor="start" x="12.6893" y="-170.7099" font-family="Helvetica,sans-Serif" font-weight="bold" font-size="11.00" fill="#000000">groups</text>
<text text-anchor="start" x="49.5219" y="-169.7099" font-family="Helvetica,sans-Serif" font-size="11.00" fill="#000000">[table]</text>
<polygon fill="none" stroke="#000000" points="8,-142.6099 8,-161.6099 84,-161.6099 84,-142.6099 8,-142.6099"/>
<text text-anchor="start" x="11" y="-148.7099" font-family="Helvetica,sans-Serif" font-size="11.00" fill="#000000">...</text>
<polygon fill="#ffffff" stroke="transparent" points="8,-123.6099 8,-142.6099 22,-142.6099 22,-123.6099 8,-123.6099"/>
<polygon fill="none" stroke="#000000" points="8,-123.6099 8,-142.6099 22,-142.6099 22,-123.6099 8,-123.6099"/>
<text text-anchor="start" x="11" y="-129.7099" font-family="Helvetica,sans-Serif" font-size="11.00" fill="#000000"> &#160;</text>
<polygon fill="#ffffff" stroke="transparent" points="22,-123.6099 22,-142.6099 61,-142.6099 61,-123.6099 22,-123.6099"/>
<polygon fill="none" stroke="#000000" points="22,-123.6099 22,-142.6099 61,-142.6099 61,-123.6099 22,-123.6099"/>
<text text-anchor="start" x="25.6105" y="-129.7099" font-family="Helvetica,sans-Serif" font-size="11.00" fill="#000000">0 rows</text>
<polygon fill="#ffffff" stroke="transparent" points="61,-123.6099 61,-142.6099 84,-142.6099 84,-123.6099 61,-123.6099"/>
<polygon fill="none" stroke="#000000" points="61,-123.6099 61,-142.6099 84,-142.6099 84,-123.6099 61,-123.6099"/>
<text text-anchor="start" x="65.4053" y="-129.7099" font-family="Helvetica,sans-Serif" font-size="11.00" fill="#000000">2 &gt;</text>
</a>
</g>
</g>
<!-- authority&#45;&gt;groups -->
<g id="edge1" class="edge">
<title>authority:w&#45;&gt;groups:e</title>
<path fill="none" stroke="#000000" d="M422.7619,-69.3196C294.4791,-64.2524 238.3791,4.5809 125,-66.6099 89.4789,-88.9137 125.9429,-151.6099 84,-151.6099"/>
<polygon fill="#000000" stroke="#000000" points="429.5016,-69.4523 437.4291,-73.2092 433.5008,-69.5311 437.5,-69.6099 437.5,-69.6099 437.5,-69.6099 433.5008,-69.5311 437.5709,-66.0106 429.5016,-69.4523 429.5016,-69.4523"/>
<ellipse fill="none" stroke="#000000" cx="426.3022" cy="-69.3893" rx="3.2" ry="3.2"/>
</g>
<!-- users -->
<g id="node3" class="node">
<title>users</title>
<g id="a_node3"><a xlink:href="../../tables/users.html" xlink:title="users" target="_top">
<polygon fill="#ffffff" stroke="transparent" points="133,-77.1099 133,-182.1099 329,-182.1099 329,-77.1099 133,-77.1099"/>
<polygon fill="#f5f5f5" stroke="transparent" points="133,-158.6099 133,-181.6099 329,-181.6099 329,-158.6099 133,-158.6099"/>
<polygon fill="none" stroke="#000000" points="133,-158.6099 133,-181.6099 329,-181.6099 329,-158.6099 133,-158.6099"/>
<text text-anchor="start" x="138" y="-167.7099" font-family="Helvetica,sans-Serif" font-weight="bold" font-size="11.00" fill="#000000">users</text>
<text text-anchor="start" x="294.0437" y="-166.7099" font-family="Helvetica,sans-Serif" font-size="11.00" fill="#000000">[table]</text>
<polygon fill="none" stroke="#000000" points="133,-136.6099 133,-158.6099 329,-158.6099 329,-136.6099 133,-136.6099"/>
<image xlink:href="../../images/primaryKeys.png" width="11px" height="12px" preserveAspectRatio="xMinYMin meet" x="138" y="-153.61"/>
<text text-anchor="start" x="153" y="-143.7099" font-family="Helvetica,sans-Serif" font-size="11.00" fill="#000000">id</text>
<polygon fill="#ffffff" stroke="transparent" points="133,-114.6099 133,-136.6099 329,-136.6099 329,-114.6099 133,-114.6099"/>
<polygon fill="none" stroke="#000000" points="133,-114.6099 133,-136.6099 329,-136.6099 329,-114.6099 133,-114.6099"/>
<text text-anchor="start" x="153" y="-121.7099" font-family="Helvetica,sans-Serif" font-size="11.00" fill="#000000">username</text>
<polygon fill="none" stroke="#000000" points="133,-95.6099 133,-114.6099 329,-114.6099 329,-95.6099 133,-95.6099"/>
<text text-anchor="start" x="136" y="-101.7099" font-family="Helvetica,sans-Serif" font-size="11.00" fill="#000000">...</text>
<polygon fill="#ffffff" stroke="transparent" points="133,-76.6099 133,-95.6099 207,-95.6099 207,-76.6099 133,-76.6099"/>
<polygon fill="none" stroke="#000000" points="133,-76.6099 133,-95.6099 207,-95.6099 207,-76.6099 133,-76.6099"/>
<text text-anchor="start" x="136" y="-82.7099" font-family="Helvetica,sans-Serif" font-size="11.00" fill="#000000"> &#160;</text>
<polygon fill="#ffffff" stroke="transparent" points="207,-76.6099 207,-95.6099 276,-95.6099 276,-76.6099 207,-76.6099"/>
<polygon fill="none" stroke="#000000" points="207,-76.6099 207,-95.6099 276,-95.6099 276,-76.6099 207,-76.6099"/>
<text text-anchor="start" x="240.6105" y="-82.7099" font-family="Helvetica,sans-Serif" font-size="11.00" fill="#000000">0 rows</text>
<polygon fill="#ffffff" stroke="transparent" points="276,-76.6099 276,-95.6099 329,-95.6099 329,-76.6099 276,-76.6099"/>
<polygon fill="none" stroke="#000000" points="276,-76.6099 276,-95.6099 329,-95.6099 329,-76.6099 276,-76.6099"/>
<text text-anchor="start" x="310.4053" y="-82.7099" font-family="Helvetica,sans-Serif" font-size="11.00" fill="#000000">2 &gt;</text>
</a>
</g>
</g>
<!-- authority&#45;&gt;users -->
<g id="edge2" class="edge">
<title>authority:w&#45;&gt;users:e</title>
<path fill="none" stroke="#000000" d="M423.0786,-71.3856C379.3949,-82.9959 383.0541,-147.6099 329,-147.6099"/>
<polygon fill="#000000" stroke="#000000" points="429.56,-70.5876 437.94,-73.1829 433.53,-70.0988 437.5,-69.6099 437.5,-69.6099 437.5,-69.6099 433.53,-70.0988 437.06,-66.0369 429.56,-70.5876 429.56,-70.5876"/>
<ellipse fill="none" stroke="#000000" cx="426.3839" cy="-70.9787" rx="3.2" ry="3.2"/>
</g>
<!-- programs -->
<g id="node4" class="node">
<title>programs</title>
<g id="a_node4"><a xlink:href="../../tables/programs.html" xlink:title="programs" target="_top">
<polygon fill="#ffffff" stroke="transparent" points="180,-203.1099 180,-308.1099 282,-308.1099 282,-203.1099 180,-203.1099"/>
<polygon fill="#f5f5f5" stroke="transparent" points="180,-284.6099 180,-307.6099 282,-307.6099 282,-284.6099 180,-284.6099"/>
<polygon fill="none" stroke="#000000" points="180,-284.6099 180,-307.6099 282,-307.6099 282,-284.6099 180,-284.6099"/>
<text text-anchor="start" x="185" y="-293.7099" font-family="Helvetica,sans-Serif" font-weight="bold" font-size="11.00" fill="#000000">programs</text>
<text text-anchor="start" x="247.0437" y="-292.7099" font-family="Helvetica,sans-Serif" font-size="11.00" fill="#000000">[table]</text>
<polygon fill="none" stroke="#000000" points="180,-262.6099 180,-284.6099 282,-284.6099 282,-262.6099 180,-262.6099"/>
<image xlink:href="../../images/primaryKeys.png" width="11px" height="12px" preserveAspectRatio="xMinYMin meet" x="185" y="-279.61"/>
<text text-anchor="start" x="200" y="-269.7099" font-family="Helvetica,sans-Serif" font-size="11.00" fill="#000000">id</text>
<polygon fill="#ffffff" stroke="transparent" points="180,-240.6099 180,-262.6099 282,-262.6099 282,-240.6099 180,-240.6099"/>
<polygon fill="none" stroke="#000000" points="180,-240.6099 180,-262.6099 282,-262.6099 282,-240.6099 180,-240.6099"/>
<image xlink:href="../../images/foreignKeys.png" width="11px" height="12px" preserveAspectRatio="xMinYMin meet" x="185" y="-257.61"/>
<text text-anchor="start" x="200" y="-247.7099" font-family="Helvetica,sans-Serif" font-size="11.00" fill="#000000">group_id</text>
<polygon fill="none" stroke="#000000" points="180,-221.6099 180,-240.6099 282,-240.6099 282,-221.6099 180,-221.6099"/>
<text text-anchor="start" x="183" y="-227.7099" font-family="Helvetica,sans-Serif" font-size="11.00" fill="#000000">...</text>
<polygon fill="#ffffff" stroke="transparent" points="180,-202.6099 180,-221.6099 212,-221.6099 212,-202.6099 180,-202.6099"/>
<polygon fill="none" stroke="#000000" points="180,-202.6099 180,-221.6099 212,-221.6099 212,-202.6099 180,-202.6099"/>
<text text-anchor="start" x="183" y="-208.7099" font-family="Helvetica,sans-Serif" font-size="11.00" fill="#000000">&lt; 1</text>
<polygon fill="#ffffff" stroke="transparent" points="212,-202.6099 212,-221.6099 255,-221.6099 255,-202.6099 212,-202.6099"/>
<polygon fill="none" stroke="#000000" points="212,-202.6099 212,-221.6099 255,-221.6099 255,-202.6099 212,-202.6099"/>
<text text-anchor="start" x="219.6105" y="-208.7099" font-family="Helvetica,sans-Serif" font-size="11.00" fill="#000000">0 rows</text>
<polygon fill="#ffffff" stroke="transparent" points="255,-202.6099 255,-221.6099 282,-221.6099 282,-202.6099 255,-202.6099"/>
<polygon fill="none" stroke="#000000" points="255,-202.6099 255,-221.6099 282,-221.6099 282,-202.6099 255,-202.6099"/>
<text text-anchor="start" x="263.4053" y="-208.7099" font-family="Helvetica,sans-Serif" font-size="11.00" fill="#000000">1 &gt;</text>
</a>
</g>
</g>
<!-- programs&#45;&gt;groups -->
<g id="edge3" class="edge">
<title>programs:w&#45;&gt;groups:e</title>
<path fill="none" stroke="#000000" d="M167.8029,-243.4265C143.216,-219.5436 96.695,-151.6099 84,-151.6099"/>
<polygon fill="#000000" stroke="#000000" points="173.3567,-247.1527 177.9943,-254.5994 176.6783,-249.3813 180,-251.6099 180,-251.6099 180,-251.6099 176.6783,-249.3813 182.0057,-248.6204 173.3567,-247.1527 173.3567,-247.1527"/>
<ellipse fill="none" stroke="#000000" cx="170.6994" cy="-245.3698" rx="3.2" ry="3.2"/>
</g>
<!-- tickets -->
<g id="node5" class="node">
<title>tickets</title>
<g id="a_node5"><a xlink:href="../../tables/tickets.html" xlink:title="tickets" target="_top">
<polygon fill="#ffffff" stroke="transparent" points="378,-158.6099 378,-336.6099 581,-336.6099 581,-158.6099 378,-158.6099"/>
<polygon fill="#f5f5f5" stroke="transparent" points="380.5,-311.6099 380.5,-334.6099 579.5,-334.6099 579.5,-311.6099 380.5,-311.6099"/>
<polygon fill="none" stroke="#000000" points="380.5,-311.6099 380.5,-334.6099 579.5,-334.6099 579.5,-311.6099 380.5,-311.6099"/>
<text text-anchor="start" x="385.5" y="-320.7099" font-family="Helvetica,sans-Serif" font-weight="bold" font-size="11.00" fill="#000000">tickets</text>
<text text-anchor="start" x="544.5437" y="-319.7099" font-family="Helvetica,sans-Serif" font-size="11.00" fill="#000000">[table]</text>
<polygon fill="none" stroke="#000000" points="380.5,-289.6099 380.5,-311.6099 504.5,-311.6099 504.5,-289.6099 380.5,-289.6099"/>
<image xlink:href="../../images/primaryKeys.png" width="11px" height="12px" preserveAspectRatio="xMinYMin meet" x="385.5" y="-306.61"/>
<text text-anchor="start" x="400.5" y="-296.7099" font-family="Helvetica,sans-Serif" font-size="11.00" fill="#000000">id</text>
<polygon fill="none" stroke="#000000" points="504.5,-289.6099 504.5,-311.6099 579.5,-311.6099 579.5,-289.6099 504.5,-289.6099"/>
<text text-anchor="start" x="507.5" y="-297.3099" font-family="Helvetica,sans-Serif" font-size="11.00" fill="#000000">int[10]</text>
<polygon fill="none" stroke="#000000" points="380.5,-267.6099 380.5,-289.6099 504.5,-289.6099 504.5,-267.6099 380.5,-267.6099"/>
<text text-anchor="start" x="400.5" y="-274.7099" font-family="Helvetica,sans-Serif" font-size="11.00" fill="#000000">created_at</text>
<polygon fill="none" stroke="#000000" points="504.5,-267.6099 504.5,-289.6099 579.5,-289.6099 579.5,-267.6099 504.5,-267.6099"/>
<text text-anchor="start" x="507.4666" y="-275.3099" font-family="Helvetica,sans-Serif" font-size="11.00" fill="#000000">timestamp[19]</text>
<polygon fill="#ffffff" stroke="transparent" points="380.5,-245.6099 380.5,-267.6099 504.5,-267.6099 504.5,-245.6099 380.5,-245.6099"/>
<polygon fill="none" stroke="#000000" points="380.5,-245.6099 380.5,-267.6099 504.5,-267.6099 504.5,-245.6099 380.5,-245.6099"/>
<image xlink:href="../../images/foreignKeys.png" width="11px" height="12px" preserveAspectRatio="xMinYMin meet" x="385.5" y="-262.61"/>
<text text-anchor="start" x="400.5" y="-252.7099" font-family="Helvetica,sans-Serif" font-size="11.00" fill="#000000">program_id</text>
<polygon fill="none" stroke="#000000" points="504.5,-245.6099 504.5,-267.6099 579.5,-267.6099 579.5,-245.6099 504.5,-245.6099"/>
<text text-anchor="start" x="507.5" y="-253.3099" font-family="Helvetica,sans-Serif" font-size="11.00" fill="#000000">int[10]</text>
<polygon fill="#ffffff" stroke="transparent" points="380.5,-223.6099 380.5,-245.6099 504.5,-245.6099 504.5,-223.6099 380.5,-223.6099"/>
<polygon fill="none" stroke="#000000" points="380.5,-223.6099 380.5,-245.6099 504.5,-245.6099 504.5,-223.6099 380.5,-223.6099"/>
<image xlink:href="../../images/foreignKeys.png" width="11px" height="12px" preserveAspectRatio="xMinYMin meet" x="385.5" y="-240.61"/>
<text text-anchor="start" x="400.5" y="-230.7099" font-family="Helvetica,sans-Serif" font-size="11.00" fill="#000000">owner_id</text>
<polygon fill="none" stroke="#000000" points="504.5,-223.6099 504.5,-245.6099 579.5,-245.6099 579.5,-223.6099 504.5,-223.6099"/>
<text text-anchor="start" x="507.5" y="-231.3099" font-family="Helvetica,sans-Serif" font-size="11.00" fill="#000000">int[10]</text>
<polygon fill="none" stroke="#000000" points="380.5,-201.6099 380.5,-223.6099 504.5,-223.6099 504.5,-201.6099 380.5,-201.6099"/>
<text text-anchor="start" x="400.5" y="-208.7099" font-family="Helvetica,sans-Serif" font-size="11.00" fill="#000000">is_family_ticket</text>
<polygon fill="none" stroke="#000000" points="504.5,-201.6099 504.5,-223.6099 579.5,-223.6099 579.5,-201.6099 504.5,-201.6099"/>
<text text-anchor="start" x="507.5" y="-209.3099" font-family="Helvetica,sans-Serif" font-size="11.00" fill="#000000">bit[1]</text>
<polygon fill="none" stroke="#000000" points="380.5,-179.6099 380.5,-201.6099 504.5,-201.6099 504.5,-179.6099 380.5,-179.6099"/>
<text text-anchor="start" x="400.5" y="-186.7099" font-family="Helvetica,sans-Serif" font-size="11.00" fill="#000000">is_used</text>
<polygon fill="none" stroke="#000000" points="504.5,-179.6099 504.5,-201.6099 579.5,-201.6099 579.5,-179.6099 504.5,-179.6099"/>
<text text-anchor="start" x="507.5" y="-187.3099" font-family="Helvetica,sans-Serif" font-size="11.00" fill="#000000">bit[1]</text>
<polygon fill="#ffffff" stroke="transparent" points="380.5,-160.6099 380.5,-179.6099 433.5,-179.6099 433.5,-160.6099 380.5,-160.6099"/>
<polygon fill="none" stroke="#000000" points="380.5,-160.6099 380.5,-179.6099 433.5,-179.6099 433.5,-160.6099 380.5,-160.6099"/>
<text text-anchor="start" x="383.5" y="-166.7099" font-family="Helvetica,sans-Serif" font-size="11.00" fill="#000000">&lt; 2</text>
<polygon fill="#ffffff" stroke="transparent" points="433.5,-160.6099 433.5,-179.6099 504.5,-179.6099 504.5,-160.6099 433.5,-160.6099"/>
<polygon fill="none" stroke="#000000" points="433.5,-160.6099 433.5,-179.6099 504.5,-179.6099 504.5,-160.6099 433.5,-160.6099"/>
<text text-anchor="start" x="469.1105" y="-166.7099" font-family="Helvetica,sans-Serif" font-size="11.00" fill="#000000">0 rows</text>
<polygon fill="#ffffff" stroke="transparent" points="504.5,-160.6099 504.5,-179.6099 579.5,-179.6099 579.5,-160.6099 504.5,-160.6099"/>
<polygon fill="none" stroke="#000000" points="504.5,-160.6099 504.5,-179.6099 579.5,-179.6099 579.5,-160.6099 504.5,-160.6099"/>
<text text-anchor="start" x="560.9053" y="-166.7099" font-family="Helvetica,sans-Serif" font-size="11.00" fill="#000000">0 &gt;</text>
<polygon fill="none" stroke="#000000" stroke-width="2" points="379,-159.6099 379,-335.6099 580,-335.6099 580,-159.6099 379,-159.6099"/>
</a>
</g>
</g>
<!-- tickets&#45;&gt;users -->
<g id="edge4" class="edge">
<title>tickets:w&#45;&gt;users:e</title>
<path fill="none" stroke="#000000" d="M366.6146,-230.4137C344.2884,-213.0352 367.9657,-147.6099 329,-147.6099"/>
<polygon fill="#000000" stroke="#000000" points="372.842,-232.2956 379.4586,-238.056 376.671,-233.4528 380.5,-234.6099 380.5,-234.6099 380.5,-234.6099 376.671,-233.4528 381.5414,-231.1638 372.842,-232.2956 372.842,-232.2956"/>
<ellipse fill="none" stroke="#000000" cx="369.7789" cy="-231.3699" rx="3.2" ry="3.2"/>
</g>
<!-- tickets&#45;&gt;programs -->
<g id="edge5" class="edge">
<title>tickets:w&#45;&gt;programs:e</title>
<path fill="none" stroke="#000000" d="M365.7675,-257.2974C333.228,-260.4778 321.0454,-273.6099 282,-273.6099"/>
<polygon fill="#000000" stroke="#000000" points="372.5087,-256.9829 380.6678,-260.206 376.5043,-256.7964 380.5,-256.6099 380.5,-256.6099 380.5,-256.6099 376.5043,-256.7964 380.3322,-253.0138 372.5087,-256.9829 372.5087,-256.9829"/>
<ellipse fill="none" stroke="#000000" cx="369.3122" cy="-257.1321" rx="3.2" ry="3.2"/>
</g>
</g>
</svg>
