<?xml version="1.0" encoding="UTF-8" standalone="no"?>
<!DOCTYPE svg PUBLIC "-//W3C//DTD SVG 1.1//EN"
 "http://www.w3.org/Graphics/SVG/1.1/DTD/svg11.dtd">
<!-- Generated by graphviz version 2.40.1 (20161225.0304)
 -->
<!-- Title: oneDegreeRelationshipsDiagram Pages: 1 -->
<svg width="464pt" height="334pt"
 viewBox="0.00 0.00 464.00 333.70" xmlns="http://www.w3.org/2000/svg" xmlns:xlink="http://www.w3.org/1999/xlink">
<g id="graph0" class="graph" transform="scale(1 1) rotate(0) translate(4 329.7)">
<title>oneDegreeRelationshipsDiagram</title>
<polygon fill="#ffffff" stroke="transparent" points="-4,4 -4,-329.7 460,-329.7 460,4 -4,4"/>
<text text-anchor="middle" x="72.4936" y="-7.3" font-family="Helvetica,sans-Serif" font-size="11.00" fill="#000000">Generated by SchemaSpy</text>
<!-- authority -->
<g id="node1" class="node">
<title>authority</title>
<g id="a_node1"><a xlink:href="../../tables/authority.html" xlink:title="authority" target="_top">
<polygon fill="#ffffff" stroke="transparent" points="343.5,-194.7 343.5,-321.7 428.5,-321.7 428.5,-194.7 343.5,-194.7"/>
<polygon fill="#f5f5f5" stroke="transparent" points="344,-298.2 344,-321.2 429,-321.2 429,-298.2 344,-298.2"/>
<polygon fill="none" stroke="#000000" points="344,-298.2 344,-321.2 429,-321.2 429,-298.2 344,-298.2"/>
<text text-anchor="start" x="348.9119" y="-307.3" font-family="Helvetica,sans-Serif" font-weight="bold" font-size="11.00" fill="#000000">authority</text>
<text text-anchor="start" x="394.5219" y="-306.3" font-family="Helvetica,sans-Serif" font-size="11.00" fill="#000000">[table]</text>
<polygon fill="none" stroke="#000000" points="344,-276.2 344,-298.2 429,-298.2 429,-276.2 344,-276.2"/>
<image xlink:href="../../images/primaryKeys.png" width="11px" height="12px" preserveAspectRatio="xMinYMin meet" x="349" y="-293.2"/>
<text text-anchor="start" x="365" y="-283.3" font-family="Helvetica,sans-Serif" font-size="11.00" fill="#000000">id</text>
<polygon fill="#ffffff" stroke="transparent" points="344,-254.2 344,-276.2 429,-276.2 429,-254.2 344,-254.2"/>
<polygon fill="none" stroke="#000000" points="344,-254.2 344,-276.2 429,-276.2 429,-254.2 344,-254.2"/>
<image xlink:href="../../images/foreignKeys.png" width="11px" height="12px" preserveAspectRatio="xMinYMin meet" x="349" y="-271.2"/>
<text text-anchor="start" x="365" y="-261.3" font-family="Helvetica,sans-Serif" font-size="11.00" fill="#000000">user_id</text>
<polygon fill="#ffffff" stroke="transparent" points="344,-232.2 344,-254.2 429,-254.2 429,-232.2 344,-232.2"/>
<polygon fill="none" stroke="#000000" points="344,-232.2 344,-254.2 429,-254.2 429,-232.2 344,-232.2"/>
<image xlink:href="../../images/foreignKeys.png" width="11px" height="12px" preserveAspectRatio="xMinYMin meet" x="349" y="-249.2"/>
<text text-anchor="start" x="365" y="-239.3" font-family="Helvetica,sans-Serif" font-size="11.00" fill="#000000">group_id</text>
<polygon fill="none" stroke="#000000" points="344,-213.2 344,-232.2 429,-232.2 429,-213.2 344,-213.2"/>
<text text-anchor="start" x="347" y="-219.3" font-family="Helvetica,sans-Serif" font-size="11.00" fill="#000000">...</text>
<polygon fill="#ffffff" stroke="transparent" points="344,-194.2 344,-213.2 372,-213.2 372,-194.2 344,-194.2"/>
<polygon fill="none" stroke="#000000" points="344,-194.2 344,-213.2 372,-213.2 372,-194.2 344,-194.2"/>
<text text-anchor="start" x="347" y="-200.3" font-family="Helvetica,sans-Serif" font-size="11.00" fill="#000000">&lt; 2</text>
<polygon fill="#ffffff" stroke="transparent" points="372,-194.2 372,-213.2 413,-213.2 413,-194.2 372,-194.2"/>
<polygon fill="none" stroke="#000000" points="372,-194.2 372,-213.2 413,-213.2 413,-194.2 372,-194.2"/>
<text text-anchor="start" x="377.6105" y="-200.3" font-family="Helvetica,sans-Serif" font-size="11.00" fill="#000000">0 rows</text>
<polygon fill="#ffffff" stroke="transparent" points="413,-194.2 413,-213.2 429,-213.2 429,-194.2 413,-194.2"/>
<polygon fill="none" stroke="#000000" points="413,-194.2 413,-213.2 429,-213.2 429,-194.2 413,-194.2"/>
<text text-anchor="start" x="419.8862" y="-200.3" font-family="Helvetica,sans-Serif" font-size="11.00" fill="#000000"> &#160;</text>
</a>
</g>
</g>
<!-- users -->
<g id="node2" class="node">
<title>users</title>
<g id="a_node2"><a xlink:href="../../tables/users.html" xlink:title="users" target="_top">
<polygon fill="#ffffff" stroke="transparent" points="8,-38.2 8,-216.2 275,-216.2 275,-38.2 8,-38.2"/>
<polygon fill="#f5f5f5" stroke="transparent" points="10.5,-191.2 10.5,-214.2 273.5,-214.2 273.5,-191.2 10.5,-191.2"/>
<polygon fill="none" stroke="#000000" points="10.5,-191.2 10.5,-214.2 273.5,-214.2 273.5,-191.2 10.5,-191.2"/>
<text text-anchor="start" x="15.5" y="-200.3" font-family="Helvetica,sans-Serif" font-weight="bold" font-size="11.00" fill="#000000">users</text>
<text text-anchor="start" x="238.5437" y="-199.3" font-family="Helvetica,sans-Serif" font-size="11.00" fill="#000000">[table]</text>
<polygon fill="none" stroke="#000000" points="10.5,-169.2 10.5,-191.2 206.5,-191.2 206.5,-169.2 10.5,-169.2"/>
<image xlink:href="../../images/primaryKeys.png" width="11px" height="12px" preserveAspectRatio="xMinYMin meet" x="15.5" y="-186.2"/>
<text text-anchor="start" x="30.5" y="-176.3" font-family="Helvetica,sans-Serif" font-size="11.00" fill="#000000">id</text>
<polygon fill="none" stroke="#000000" points="206.5,-169.2 206.5,-191.2 273.5,-191.2 273.5,-169.2 206.5,-169.2"/>
<text text-anchor="start" x="209.5" y="-176.9" font-family="Helvetica,sans-Serif" font-size="11.00" fill="#000000">int[10]</text>
<polygon fill="#ffffff" stroke="transparent" points="10.5,-147.2 10.5,-169.2 206.5,-169.2 206.5,-147.2 10.5,-147.2"/>
<polygon fill="none" stroke="#000000" points="10.5,-147.2 10.5,-169.2 206.5,-169.2 206.5,-147.2 10.5,-147.2"/>
<text text-anchor="start" x="30.5" y="-154.3" font-family="Helvetica,sans-Serif" font-size="11.00" fill="#000000">username</text>
<polygon fill="none" stroke="#000000" points="206.5,-147.2 206.5,-169.2 273.5,-169.2 273.5,-147.2 206.5,-147.2"/>
<text text-anchor="start" x="209.5" y="-154.9" font-family="Helvetica,sans-Serif" font-size="11.00" fill="#000000">varchar[25]</text>
<polygon fill="none" stroke="#000000" points="10.5,-125.2 10.5,-147.2 206.5,-147.2 206.5,-125.2 10.5,-125.2"/>
<text text-anchor="start" x="30.5" y="-132.3" font-family="Helvetica,sans-Serif" font-size="11.00" fill="#000000">hashed_password</text>
<polygon fill="none" stroke="#000000" points="206.5,-125.2 206.5,-147.2 273.5,-147.2 273.5,-125.2 206.5,-125.2"/>
<text text-anchor="start" x="209.4365" y="-132.9" font-family="Helvetica,sans-Serif" font-size="11.00" fill="#000000">varchar[255]</text>
<polygon fill="none" stroke="#000000" points="10.5,-103.2 10.5,-125.2 206.5,-125.2 206.5,-103.2 10.5,-103.2"/>
<text text-anchor="start" x="30.5" y="-110.3" font-family="Helvetica,sans-Serif" font-size="11.00" fill="#000000">is_Family</text>
<polygon fill="none" stroke="#000000" points="206.5,-103.2 206.5,-125.2 273.5,-125.2 273.5,-103.2 206.5,-103.2"/>
<text text-anchor="start" x="209.5" y="-110.9" font-family="Helvetica,sans-Serif" font-size="11.00" fill="#000000">bit[1]</text>
<polygon fill="none" stroke="#000000" points="10.5,-81.2 10.5,-103.2 206.5,-103.2 206.5,-81.2 10.5,-81.2"/>
<text text-anchor="start" x="30.5" y="-88.3" font-family="Helvetica,sans-Serif" font-size="11.00" fill="#000000">is_active</text>
<polygon fill="none" stroke="#000000" points="206.5,-81.2 206.5,-103.2 273.5,-103.2 273.5,-81.2 206.5,-81.2"/>
<text text-anchor="start" x="209.5" y="-88.9" font-family="Helvetica,sans-Serif" font-size="11.00" fill="#000000">bit[1]</text>
<polygon fill="none" stroke="#000000" points="10.5,-59.2 10.5,-81.2 206.5,-81.2 206.5,-59.2 10.5,-59.2"/>
<text text-anchor="start" x="30.5" y="-66.3" font-family="Helvetica,sans-Serif" font-size="11.00" fill="#000000">require_change_password</text>
<polygon fill="none" stroke="#000000" points="206.5,-59.2 206.5,-81.2 273.5,-81.2 273.5,-59.2 206.5,-59.2"/>
<text text-anchor="start" x="209.5" y="-66.9" font-family="Helvetica,sans-Serif" font-size="11.00" fill="#000000">bit[1]</text>
<polygon fill="#ffffff" stroke="transparent" points="10.5,-40.2 10.5,-59.2 99.5,-59.2 99.5,-40.2 10.5,-40.2"/>
<polygon fill="none" stroke="#000000" points="10.5,-40.2 10.5,-59.2 99.5,-59.2 99.5,-40.2 10.5,-40.2"/>
<text text-anchor="start" x="13.5" y="-46.3" font-family="Helvetica,sans-Serif" font-size="11.00" fill="#000000">&lt; 0</text>
<polygon fill="#ffffff" stroke="transparent" points="99.5,-40.2 99.5,-59.2 206.5,-59.2 206.5,-40.2 99.5,-40.2"/>
<polygon fill="none" stroke="#000000" points="99.5,-40.2 99.5,-59.2 206.5,-59.2 206.5,-40.2 99.5,-40.2"/>
<text text-anchor="start" x="171.1105" y="-46.3" font-family="Helvetica,sans-Serif" font-size="11.00" fill="#000000">0 rows</text>
<polygon fill="#ffffff" stroke="transparent" points="206.5,-40.2 206.5,-59.2 273.5,-59.2 273.5,-40.2 206.5,-40.2"/>
<polygon fill="none" stroke="#000000" points="206.5,-40.2 206.5,-59.2 273.5,-59.2 273.5,-40.2 206.5,-40.2"/>
<text text-anchor="start" x="254.9053" y="-46.3" font-family="Helvetica,sans-Serif" font-size="11.00" fill="#000000">2 &gt;</text>
<polygon fill="none" stroke="#000000" stroke-width="2" points="9,-39.2 9,-215.2 274,-215.2 274,-39.2 9,-39.2"/>
</a>
</g>
</g>
<!-- authority&#45;&gt;users -->
<g id="edge1" class="edge">
<title>authority:w&#45;&gt;users:e</title>
<path fill="none" stroke="#000000" d="M329.6597,-261.9717C300.3484,-246.4454 316.8293,-180.2 273.5,-180.2"/>
<polygon fill="#000000" stroke="#000000" points="336.1953,-263.443 343.2093,-268.7121 340.0977,-264.3215 344,-265.2 344,-265.2 344,-265.2 340.0977,-264.3215 344.7907,-261.6879 336.1953,-263.443 336.1953,-263.443"/>
<ellipse fill="none" stroke="#000000" cx="333.0735" cy="-262.7401" rx="3.2" ry="3.2"/>
</g>
<!-- tickets -->
<g id="node3" class="node">
<title>tickets</title>
<g id="a_node3"><a xlink:href="../../tables/tickets.html" xlink:title="tickets" target="_top">
<polygon fill="#ffffff" stroke="transparent" points="324,-46.7 324,-173.7 448,-173.7 448,-46.7 324,-46.7"/>
<polygon fill="#f5f5f5" stroke="transparent" points="324,-150.2 324,-173.2 448,-173.2 448,-150.2 324,-150.2"/>
<polygon fill="none" stroke="#000000" points="324,-150.2 324,-173.2 448,-173.2 448,-150.2 324,-150.2"/>
<text text-anchor="start" x="329" y="-159.3" font-family="Helvetica,sans-Serif" font-weight="bold" font-size="11.00" fill="#000000">tickets</text>
<text text-anchor="start" x="413.0437" y="-158.3" font-family="Helvetica,sans-Serif" font-size="11.00" fill="#000000">[table]</text>
<polygon fill="none" stroke="#000000" points="324,-128.2 324,-150.2 448,-150.2 448,-128.2 324,-128.2"/>
<image xlink:href="../../images/primaryKeys.png" width="11px" height="12px" preserveAspectRatio="xMinYMin meet" x="329" y="-145.2"/>
<text text-anchor="start" x="344" y="-135.3" font-family="Helvetica,sans-Serif" font-size="11.00" fill="#000000">id</text>
<polygon fill="#ffffff" stroke="transparent" points="324,-106.2 324,-128.2 448,-128.2 448,-106.2 324,-106.2"/>
<polygon fill="none" stroke="#000000" points="324,-106.2 324,-128.2 448,-128.2 448,-106.2 324,-106.2"/>
<image xlink:href="../../images/foreignKeys.png" width="11px" height="12px" preserveAspectRatio="xMinYMin meet" x="329" y="-123.2"/>
<text text-anchor="start" x="344" y="-113.3" font-family="Helvetica,sans-Serif" font-size="11.00" fill="#000000">program_id</text>
<polygon fill="#ffffff" stroke="transparent" points="324,-84.2 324,-106.2 448,-106.2 448,-84.2 324,-84.2"/>
<polygon fill="none" stroke="#000000" points="324,-84.2 324,-106.2 448,-106.2 448,-84.2 324,-84.2"/>
<image xlink:href="../../images/foreignKeys.png" width="11px" height="12px" preserveAspectRatio="xMinYMin meet" x="329" y="-101.2"/>
<text text-anchor="start" x="344" y="-91.3" font-family="Helvetica,sans-Serif" font-size="11.00" fill="#000000">owner_id</text>
<polygon fill="none" stroke="#000000" points="324,-65.2 324,-84.2 448,-84.2 448,-65.2 324,-65.2"/>
<text text-anchor="start" x="327" y="-71.3" font-family="Helvetica,sans-Serif" font-size="11.00" fill="#000000">...</text>
<polygon fill="#ffffff" stroke="transparent" points="324,-46.2 324,-65.2 371,-65.2 371,-46.2 324,-46.2"/>
<polygon fill="none" stroke="#000000" points="324,-46.2 324,-65.2 371,-65.2 371,-46.2 324,-46.2"/>
<text text-anchor="start" x="327" y="-52.3" font-family="Helvetica,sans-Serif" font-size="11.00" fill="#000000">&lt; 2</text>
<polygon fill="#ffffff" stroke="transparent" points="371,-46.2 371,-65.2 422,-65.2 422,-46.2 371,-46.2"/>
<polygon fill="none" stroke="#000000" points="371,-46.2 371,-65.2 422,-65.2 422,-46.2 371,-46.2"/>
<text text-anchor="start" x="386.6105" y="-52.3" font-family="Helvetica,sans-Serif" font-size="11.00" fill="#000000">0 rows</text>
<polygon fill="#ffffff" stroke="transparent" points="422,-46.2 422,-65.2 448,-65.2 448,-46.2 422,-46.2"/>
<polygon fill="none" stroke="#000000" points="422,-46.2 422,-65.2 448,-65.2 448,-46.2 422,-46.2"/>
<text text-anchor="start" x="438.8862" y="-52.3" font-family="Helvetica,sans-Serif" font-size="11.00" fill="#000000"> &#160;</text>
</a>
</g>
</g>
<!-- tickets&#45;&gt;users -->
<g id="edge2" class="edge">
<title>tickets:w&#45;&gt;users:e</title>
<path fill="none" stroke="#000000" d="M310.1216,-99.532C288.76,-116.8534 311.4344,-180.2 273.5,-180.2"/>
<polygon fill="#000000" stroke="#000000" points="316.3634,-97.5837 325.0727,-98.6365 320.1817,-96.3919 324,-95.2 324,-95.2 324,-95.2 320.1817,-96.3919 322.9273,-91.7635 316.3634,-97.5837 316.3634,-97.5837"/>
<ellipse fill="none" stroke="#000000" cx="313.3087" cy="-98.5372" rx="3.2" ry="3.2"/>
</g>
</g>
</svg>
