<?xml version="1.0" encoding="UTF-8" standalone="no"?>
<!DOCTYPE svg PUBLIC "-//W3C//DTD SVG 1.1//EN"
 "http://www.w3.org/Graphics/SVG/1.1/DTD/svg11.dtd">
<!-- Generated by graphviz version 2.40.1 (20161225.0304)
 -->
<!-- Title: twoDegreesRelationshipsDiagram Pages: 1 -->
<svg width="589pt" height="374pt"
 viewBox="0.00 0.00 589.00 374.20" xmlns="http://www.w3.org/2000/svg" xmlns:xlink="http://www.w3.org/1999/xlink">
<g id="graph0" class="graph" transform="scale(1 1) rotate(0) translate(4 370.2)">
<title>twoDegreesRelationshipsDiagram</title>
<polygon fill="#ffffff" stroke="transparent" points="-4,4 -4,-370.2 585,-370.2 585,4 -4,4"/>
<text text-anchor="middle" x="72.4936" y="-7.3" font-family="Helvetica,sans-Serif" font-size="11.00" fill="#000000">Generated by SchemaSpy</text>
<!-- authority -->
<g id="node1" class="node">
<title>authority</title>
<g id="a_node1"><a xlink:href="../../tables/authority.html" xlink:title="authority" target="_top">
<polygon fill="#ffffff" stroke="transparent" points="468.5,-38.2 468.5,-165.2 553.5,-165.2 553.5,-38.2 468.5,-38.2"/>
<polygon fill="#f5f5f5" stroke="transparent" points="469,-141.7 469,-164.7 554,-164.7 554,-141.7 469,-141.7"/>
<polygon fill="none" stroke="#000000" points="469,-141.7 469,-164.7 554,-164.7 554,-141.7 469,-141.7"/>
<text text-anchor="start" x="473.9119" y="-150.8" font-family="Helvetica,sans-Serif" font-weight="bold" font-size="11.00" fill="#000000">authority</text>
<text text-anchor="start" x="519.5219" y="-149.8" font-family="Helvetica,sans-Serif" font-size="11.00" fill="#000000">[table]</text>
<polygon fill="none" stroke="#000000" points="469,-119.7 469,-141.7 554,-141.7 554,-119.7 469,-119.7"/>
<image xlink:href="../../images/primaryKeys.png" width="11px" height="12px" preserveAspectRatio="xMinYMin meet" x="474" y="-136.7"/>
<text text-anchor="start" x="490" y="-126.8" font-family="Helvetica,sans-Serif" font-size="11.00" fill="#000000">id</text>
<polygon fill="#ffffff" stroke="transparent" points="469,-97.7 469,-119.7 554,-119.7 554,-97.7 469,-97.7"/>
<polygon fill="none" stroke="#000000" points="469,-97.7 469,-119.7 554,-119.7 554,-97.7 469,-97.7"/>
<image xlink:href="../../images/foreignKeys.png" width="11px" height="12px" preserveAspectRatio="xMinYMin meet" x="474" y="-114.7"/>
<text text-anchor="start" x="490" y="-104.8" font-family="Helvetica,sans-Serif" font-size="11.00" fill="#000000">user_id</text>
<polygon fill="#ffffff" stroke="transparent" points="469,-75.7 469,-97.7 554,-97.7 554,-75.7 469,-75.7"/>
<polygon fill="none" stroke="#000000" points="469,-75.7 469,-97.7 554,-97.7 554,-75.7 469,-75.7"/>
<image xlink:href="../../images/foreignKeys.png" width="11px" height="12px" preserveAspectRatio="xMinYMin meet" x="474" y="-92.7"/>
<text text-anchor="start" x="490" y="-82.8" font-family="Helvetica,sans-Serif" font-size="11.00" fill="#000000">group_id</text>
<polygon fill="none" stroke="#000000" points="469,-56.7 469,-75.7 554,-75.7 554,-56.7 469,-56.7"/>
<text text-anchor="start" x="472" y="-62.8" font-family="Helvetica,sans-Serif" font-size="11.00" fill="#000000">...</text>
<polygon fill="#ffffff" stroke="transparent" points="469,-37.7 469,-56.7 497,-56.7 497,-37.7 469,-37.7"/>
<polygon fill="none" stroke="#000000" points="469,-37.7 469,-56.7 497,-56.7 497,-37.7 469,-37.7"/>
<text text-anchor="start" x="472" y="-43.8" font-family="Helvetica,sans-Serif" font-size="11.00" fill="#000000">&lt; 2</text>
<polygon fill="#ffffff" stroke="transparent" points="497,-37.7 497,-56.7 538,-56.7 538,-37.7 497,-37.7"/>
<polygon fill="none" stroke="#000000" points="497,-37.7 497,-56.7 538,-56.7 538,-37.7 497,-37.7"/>
<text text-anchor="start" x="502.6105" y="-43.8" font-family="Helvetica,sans-Serif" font-size="11.00" fill="#000000">0 rows</text>
<polygon fill="#ffffff" stroke="transparent" points="538,-37.7 538,-56.7 554,-56.7 554,-37.7 538,-37.7"/>
<polygon fill="none" stroke="#000000" points="538,-37.7 538,-56.7 554,-56.7 554,-37.7 538,-37.7"/>
<text text-anchor="start" x="544.8862" y="-43.8" font-family="Helvetica,sans-Serif" font-size="11.00" fill="#000000"> &#160;</text>
</a>
</g>
</g>
<!-- groups -->
<g id="node2" class="node">
<title>groups</title>
<g id="a_node2"><a xlink:href="../../tables/groups.html" xlink:title="groups" target="_top">
<polygon fill="#ffffff" stroke="transparent" points="8,-175.2 8,-236.2 84,-236.2 84,-175.2 8,-175.2"/>
<polygon fill="#f5f5f5" stroke="transparent" points="8,-212.7 8,-235.7 84,-235.7 84,-212.7 8,-212.7"/>
<polygon fill="none" stroke="#000000" points="8,-212.7 8,-235.7 84,-235.7 84,-212.7 8,-212.7"/>
<text text-anchor="start" x="12.6893" y="-221.8" font-family="Helvetica,sans-Serif" font-weight="bold" font-size="11.00" fill="#000000">groups</text>
<text text-anchor="start" x="49.5219" y="-220.8" font-family="Helvetica,sans-Serif" font-size="11.00" fill="#000000">[table]</text>
<polygon fill="none" stroke="#000000" points="8,-193.7 8,-212.7 84,-212.7 84,-193.7 8,-193.7"/>
<text text-anchor="start" x="11" y="-199.8" font-family="Helvetica,sans-Serif" font-size="11.00" fill="#000000">...</text>
<polygon fill="#ffffff" stroke="transparent" points="8,-174.7 8,-193.7 22,-193.7 22,-174.7 8,-174.7"/>
<polygon fill="none" stroke="#000000" points="8,-174.7 8,-193.7 22,-193.7 22,-174.7 8,-174.7"/>
<text text-anchor="start" x="11" y="-180.8" font-family="Helvetica,sans-Serif" font-size="11.00" fill="#000000"> &#160;</text>
<polygon fill="#ffffff" stroke="transparent" points="22,-174.7 22,-193.7 61,-193.7 61,-174.7 22,-174.7"/>
<polygon fill="none" stroke="#000000" points="22,-174.7 22,-193.7 61,-193.7 61,-174.7 22,-174.7"/>
<text text-anchor="start" x="25.6105" y="-180.8" font-family="Helvetica,sans-Serif" font-size="11.00" fill="#000000">0 rows</text>
<polygon fill="#ffffff" stroke="transparent" points="61,-174.7 61,-193.7 84,-193.7 84,-174.7 61,-174.7"/>
<polygon fill="none" stroke="#000000" points="61,-174.7 61,-193.7 84,-193.7 84,-174.7 61,-174.7"/>
<text text-anchor="start" x="65.4053" y="-180.8" font-family="Helvetica,sans-Serif" font-size="11.00" fill="#000000">2 &gt;</text>
</a>
</g>
</g>
<!-- authority&#45;&gt;groups -->
<g id="edge1" class="edge">
<title>authority:w&#45;&gt;groups:e</title>
<path fill="none" stroke="#000000" d="M454.4828,-86.4459C311.7678,-81.4452 245.7952,-5.2356 125,-90.7 81.7273,-121.3161 137.0083,-202.7 84,-202.7"/>
<polygon fill="#000000" stroke="#000000" points="461.0012,-86.56 468.937,-90.2994 465.0006,-86.63 469,-86.7 469,-86.7 469,-86.7 465.0006,-86.63 469.063,-83.1006 461.0012,-86.56 461.0012,-86.56"/>
<ellipse fill="none" stroke="#000000" cx="457.8017" cy="-86.5039" rx="3.2" ry="3.2"/>
</g>
<!-- users -->
<g id="node3" class="node">
<title>users</title>
<g id="a_node3"><a xlink:href="../../tables/users.html" xlink:title="users" target="_top">
<polygon fill="#ffffff" stroke="transparent" points="133,-101.7 133,-279.7 400,-279.7 400,-101.7 133,-101.7"/>
<polygon fill="#f5f5f5" stroke="transparent" points="135.5,-254.7 135.5,-277.7 398.5,-277.7 398.5,-254.7 135.5,-254.7"/>
<polygon fill="none" stroke="#000000" points="135.5,-254.7 135.5,-277.7 398.5,-277.7 398.5,-254.7 135.5,-254.7"/>
<text text-anchor="start" x="140.5" y="-263.8" font-family="Helvetica,sans-Serif" font-weight="bold" font-size="11.00" fill="#000000">users</text>
<text text-anchor="start" x="363.5437" y="-262.8" font-family="Helvetica,sans-Serif" font-size="11.00" fill="#000000">[table]</text>
<polygon fill="none" stroke="#000000" points="135.5,-232.7 135.5,-254.7 331.5,-254.7 331.5,-232.7 135.5,-232.7"/>
<image xlink:href="../../images/primaryKeys.png" width="11px" height="12px" preserveAspectRatio="xMinYMin meet" x="140.5" y="-249.7"/>
<text text-anchor="start" x="155.5" y="-239.8" font-family="Helvetica,sans-Serif" font-size="11.00" fill="#000000">id</text>
<polygon fill="none" stroke="#000000" points="331.5,-232.7 331.5,-254.7 398.5,-254.7 398.5,-232.7 331.5,-232.7"/>
<text text-anchor="start" x="334.5" y="-240.4" font-family="Helvetica,sans-Serif" font-size="11.00" fill="#000000">int[10]</text>
<polygon fill="#ffffff" stroke="transparent" points="135.5,-210.7 135.5,-232.7 331.5,-232.7 331.5,-210.7 135.5,-210.7"/>
<polygon fill="none" stroke="#000000" points="135.5,-210.7 135.5,-232.7 331.5,-232.7 331.5,-210.7 135.5,-210.7"/>
<text text-anchor="start" x="155.5" y="-217.8" font-family="Helvetica,sans-Serif" font-size="11.00" fill="#000000">username</text>
<polygon fill="none" stroke="#000000" points="331.5,-210.7 331.5,-232.7 398.5,-232.7 398.5,-210.7 331.5,-210.7"/>
<text text-anchor="start" x="334.5" y="-218.4" font-family="Helvetica,sans-Serif" font-size="11.00" fill="#000000">varchar[25]</text>
<polygon fill="none" stroke="#000000" points="135.5,-188.7 135.5,-210.7 331.5,-210.7 331.5,-188.7 135.5,-188.7"/>
<text text-anchor="start" x="155.5" y="-195.8" font-family="Helvetica,sans-Serif" font-size="11.00" fill="#000000">hashed_password</text>
<polygon fill="none" stroke="#000000" points="331.5,-188.7 331.5,-210.7 398.5,-210.7 398.5,-188.7 331.5,-188.7"/>
<text text-anchor="start" x="334.4365" y="-196.4" font-family="Helvetica,sans-Serif" font-size="11.00" fill="#000000">varchar[255]</text>
<polygon fill="none" stroke="#000000" points="135.5,-166.7 135.5,-188.7 331.5,-188.7 331.5,-166.7 135.5,-166.7"/>
<text text-anchor="start" x="155.5" y="-173.8" font-family="Helvetica,sans-Serif" font-size="11.00" fill="#000000">is_Family</text>
<polygon fill="none" stroke="#000000" points="331.5,-166.7 331.5,-188.7 398.5,-188.7 398.5,-166.7 331.5,-166.7"/>
<text text-anchor="start" x="334.5" y="-174.4" font-family="Helvetica,sans-Serif" font-size="11.00" fill="#000000">bit[1]</text>
<polygon fill="none" stroke="#000000" points="135.5,-144.7 135.5,-166.7 331.5,-166.7 331.5,-144.7 135.5,-144.7"/>
<text text-anchor="start" x="155.5" y="-151.8" font-family="Helvetica,sans-Serif" font-size="11.00" fill="#000000">is_active</text>
<polygon fill="none" stroke="#000000" points="331.5,-144.7 331.5,-166.7 398.5,-166.7 398.5,-144.7 331.5,-144.7"/>
<text text-anchor="start" x="334.5" y="-152.4" font-family="Helvetica,sans-Serif" font-size="11.00" fill="#000000">bit[1]</text>
<polygon fill="none" stroke="#000000" points="135.5,-122.7 135.5,-144.7 331.5,-144.7 331.5,-122.7 135.5,-122.7"/>
<text text-anchor="start" x="155.5" y="-129.8" font-family="Helvetica,sans-Serif" font-size="11.00" fill="#000000">require_change_password</text>
<polygon fill="none" stroke="#000000" points="331.5,-122.7 331.5,-144.7 398.5,-144.7 398.5,-122.7 331.5,-122.7"/>
<text text-anchor="start" x="334.5" y="-130.4" font-family="Helvetica,sans-Serif" font-size="11.00" fill="#000000">bit[1]</text>
<polygon fill="#ffffff" stroke="transparent" points="135.5,-103.7 135.5,-122.7 224.5,-122.7 224.5,-103.7 135.5,-103.7"/>
<polygon fill="none" stroke="#000000" points="135.5,-103.7 135.5,-122.7 224.5,-122.7 224.5,-103.7 135.5,-103.7"/>
<text text-anchor="start" x="138.5" y="-109.8" font-family="Helvetica,sans-Serif" font-size="11.00" fill="#000000">&lt; 0</text>
<polygon fill="#ffffff" stroke="transparent" points="224.5,-103.7 224.5,-122.7 331.5,-122.7 331.5,-103.7 224.5,-103.7"/>
<polygon fill="none" stroke="#000000" points="224.5,-103.7 224.5,-122.7 331.5,-122.7 331.5,-103.7 224.5,-103.7"/>
<text text-anchor="start" x="296.1105" y="-109.8" font-family="Helvetica,sans-Serif" font-size="11.00" fill="#000000">0 rows</text>
<polygon fill="#ffffff" stroke="transparent" points="331.5,-103.7 331.5,-122.7 398.5,-122.7 398.5,-103.7 331.5,-103.7"/>
<polygon fill="none" stroke="#000000" points="331.5,-103.7 331.5,-122.7 398.5,-122.7 398.5,-103.7 331.5,-103.7"/>
<text text-anchor="start" x="379.9053" y="-109.8" font-family="Helvetica,sans-Serif" font-size="11.00" fill="#000000">2 &gt;</text>
<polygon fill="none" stroke="#000000" stroke-width="2" points="134,-102.7 134,-278.7 399,-278.7 399,-102.7 134,-102.7"/>
</a>
</g>
</g>
<!-- authority&#45;&gt;users -->
<g id="edge2" class="edge">
<title>authority:w&#45;&gt;users:e</title>
<path fill="none" stroke="#000000" d="M454.5937,-111.3967C411.2735,-130.4236 460.504,-243.7 398.5,-243.7"/>
<polygon fill="#000000" stroke="#000000" points="461.1366,-110.172 469.6624,-112.2385 465.0683,-109.436 469,-108.7 469,-108.7 469,-108.7 465.0683,-109.436 468.3376,-105.1615 461.1366,-110.172 461.1366,-110.172"/>
<ellipse fill="none" stroke="#000000" cx="457.9912" cy="-110.7608" rx="3.2" ry="3.2"/>
</g>
<!-- programs -->
<g id="node4" class="node">
<title>programs</title>
<g id="a_node4"><a xlink:href="../../tables/programs.html" xlink:title="programs" target="_top">
<polygon fill="#ffffff" stroke="transparent" points="222,-301.2 222,-362.2 311,-362.2 311,-301.2 222,-301.2"/>
<polygon fill="#f5f5f5" stroke="transparent" points="222.5,-338.7 222.5,-361.7 311.5,-361.7 311.5,-338.7 222.5,-338.7"/>
<polygon fill="none" stroke="#000000" points="222.5,-338.7 222.5,-361.7 311.5,-361.7 311.5,-338.7 222.5,-338.7"/>
<text text-anchor="start" x="227.2774" y="-347.8" font-family="Helvetica,sans-Serif" font-weight="bold" font-size="11.00" fill="#000000">programs</text>
<text text-anchor="start" x="277.0219" y="-346.8" font-family="Helvetica,sans-Serif" font-size="11.00" fill="#000000">[table]</text>
<polygon fill="none" stroke="#000000" points="222.5,-319.7 222.5,-338.7 311.5,-338.7 311.5,-319.7 222.5,-319.7"/>
<text text-anchor="start" x="225.5" y="-325.8" font-family="Helvetica,sans-Serif" font-size="11.00" fill="#000000">...</text>
<polygon fill="#ffffff" stroke="transparent" points="222.5,-300.7 222.5,-319.7 247.5,-319.7 247.5,-300.7 222.5,-300.7"/>
<polygon fill="none" stroke="#000000" points="222.5,-300.7 222.5,-319.7 247.5,-319.7 247.5,-300.7 222.5,-300.7"/>
<text text-anchor="start" x="225.5" y="-306.8" font-family="Helvetica,sans-Serif" font-size="11.00" fill="#000000">&lt; 1</text>
<polygon fill="#ffffff" stroke="transparent" points="247.5,-300.7 247.5,-319.7 287.5,-319.7 287.5,-300.7 247.5,-300.7"/>
<polygon fill="none" stroke="#000000" points="247.5,-300.7 247.5,-319.7 287.5,-319.7 287.5,-300.7 247.5,-300.7"/>
<text text-anchor="start" x="252.1105" y="-306.8" font-family="Helvetica,sans-Serif" font-size="11.00" fill="#000000">0 rows</text>
<polygon fill="#ffffff" stroke="transparent" points="287.5,-300.7 287.5,-319.7 311.5,-319.7 311.5,-300.7 287.5,-300.7"/>
<polygon fill="none" stroke="#000000" points="287.5,-300.7 287.5,-319.7 311.5,-319.7 311.5,-300.7 287.5,-300.7"/>
<text text-anchor="start" x="292.9053" y="-306.8" font-family="Helvetica,sans-Serif" font-size="11.00" fill="#000000">1 &gt;</text>
</a>
</g>
</g>
<!-- programs&#45;&gt;groups -->
<g id="edge3" class="edge">
<title>programs:w&#45;&gt;groups:e</title>
<path fill="none" stroke="#000000" d="M207.7607,-328.4335C171.9093,-326.969 155.0842,-318.9074 125,-290.7 93.5239,-261.1876 127.1478,-202.7 84,-202.7"/>
<polygon fill="#000000" stroke="#000000" points="214.5013,-328.5553 222.4349,-332.2994 218.5007,-328.6277 222.5,-328.7 222.5,-328.7 222.5,-328.7 218.5007,-328.6277 222.5651,-325.1006 214.5013,-328.5553 214.5013,-328.5553"/>
<ellipse fill="none" stroke="#000000" cx="211.3018" cy="-328.4974" rx="3.2" ry="3.2"/>
</g>
<!-- tickets -->
<g id="node5" class="node">
<title>tickets</title>
<g id="a_node5"><a xlink:href="../../tables/tickets.html" xlink:title="tickets" target="_top">
<polygon fill="#ffffff" stroke="transparent" points="449,-226.2 449,-353.2 573,-353.2 573,-226.2 449,-226.2"/>
<polygon fill="#f5f5f5" stroke="transparent" points="449,-329.7 449,-352.7 573,-352.7 573,-329.7 449,-329.7"/>
<polygon fill="none" stroke="#000000" points="449,-329.7 449,-352.7 573,-352.7 573,-329.7 449,-329.7"/>
<text text-anchor="start" x="454" y="-338.8" font-family="Helvetica,sans-Serif" font-weight="bold" font-size="11.00" fill="#000000">tickets</text>
<text text-anchor="start" x="538.0437" y="-337.8" font-family="Helvetica,sans-Serif" font-size="11.00" fill="#000000">[table]</text>
<polygon fill="none" stroke="#000000" points="449,-307.7 449,-329.7 573,-329.7 573,-307.7 449,-307.7"/>
<image xlink:href="../../images/primaryKeys.png" width="11px" height="12px" preserveAspectRatio="xMinYMin meet" x="454" y="-324.7"/>
<text text-anchor="start" x="469" y="-314.8" font-family="Helvetica,sans-Serif" font-size="11.00" fill="#000000">id</text>
<polygon fill="#ffffff" stroke="transparent" points="449,-285.7 449,-307.7 573,-307.7 573,-285.7 449,-285.7"/>
<polygon fill="none" stroke="#000000" points="449,-285.7 449,-307.7 573,-307.7 573,-285.7 449,-285.7"/>
<image xlink:href="../../images/foreignKeys.png" width="11px" height="12px" preserveAspectRatio="xMinYMin meet" x="454" y="-302.7"/>
<text text-anchor="start" x="469" y="-292.8" font-family="Helvetica,sans-Serif" font-size="11.00" fill="#000000">program_id</text>
<polygon fill="#ffffff" stroke="transparent" points="449,-263.7 449,-285.7 573,-285.7 573,-263.7 449,-263.7"/>
<polygon fill="none" stroke="#000000" points="449,-263.7 449,-285.7 573,-285.7 573,-263.7 449,-263.7"/>
<image xlink:href="../../images/foreignKeys.png" width="11px" height="12px" preserveAspectRatio="xMinYMin meet" x="454" y="-280.7"/>
<text text-anchor="start" x="469" y="-270.8" font-family="Helvetica,sans-Serif" font-size="11.00" fill="#000000">owner_id</text>
<polygon fill="none" stroke="#000000" points="449,-244.7 449,-263.7 573,-263.7 573,-244.7 449,-244.7"/>
<text text-anchor="start" x="452" y="-250.8" font-family="Helvetica,sans-Serif" font-size="11.00" fill="#000000">...</text>
<polygon fill="#ffffff" stroke="transparent" points="449,-225.7 449,-244.7 496,-244.7 496,-225.7 449,-225.7"/>
<polygon fill="none" stroke="#000000" points="449,-225.7 449,-244.7 496,-244.7 496,-225.7 449,-225.7"/>
<text text-anchor="start" x="452" y="-231.8" font-family="Helvetica,sans-Serif" font-size="11.00" fill="#000000">&lt; 2</text>
<polygon fill="#ffffff" stroke="transparent" points="496,-225.7 496,-244.7 547,-244.7 547,-225.7 496,-225.7"/>
<polygon fill="none" stroke="#000000" points="496,-225.7 496,-244.7 547,-244.7 547,-225.7 496,-225.7"/>
<text text-anchor="start" x="511.6105" y="-231.8" font-family="Helvetica,sans-Serif" font-size="11.00" fill="#000000">0 rows</text>
<polygon fill="#ffffff" stroke="transparent" points="547,-225.7 547,-244.7 573,-244.7 573,-225.7 547,-225.7"/>
<polygon fill="none" stroke="#000000" points="547,-225.7 547,-244.7 573,-244.7 573,-225.7 547,-225.7"/>
<text text-anchor="start" x="563.8862" y="-231.8" font-family="Helvetica,sans-Serif" font-size="11.00" fill="#000000"> &#160;</text>
</a>
</g>
</g>
<!-- tickets&#45;&gt;users -->
<g id="edge4" class="edge">
<title>tickets:w&#45;&gt;users:e</title>
<path fill="none" stroke="#000000" d="M434.8267,-270.6473C422.1849,-262.2444 418.8692,-243.7 398.5,-243.7"/>
<polygon fill="#000000" stroke="#000000" points="441.3083,-272.5006 448.0103,-278.1613 445.1541,-273.6003 449,-274.7 449,-274.7 449,-274.7 445.1541,-273.6003 449.9897,-271.2387 441.3083,-272.5006 441.3083,-272.5006"/>
<ellipse fill="none" stroke="#000000" cx="438.2316" cy="-271.6208" rx="3.2" ry="3.2"/>
</g>
<!-- tickets&#45;&gt;programs -->
<g id="edge5" class="edge">
<title>tickets:w&#45;&gt;programs:e</title>
<path fill="none" stroke="#000000" d="M434.5272,-297.3107C383.9437,-301.7347 369.0973,-328.7 311.5,-328.7"/>
<polygon fill="#000000" stroke="#000000" points="441.0071,-297.0373 449.1518,-300.2968 445.0036,-296.8687 449,-296.7 449,-296.7 449,-296.7 445.0036,-296.8687 448.8482,-293.1032 441.0071,-297.0373 441.0071,-297.0373"/>
<ellipse fill="none" stroke="#000000" cx="437.81" cy="-297.1722" rx="3.2" ry="3.2"/>
</g>
</g>
</svg>
